<svg width="400" height="203" viewBox="0 0 400 203" fill="none" xmlns="http://www.w3.org/2000/svg">
<path d="M369.319 118.391C366.875 115.994 364.044 115.375 360.89 116.714C358.622 117.67 356.427 118.804 354.156 119.759C351 121.101 347.728 122.114 344.45 123.119L347.697 128.456C347.854 128.709 348.01 128.962 348.154 129.222C348.894 130.222 349.55 131.281 350.116 132.388L278.323 177.307C277.885 177.581 277.456 177.874 277.02 178.157L273.814 180.163L278.152 187.165C279.607 188.054 281.054 188.507 282.687 187.486C312.787 168.636 342.897 149.797 373.016 130.969C374.297 130.168 374.889 129.022 374.727 127.498C374.717 127.243 374.724 126.988 374.749 126.734L369.705 118.591C369.568 118.542 369.438 118.475 369.319 118.391Z" fill="white"/>
<path fill-rule="evenodd" clip-rule="evenodd" d="M347.303 129.75L347.302 129.751C347.016 129.923 346.73 130.096 346.447 130.273C346.801 130.052 347.158 129.835 347.515 129.619C347.729 129.489 347.943 129.359 348.157 129.228C347.874 129.405 347.589 129.577 347.303 129.75L347.303 129.75L347.303 129.75L347.303 129.75L347.303 129.75L347.303 129.75L347.303 129.75ZM350.132 132.378C349.561 131.275 348.9 130.222 348.157 129.228C348 128.975 347.843 128.722 347.699 128.462C343.954 129.889 340.053 130.727 336.135 131.487C336.036 131.506 335.928 131.465 335.825 131.426C335.792 131.414 335.759 131.401 335.727 131.391L335.57 131.556C335.586 131.856 335.606 132.156 335.625 132.457L335.626 132.457L335.626 132.458L335.626 132.458L335.626 132.459L335.626 132.459C335.671 133.149 335.716 133.839 335.715 134.528C335.718 135.705 334.974 136.529 333.969 136.568C332.964 136.608 332.085 135.782 332.007 134.613C331.969 134.083 331.948 133.55 331.927 133.018C331.917 132.782 331.908 132.546 331.897 132.31C331.101 132.231 330.315 132.327 329.53 132.423C329.056 132.481 328.583 132.54 328.106 132.559C328.06 132.609 328.011 132.657 327.959 132.7C328.037 133.697 328.002 134.699 327.855 135.688C327.803 136.153 327.577 136.58 327.222 136.882C326.868 137.184 326.411 137.338 325.947 137.314C325.479 137.292 325.038 137.091 324.714 136.752C324.39 136.412 324.208 135.961 324.206 135.49C324.197 134.87 324.231 134.248 324.265 133.625C324.28 133.36 324.294 133.096 324.305 132.832L320.224 133.007C320.203 133.19 320.182 133.374 320.161 133.558L320.161 133.558L320.16 133.558L320.16 133.559L320.16 133.559L320.16 133.559L320.16 133.559L320.16 133.559C320.102 134.069 320.044 134.579 319.977 135.088C319.817 136.279 318.815 137.158 317.819 137.003C316.744 136.847 316.147 135.996 316.28 134.699C316.318 134.296 316.387 133.896 316.457 133.498L316.457 133.497L316.457 133.497L316.457 133.497L316.457 133.497C316.488 133.317 316.519 133.136 316.548 132.956L316.433 132.771C315.726 132.871 315.038 132.798 314.351 132.725C314.102 132.699 313.853 132.673 313.603 132.655L313.541 132.649C313.194 132.618 312.861 132.588 312.561 132.822L312.491 133.343C312.421 133.864 312.351 134.384 312.278 134.901C312.095 136.121 311.182 136.829 310.044 136.649C309.105 136.497 308.474 135.506 308.607 134.391C308.683 133.697 308.767 133.003 308.85 132.309C307.982 131.927 307.059 131.833 306.139 131.739C305.834 131.708 305.53 131.677 305.227 131.635C305.149 131.937 305.077 132.239 305.005 132.54C304.888 133.031 304.771 133.521 304.629 134.006C304.328 135.047 303.538 135.541 302.53 135.368C301.522 135.195 300.967 134.413 301.089 133.34C301.174 132.592 301.299 131.854 301.424 131.109L301.425 131.109L301.425 131.109L301.425 131.109L301.425 131.108L301.425 131.108L301.425 131.107L301.425 131.105C301.454 130.937 301.482 130.768 301.51 130.599L297.579 129.856C297.505 130.078 297.431 130.301 297.356 130.523C297.207 130.968 297.058 131.413 296.915 131.861C296.604 132.82 295.563 133.478 294.688 133.254C293.582 132.974 293.124 132.173 293.403 130.931C293.521 130.417 293.661 129.908 293.802 129.4C293.87 129.156 293.937 128.913 294.002 128.669L289.858 127.051C289.788 127.219 289.719 127.388 289.65 127.557C289.44 128.069 289.229 128.585 288.989 129.086C288.804 129.538 288.45 129.899 288.002 130.089C287.555 130.28 287.05 130.285 286.599 130.104C285.754 129.784 285.312 128.822 285.605 127.807C285.766 127.246 285.963 126.7 286.163 126.149L286.163 126.148L286.163 126.148L286.164 126.147C286.228 125.967 286.294 125.787 286.358 125.606C285.914 125.387 285.464 125.18 285.014 124.973L285.013 124.973L285.013 124.973L285.013 124.972L285.013 124.972L285.013 124.972L285.013 124.972L285.013 124.972L285.013 124.972C283.899 124.459 282.784 123.946 281.759 123.255L281.561 123.358C281.458 123.567 281.36 123.778 281.262 123.99C281.051 124.444 280.841 124.899 280.582 125.322C279.985 126.292 278.889 126.581 278.017 126.074C277.144 125.567 276.921 124.654 277.359 123.58C277.472 123.295 277.63 123.032 277.788 122.769C278.027 122.371 278.265 121.973 278.346 121.499C278.394 121.452 278.452 121.416 278.515 121.394C278.769 120.901 279.023 120.408 279.277 119.915L279.277 119.914L279.277 119.914L279.277 119.913L279.277 119.913L279.278 119.913L279.278 119.913C279.936 118.633 280.596 117.353 281.261 116.076C281.49 115.739 281.619 115.343 281.632 114.934C276.679 112.065 272.03 108.694 267.758 104.875C266.399 103.672 265.39 103.869 264.385 105.364C263.248 107.056 262.097 108.737 260.935 110.407C259.328 112.721 259.264 114.806 260.755 117.225L264.385 123.084C262.103 124.511 259.818 125.941 257.544 127.388C255.633 128.596 253.724 129.808 251.815 131.021C250.86 131.627 249.905 132.233 248.949 132.839C247.222 133.85 246.955 135.431 247.241 137.228L273.831 180.153L277.037 178.147C277.257 178.009 277.474 177.865 277.69 177.721C277.906 177.577 278.121 177.434 278.34 177.297L350.132 132.378ZM287.349 140.783C286.67 142.505 285.988 144.223 285.234 145.92C284.902 146.675 284.975 147.152 285.658 147.686C286.577 148.404 287.459 149.16 288.342 149.917C288.883 150.381 289.425 150.845 289.975 151.301C290.523 151.751 290.774 152.247 290.497 152.939C290.271 153.983 289.494 154.093 288.633 154.032C288.046 153.988 287.458 153.948 286.868 153.908L286.867 153.907L286.866 153.907L286.865 153.907L286.864 153.907L286.863 153.907L286.862 153.907L286.861 153.907C285.614 153.821 284.364 153.735 283.123 153.62C282.412 153.549 282.078 153.799 281.834 154.447C281.497 155.338 281.137 156.221 280.777 157.104C280.452 157.902 280.126 158.701 279.817 159.505C279.496 160.345 279.008 160.949 278.056 160.906C277.104 160.863 276.809 160.149 276.627 159.343C276.448 158.57 276.256 157.799 276.063 157.029C275.808 156.007 275.553 154.986 275.329 153.956C275.174 153.238 274.805 153.02 274.123 152.991C272.389 152.907 270.659 152.793 268.935 152.651C268.868 152.646 268.8 152.641 268.732 152.636C267.961 152.578 267.14 152.517 266.904 151.504C266.663 150.444 267.284 149.863 268.11 149.37C269.354 148.617 270.587 147.846 271.82 147.075L271.821 147.074C272.349 146.744 272.878 146.414 273.407 146.085C273.247 145.417 273.089 144.749 272.932 144.081L272.932 144.081L272.931 144.08L272.931 144.08L272.931 144.08L272.931 144.079L272.931 144.079L272.931 144.079L272.931 144.078C272.588 142.624 272.245 141.17 271.88 139.72C271.687 138.957 271.748 138.284 272.415 137.845C273.127 137.372 273.792 137.598 274.42 138.145C275.02 138.668 275.632 139.177 276.245 139.685L276.245 139.686C277.053 140.356 277.861 141.027 278.637 141.728C279.259 142.282 279.734 142.372 280.471 141.872C281.376 141.255 282.309 140.681 283.243 140.106L283.243 140.106C283.886 139.71 284.528 139.315 285.162 138.905C285.806 138.502 286.38 138.284 287.064 138.869C287.748 139.455 287.616 140.11 287.349 140.783ZM347.699 128.461C343.954 129.888 340.053 130.726 336.135 131.486C336.036 131.505 335.928 131.464 335.825 131.425L335.825 131.425C335.792 131.413 335.759 131.4 335.727 131.39C335.483 129.739 335.477 128.078 335.471 126.415C335.47 125.947 335.468 125.478 335.461 125.009C337.595 124.678 339.7 124.197 341.804 123.717C342.692 123.514 343.58 123.311 344.471 123.119L347.699 128.461ZM284.984 124.952L284.984 124.952L284.984 124.952L284.984 124.952L284.985 124.952L284.985 124.952L284.985 124.952C285.435 125.159 285.885 125.367 286.329 125.585C286.391 125.551 286.45 125.509 286.504 125.462L288.923 118.72C287.654 118.099 286.383 117.478 285.111 116.856C283.843 118.904 282.714 121.035 281.73 123.235C282.755 123.925 283.87 124.439 284.984 124.952L284.984 124.952ZM289.738 126.874C290.632 124.65 291.525 122.423 292.416 120.195L295.9 121.458C296.029 122.019 295.856 122.527 295.683 123.035L295.683 123.035L295.683 123.035L295.683 123.035L295.683 123.035L295.683 123.035C295.63 123.19 295.577 123.345 295.533 123.502C295.383 124.036 295.215 124.565 295.048 125.094L295.048 125.095L295.048 125.095L295.048 125.095L295.047 125.095L295.047 125.095L295.047 125.095C294.69 126.225 294.332 127.354 294.149 128.532C294.097 128.577 294.04 128.613 293.978 128.64L289.833 127.022C289.798 126.982 289.769 126.93 289.739 126.876L289.738 126.874ZM299.23 123.883C298.643 125.803 298.058 127.724 297.475 129.644C297.508 129.705 297.537 129.768 297.56 129.833L301.491 130.577L301.665 130.468C301.723 130.06 301.782 129.672 301.86 129.273L303.077 123.532L299.711 122.676C299.445 122.926 299.375 123.248 299.303 123.576L299.303 123.576C299.281 123.679 299.258 123.782 299.23 123.883ZM320.11 132.815L320.891 126.01L324.486 125.895C324.795 126.828 324.691 127.762 324.587 128.696C324.529 129.216 324.472 129.736 324.485 130.256C324.494 130.577 324.472 130.898 324.451 131.219L324.451 131.219C324.418 131.703 324.385 132.188 324.457 132.674L324.289 132.831L320.208 133.006C320.181 132.94 320.148 132.876 320.11 132.815ZM316.424 132.763C316.808 130.449 317.039 128.113 317.115 125.769L313.717 125.467C313.452 125.697 313.417 126.014 313.382 126.33C313.373 126.41 313.364 126.491 313.352 126.569C313.135 128.083 312.907 129.596 312.68 131.108C312.602 131.621 312.525 132.134 312.449 132.647C312.479 132.705 312.514 132.76 312.552 132.813C312.852 132.579 313.185 132.609 313.532 132.641L313.593 132.646C313.843 132.664 314.092 132.691 314.341 132.717C315.029 132.79 315.717 132.863 316.424 132.763ZM309.733 124.873C309.791 126.029 309.612 127.162 309.434 128.295C309.329 128.963 309.224 129.631 309.167 130.305C309.132 130.726 309.085 131.147 309.038 131.567C309.016 131.764 308.994 131.96 308.973 132.156L308.828 132.282C307.956 131.899 307.03 131.806 306.108 131.712C305.806 131.682 305.505 131.651 305.207 131.611C305.181 131.546 305.149 131.484 305.112 131.424C305.281 130.666 305.448 129.908 305.615 129.149L305.615 129.149C305.867 128.007 306.119 126.864 306.376 125.721C306.449 125.399 306.545 125.082 306.641 124.764C306.683 124.626 306.725 124.487 306.765 124.348C307.755 124.526 308.745 124.701 309.733 124.873ZM331.816 128.062C331.836 127.177 331.856 126.293 331.514 125.44C330.537 125.661 329.535 125.752 328.534 125.707C328.197 127.808 328.147 129.927 328.097 132.044C328.093 132.215 328.089 132.386 328.085 132.557C328.561 132.537 329.035 132.479 329.509 132.421C330.294 132.325 331.079 132.228 331.876 132.308C331.889 132.296 331.902 132.284 331.914 132.271C331.949 132.238 331.983 132.206 332.021 132.182C332.009 131.959 332 131.735 331.991 131.51C331.966 130.895 331.94 130.276 331.861 129.668C331.792 129.137 331.804 128.6 331.816 128.062Z" fill="#DDDDDD"/>
<path d="M287.04 138.869C286.356 138.283 285.766 138.505 285.138 138.905C283.576 139.9 281.974 140.831 280.447 141.871C279.724 142.362 279.241 142.275 278.612 141.728C277.238 140.5 275.785 139.356 274.396 138.145C273.767 137.598 273.103 137.371 272.391 137.845C271.724 138.284 271.662 138.957 271.856 139.72C272.391 141.841 272.875 143.963 273.382 146.084C271.621 147.186 269.86 148.288 268.086 149.37C267.276 149.877 266.639 150.444 266.88 151.504C267.129 152.611 268.085 152.581 268.91 152.651C270.634 152.803 272.363 152.916 274.099 152.99C274.781 153.02 275.15 153.238 275.305 153.956C275.698 155.762 276.184 157.546 276.603 159.343C276.791 160.159 277.084 160.87 278.032 160.905C278.979 160.941 279.477 160.352 279.793 159.505C280.444 157.81 281.167 156.144 281.81 154.447C282.054 153.799 282.388 153.548 283.098 153.619C284.935 153.8 286.772 153.914 288.608 154.032C289.47 154.093 290.247 153.982 290.473 152.939C290.744 152.25 290.498 151.751 289.951 151.301C288.507 150.098 287.109 148.833 285.634 147.686C284.953 147.15 284.878 146.674 285.21 145.919C285.959 144.226 286.646 142.505 287.324 140.783C287.616 140.109 287.721 139.45 287.04 138.869Z" fill="white"/>
<path d="M332.69 123.929C331.977 124.21 332.02 125.029 331.514 125.441C332.063 126.813 331.678 128.264 331.86 129.669C331.97 130.499 331.977 131.351 332.021 132.183L335.549 131.555L335.705 131.39C335.393 129.273 335.471 127.14 335.44 125.009C334.569 123.817 333.74 123.511 332.69 123.929Z" fill="white"/>
<path d="M331.88 132.307C331.915 133.074 331.935 133.844 331.99 134.61C332.071 135.777 332.916 136.606 333.952 136.565C334.988 136.524 335.701 135.702 335.698 134.525C335.699 133.535 335.605 132.544 335.553 131.552L332.025 132.181C331.975 132.219 331.929 132.262 331.88 132.307Z" fill="white"/>
<path d="M325.807 124.362C325.052 124.61 324.979 125.427 324.487 125.89C324.966 127.345 324.444 128.797 324.482 130.251C324.505 131.054 324.334 131.859 324.454 132.668C325.118 133.001 325.786 132.744 326.453 132.688C325.793 132.75 325.118 133.001 324.454 132.668L324.287 132.826C324.249 133.712 324.175 134.601 324.188 135.484C324.189 135.954 324.371 136.406 324.695 136.746C325.019 137.085 325.461 137.286 325.928 137.307C326.393 137.332 326.849 137.178 327.204 136.876C327.558 136.573 327.785 136.146 327.836 135.682C327.984 134.693 328.019 133.691 327.941 132.694C327.993 132.65 328.042 132.603 328.087 132.553C328.143 130.265 328.173 127.973 328.537 125.703C327.989 124.408 326.924 123.996 325.807 124.362Z" fill="white"/>
<path d="M305.17 122.277C304.086 122.088 303.518 122.682 303.078 123.533C302.67 125.444 302.264 127.357 301.86 129.271C301.783 129.67 301.723 130.058 301.665 130.466L301.491 130.575C301.356 131.484 301.175 132.398 301.07 133.316C300.949 134.388 301.529 135.183 302.511 135.344C303.494 135.504 304.309 135.022 304.61 133.981C304.829 133.206 305.011 132.401 305.21 131.613C305.184 131.548 305.153 131.486 305.116 131.427C305.538 129.527 305.952 127.626 306.38 125.723C306.485 125.261 306.637 124.808 306.769 124.35C306.618 123.364 306.357 122.485 305.17 122.277Z" fill="white"/>
<path d="M309.735 124.875C309.826 126.713 309.321 128.491 309.168 130.307C309.118 130.924 309.039 131.542 308.974 132.158L312.453 132.645C312.756 130.62 313.065 128.595 313.356 126.567C313.418 126.177 313.389 125.753 313.721 125.465C312.387 123.25 311.359 123.101 309.735 124.875Z" fill="white"/>
<path d="M308.83 132.283C308.747 132.977 308.664 133.671 308.587 134.365C308.463 135.495 309.092 136.481 310.025 136.623C311.167 136.81 312.08 136.102 312.258 134.875C312.363 134.181 312.448 133.49 312.542 132.796C312.503 132.743 312.469 132.687 312.438 132.629L308.96 132.142L308.83 132.283Z" fill="white"/>
<path d="M296.181 121.276L295.899 121.452C296.067 122.185 295.721 122.827 295.531 123.496C295.061 125.172 294.416 126.797 294.147 128.527C294.096 128.571 294.038 128.607 293.976 128.634C293.776 129.387 293.551 130.135 293.377 130.896C293.092 132.127 293.556 132.939 294.662 133.219C295.534 133.438 296.576 132.779 296.889 131.825C297.106 131.156 297.335 130.494 297.553 129.82C297.53 129.756 297.502 129.694 297.469 129.634C298.053 127.713 298.638 125.793 299.225 123.873C299.345 123.447 299.357 122.993 299.706 122.666C299.086 120.454 298.095 120.06 296.181 121.276ZM294.545 128.734C295.221 129.015 295.92 129.239 296.634 129.402C295.92 129.239 295.221 129.015 294.545 128.734Z" fill="white"/>
<path d="M281.606 114.911C281.593 115.319 281.464 115.715 281.234 116.052C280.313 117.822 279.402 119.599 278.489 121.37C278.426 121.394 278.369 121.43 278.32 121.476C278.185 122.262 277.617 122.838 277.333 123.557C276.899 124.638 277.112 125.54 277.991 126.05C278.869 126.561 279.959 126.268 280.555 125.298C280.936 124.678 281.211 123.99 281.535 123.335L281.733 123.232C282.716 121.032 283.845 118.901 285.114 116.853C284.9 114.232 283.714 113.574 281.606 114.911Z" fill="white"/>
<path d="M320.355 124.957C319.247 124.026 318.324 124.232 317.114 125.768C317.037 128.112 316.806 130.448 316.422 132.762C316.46 132.822 316.499 132.886 316.537 132.946C316.447 133.529 316.325 134.103 316.269 134.689C316.147 135.98 316.741 136.85 317.808 136.993C318.815 137.142 319.804 136.27 319.966 135.078C320.057 134.386 320.132 133.69 320.213 132.997C320.181 132.934 320.144 132.874 320.102 132.817L320.88 126.015C320.704 125.662 320.714 125.262 320.355 124.957ZM316.927 132.877L316.978 132.87L316.927 132.877Z" fill="white"/>
<path d="M291.301 117.799C290.27 117.392 289.544 117.961 288.921 118.72L286.502 125.461C286.446 125.505 286.385 125.543 286.321 125.575C286.075 126.304 285.782 127.032 285.569 127.775C285.276 128.79 285.718 129.752 286.562 130.073C287.014 130.254 287.518 130.249 287.965 130.058C288.413 129.867 288.767 129.507 288.952 129.055C289.269 128.39 289.533 127.699 289.821 127.02C289.79 126.969 289.758 126.919 289.725 126.866C290.619 124.641 291.512 122.415 292.403 120.187C292.554 119.156 292.382 118.231 291.301 117.799ZM287.21 125.899L287.436 126.028L287.21 125.899Z" fill="white"/>
<path d="M243.101 54.2889C244.327 50.3938 246.033 46.6246 246.532 42.5312C247.384 35.5406 245.499 29.3436 240.792 24.0499C240.607 23.8196 240.438 23.5761 240.234 23.3672C236.042 19.0874 230.941 16.764 225.007 16.3327C223 16.1909 220.966 16.2528 218.995 16.8208C217.34 17.0008 215.788 17.5628 214.304 18.236C209.807 20.2115 206.062 23.583 203.619 27.856C203.065 28.7841 202.595 29.7603 202.215 30.7729C201.117 33.8295 200.151 36.9317 199.177 40.029C198.496 40.7286 197.996 41.585 197.721 42.5237C194.396 52.7999 191.059 63.0733 187.709 73.3441C187.446 74.1079 187.296 74.9066 187.265 75.7147C184.511 74.8394 181.712 74.0798 179.336 72.3065C177.004 70.574 175.268 68.1549 174.37 65.3871C173.471 62.6193 173.456 59.641 174.326 56.8683C175.249 53.9486 176.168 51.0277 177.164 48.1318C178.849 43.2599 182.219 40.1761 187.2 38.9068C187.433 38.8702 187.649 38.7646 187.821 38.6034C187.992 38.4423 188.112 38.2331 188.164 38.0027C189.052 35.1858 189.954 32.3736 190.902 29.5763C195.245 16.6546 204.082 8.71381 217.34 5.84019C221.478 4.94272 225.7 5.03622 229.877 5.87016C230.333 5.96101 230.795 6.11996 231.275 6.01052L236.981 7.89027C237 8.05667 237.144 8.09043 237.261 8.13807C241.159 9.7403 244.497 12.176 247.535 15.0644C249.803 17.2642 251.74 19.784 253.285 22.5439C255.829 26.9899 257.353 31.9476 257.746 37.0551C258.151 41.8951 257.343 46.5547 255.885 51.1333C255.005 53.894 254.11 56.6498 253.199 59.4005C253.034 59.909 253.06 60.2515 253.429 60.6867C255.688 63.2925 256.898 66.649 256.821 70.098C256.813 70.8665 256.717 71.6333 256.662 72.3999L252.693 84.6169C251.899 85.7486 251.257 86.9877 250.259 87.9745C246.224 91.9673 241.466 93.2734 235.975 91.7504C234.545 91.355 233.154 90.8211 231.743 90.3561C232.15 89.7863 232.463 89.1539 232.67 88.4835C236.013 78.166 239.364 67.8491 242.724 57.5329C243.097 56.4957 243.226 55.3855 243.101 54.2889Z" fill="#DDDDDD"/>
<path d="M187.258 75.7558C187.29 74.9473 187.439 74.148 187.703 73.3837C191.053 63.1054 194.394 52.8253 197.725 42.5435C198.001 41.6041 198.501 40.7471 199.183 40.0471C200.877 38.6064 202.749 38.2636 204.848 39.0714C206.084 39.5472 207.471 39.7496 208.576 40.4249C210.753 41.7577 211.748 44.0153 210.804 46.919C207.606 56.656 204.458 66.41 201.287 76.1559C200.977 77.1093 200.668 78.0586 200.279 78.9882C199.399 81.0931 196.189 82.2204 194.44 81.5803C193.322 81.1708 192.178 80.8124 191.045 80.4622C188.885 79.7785 187.687 78.2941 187.352 76.0728C187.327 75.9653 187.296 75.8594 187.258 75.7558Z" fill="#C4C4C4"/>
<path d="M243.078 54.2833C243.207 55.3866 243.078 56.5043 242.702 57.548C239.327 67.8654 235.971 78.189 232.637 88.5186C232.43 89.1895 232.117 89.8222 231.709 90.3924C230.062 92.1991 228.105 92.7454 225.778 91.8897C224.786 91.5264 223.771 91.2287 222.768 90.8986C221.515 90.4994 220.47 89.6179 219.863 88.4477C219.256 87.2776 219.136 85.9145 219.53 84.6581C222.983 73.9507 226.46 63.2514 229.962 52.5603C230.815 49.9337 233.575 48.5943 236.221 49.4197C237.15 49.7096 238.064 50.0725 239.004 50.3155C241.132 50.8423 242.472 52.1719 243.078 54.2833Z" fill="#C4C4C4"/>
<path d="M219.03 16.7911C221 16.2238 223.024 16.1592 225.038 16.3036C230.969 16.7343 236.066 19.0546 240.255 23.3288C240.459 23.5375 240.628 23.7806 240.813 24.0107C239.533 25.5017 237.116 25.4485 235.498 24.5913C231.547 22.509 227.287 21.084 222.884 20.3721C221.672 20.183 220.566 19.5637 219.769 18.627C219.292 18.1357 219.027 17.4761 219.03 16.7911Z" fill="#C4C4C4"/>
<rect x="78" y="61.2849" width="76" height="136.72" rx="16" fill="#F0F0F0" stroke="#C4C4C4" stroke-width="8"/>
<rect x="101" y="71.355" width="30" height="8.03999" rx="4.02" fill="#C4C4C4"/>
<rect x="138" y="104.52" width="124" height="96.48" rx="13.3251" fill="#D5AE6C"/>
<path fill-rule="evenodd" clip-rule="evenodd" d="M200.001 124.62C207.712 124.62 214.696 127.798 219.76 132.938C224.823 138.078 227.967 145.18 228 153.031V153.155V153.279C227.971 160.261 225.474 166.647 221.357 171.591C221.301 171.562 221.229 171.51 221.131 171.413C220.971 171.252 220.749 170.974 220.444 170.502C220.188 170.121 218.96 168.188 217.795 165.353C216.631 162.517 215.53 158.779 215.53 154.785C215.53 154.001 216.08 152.997 216.872 151.92C217.664 150.843 218.699 149.694 219.67 148.619L219.704 148.582C220.419 147.786 221.114 147.013 221.694 146.292C222.282 145.558 222.753 144.877 223.006 144.278C223.329 143.504 223.378 142.848 223.257 142.338C223.135 141.829 222.844 141.468 222.486 141.284C222.163 141.122 221.758 141.1 221.35 141.274C220.941 141.448 220.528 141.818 220.188 142.441C219.629 143.448 219.26 144.045 218.827 144.56C218.393 145.074 217.896 145.505 217.081 146.179C216.278 146.852 215.239 147.528 214.401 147.816C213.563 148.104 212.926 148.004 212.926 147.127C212.926 146.653 213.281 145.88 213.723 145.037C213.88 144.739 214.047 144.432 214.214 144.127L214.214 144.127L214.214 144.127C214.519 143.568 214.821 143.015 215.049 142.529C215.407 141.768 215.392 141.112 215.104 140.647C214.815 140.181 214.252 139.906 213.513 139.906C212.06 139.906 210.85 140.858 210.004 141.975C209.158 143.092 208.676 144.374 208.676 145.033C208.676 145.667 208.819 146.039 208.969 146.426L208.987 146.473C209.143 146.876 209.298 147.307 209.298 148.075C209.298 148.848 208.501 149.736 207.328 150.431C206.155 151.125 204.607 151.627 203.105 151.627C201.593 151.627 200.413 151.462 199.532 151.064C198.651 150.664 198.069 150.031 197.752 149.092L197.652 148.786L197.552 148.48L197.497 148.314C197.163 147.313 196.872 146.44 196.561 145.626C196.233 144.766 195.883 143.972 195.438 143.161C195.201 142.731 194.901 142.368 194.581 142.046C194.279 141.743 193.959 141.477 193.66 141.228L193.66 141.228L193.66 141.228L193.606 141.183C193.194 140.854 192.881 140.538 192.66 140.247C192.439 139.957 192.31 139.692 192.265 139.466C192.224 139.242 192.192 138.919 192.347 138.408C192.501 137.897 192.842 137.199 193.546 136.225C194.25 135.256 194.651 134.405 194.788 133.703C194.925 133 194.798 132.445 194.447 132.067C194.319 131.934 194.147 131.824 193.937 131.747C193.726 131.671 193.478 131.627 193.199 131.627C192.705 131.627 192.115 131.762 191.472 132.081C190.829 132.4 190.133 132.905 189.426 133.644C188.327 134.801 188.089 135.93 188.127 136.89C188.147 137.43 188.255 137.915 188.345 138.323L188.345 138.323L188.345 138.323C188.415 138.641 188.475 138.912 188.475 139.124C188.475 139.606 188.374 139.985 188.109 140.406C187.843 140.827 187.413 141.292 186.753 141.948C186.089 142.607 185.643 143.219 185.343 144.234C185.043 145.25 184.89 146.668 184.814 148.94C184.785 150.11 184.67 151.032 184.518 151.811C184.366 152.59 184.176 153.226 183.996 153.823C183.841 154.347 183.691 154.855 183.579 155.41C183.467 155.964 183.391 156.566 183.383 157.278C183.371 158.065 183.429 158.714 183.527 159.311C183.625 159.909 183.763 160.456 183.912 161.042C184.058 161.583 184.208 162.165 184.347 162.87C184.486 163.575 184.613 164.405 184.713 165.443C184.884 167.185 184.93 168.779 184.845 170.317C184.761 171.854 184.544 173.333 184.191 174.844L184.173 174.944L184.156 175.043L184.144 175.093C184.078 175.363 184.006 175.66 183.923 175.906C183.859 176.095 183.788 176.252 183.708 176.345C182.46 175.434 181.284 174.427 180.201 173.324C175.134 168.162 172 161.031 172 153.156C172 145.277 175.134 138.143 180.201 132.979C185.268 127.815 192.268 124.62 200.001 124.62ZM208.75 176.666C208.75 177.092 208.732 177.468 208.697 177.783C208.663 178.097 208.611 178.351 208.544 178.53C208.384 178.928 208.005 179.317 207.471 179.668C207.264 179.804 207.028 179.933 206.778 180.057C204.613 180.604 202.35 180.899 200.018 180.899C199.849 180.899 199.682 180.893 199.515 180.887H199.515H199.515C199.438 180.885 199.361 180.882 199.284 180.88C198.991 180.794 198.717 180.693 198.472 180.572C197.932 180.304 197.517 179.951 197.259 179.52C196.671 178.54 196.371 176.934 196.214 174.927C196.058 172.921 196.045 170.515 196.035 167.934L196.03 167.197L196.025 166.46C196.006 163.857 195.989 161.433 196.207 159.458C196.426 157.483 196.879 155.959 197.801 155.154C198.159 154.843 198.591 154.637 199.107 154.536C199.623 154.435 200.222 154.439 200.911 154.55C203.532 154.966 204.954 156.002 205.772 157.299C206.587 158.591 206.803 160.144 207.005 161.602L207.007 161.617L207.029 161.78L207.052 161.942L207.173 162.766L207.293 163.59L207.307 163.68L207.307 163.68L207.307 163.681C207.543 165.254 207.899 167.626 208.199 170.03C208.504 172.48 208.75 174.963 208.75 176.666ZM217.568 173.571C217.701 172.901 216.965 170.671 215.972 168.716C214.979 166.76 213.728 165.08 212.832 165.508C212.145 165.845 211.934 167.95 212.074 170.279C212.212 172.608 212.701 175.162 213.412 176.397C213.541 176.614 213.79 176.674 214.079 176.646C214.107 176.644 214.135 176.639 214.164 176.634C214.177 176.631 214.191 176.629 214.204 176.627C215.275 175.988 216.299 175.279 217.273 174.505C217.281 174.489 217.29 174.473 217.298 174.458C217.31 174.435 217.323 174.412 217.334 174.386C217.431 174.159 217.509 173.894 217.568 173.571ZM190.659 168.671C190.989 170.567 191.2 172.995 191.27 175.089C191.327 176.767 191.253 177.876 191.089 178.598C190.968 179.131 190.797 179.452 190.594 179.635C190.057 179.45 189.526 179.251 189.003 179.034C188.858 178.763 188.727 178.431 188.612 178.036C188.45 177.48 188.318 176.805 188.22 176.023C187.961 173.92 187.944 171.293 188.139 169.183C188.334 167.072 188.742 165.478 189.332 165.441C189.879 165.41 190.328 166.775 190.659 168.671Z" fill="#FEFEFE"/>
</svg>
