<svg width="400" height="201" viewBox="0 0 400 201" fill="none" xmlns="http://www.w3.org/2000/svg">
<rect x="212" y="10.05" width="112" height="64.32" rx="3.13491" fill="#C4C4C4"/>
<rect x="253" y="60.3201" width="30" height="39.155" rx="7.13491" fill="#C4C4C4" stroke="#F5F5F5" stroke-width="8"/>
<path d="M187 94.45C187 92.2408 188.791 90.45 191 90.45H333C335.209 90.45 337 92.2408 337 94.45V100.518C337 102.728 335.208 104.519 332.998 104.518L190.998 104.45C188.79 104.449 187 102.659 187 100.45V94.45Z" fill="#DDDDDD"/>
<path d="M187 113.555C187 112.45 187.895 111.555 189 111.555H330C331.105 111.555 332 112.45 332 113.555V198.994C332 200.101 331.101 200.997 329.994 200.994L188.994 200.55C187.892 200.547 187 199.652 187 198.55V113.555Z" fill="#DDDDDD"/>
<rect x="78" y="60.28" width="76" height="136.72" rx="16" fill="#F0F0F0" stroke="#C4C4C4" stroke-width="8"/>
<rect x="101" y="70.3501" width="30" height="8.04" rx="4.02" fill="#C4C4C4"/>
<path d="M125 114.57H133C133.552 114.57 134 115.018 134 115.57V123.615M107 114.57H99C98.4477 114.57 98 115.018 98 115.57V123.615M125 150.75H133C133.552 150.75 134 150.302 134 149.75V141.705M107 150.75H99C98.4477 150.75 98 150.302 98 149.75V141.705" stroke="#A8A8A8" stroke-width="6"/>
<path d="M106.068 95.8069H103.417V93.822H106.068C106.43 93.822 106.723 93.761 106.947 93.6389C107.172 93.5168 107.335 93.3484 107.438 93.1335C107.545 92.9138 107.599 92.6672 107.599 92.3938C107.599 92.1008 107.545 91.8298 107.438 91.5808C107.335 91.3318 107.172 91.1316 106.947 90.9802C106.723 90.824 106.43 90.7458 106.068 90.7458H104.384V99.425H101.813V88.761H106.068C106.923 88.761 107.658 88.9172 108.273 89.2297C108.893 89.5422 109.369 89.9719 109.701 90.5188C110.033 91.0608 110.199 91.6809 110.199 92.3792C110.199 93.0676 110.033 93.6682 109.701 94.1809C109.369 94.6936 108.893 95.094 108.273 95.3821C107.658 95.6653 106.923 95.8069 106.068 95.8069ZM120.607 93.8806V94.3127C120.607 95.1282 120.492 95.8606 120.263 96.51C120.038 97.1545 119.718 97.7063 119.303 98.1653C118.888 98.6194 118.397 98.9685 117.831 99.2126C117.265 99.4519 116.64 99.5715 115.956 99.5715C115.268 99.5715 114.638 99.4519 114.066 99.2126C113.5 98.9685 113.007 98.6194 112.587 98.1653C112.172 97.7063 111.85 97.1545 111.62 96.51C111.396 95.8606 111.283 95.1282 111.283 94.3127V93.8806C111.283 93.0652 111.396 92.3328 111.62 91.6833C111.85 91.0339 112.169 90.4822 112.58 90.0281C112.995 89.5691 113.485 89.22 114.052 88.9807C114.623 88.7366 115.253 88.6145 115.941 88.6145C116.625 88.6145 117.25 88.7366 117.816 88.9807C118.388 89.22 118.881 89.5691 119.296 90.0281C119.711 90.4822 120.033 91.0339 120.263 91.6833C120.492 92.3328 120.607 93.0652 120.607 93.8806ZM118 94.3127V93.866C118 93.3386 117.953 92.8748 117.86 92.4744C117.772 92.0691 117.641 91.7297 117.465 91.4563C117.289 91.1829 117.072 90.9778 116.813 90.8411C116.559 90.6995 116.269 90.6287 115.941 90.6287C115.6 90.6287 115.302 90.6995 115.048 90.8411C114.794 90.9778 114.582 91.1829 114.411 91.4563C114.24 91.7297 114.11 92.0691 114.022 92.4744C113.939 92.8748 113.898 93.3386 113.898 93.866V94.3127C113.898 94.8352 113.939 95.2991 114.022 95.7043C114.11 96.1047 114.24 96.4441 114.411 96.7224C114.586 97.0007 114.801 97.2107 115.055 97.3523C115.314 97.4939 115.614 97.5647 115.956 97.5647C116.283 97.5647 116.574 97.4939 116.828 97.3523C117.082 97.2107 117.294 97.0007 117.465 96.7224C117.641 96.4441 117.772 96.1047 117.86 95.7043C117.953 95.2991 118 94.8352 118 94.3127ZM127.433 96.5906C127.433 96.4246 127.409 96.2756 127.36 96.1438C127.311 96.0071 127.221 95.8801 127.089 95.7629C126.957 95.6458 126.767 95.5286 126.518 95.4114C126.273 95.2893 125.951 95.1624 125.551 95.0305C125.082 94.8743 124.63 94.6985 124.196 94.5032C123.761 94.303 123.373 94.071 123.031 93.8074C122.689 93.5388 122.418 93.2263 122.218 92.8699C122.018 92.5085 121.918 92.0886 121.918 91.6101C121.918 91.1511 122.021 90.7385 122.226 90.3723C122.431 90.0012 122.716 89.6863 123.083 89.4275C123.454 89.1638 123.888 88.9636 124.386 88.8269C124.884 88.6853 125.429 88.6145 126.02 88.6145C126.801 88.6145 127.489 88.7512 128.085 89.0247C128.686 89.2932 129.154 89.6765 129.491 90.1746C129.833 90.6677 130.004 91.2512 130.004 91.925H127.448C127.448 91.6565 127.392 91.4197 127.279 91.2146C127.172 91.0095 127.008 90.8484 126.789 90.7312C126.569 90.614 126.293 90.5554 125.961 90.5554C125.639 90.5554 125.368 90.6042 125.148 90.7019C124.928 90.7996 124.762 90.9314 124.65 91.0974C124.538 91.2585 124.481 91.4368 124.481 91.6321C124.481 91.7932 124.525 91.9397 124.613 92.0715C124.706 92.1985 124.835 92.3181 125.001 92.4304C125.172 92.5427 125.377 92.6501 125.617 92.7527C125.861 92.8552 126.134 92.9553 126.437 93.053C127.003 93.2336 127.506 93.4363 127.946 93.6609C128.39 93.8806 128.764 94.1321 129.066 94.4153C129.374 94.6936 129.606 95.011 129.762 95.3674C129.923 95.7239 130.004 96.1267 130.004 96.5759C130.004 97.0544 129.911 97.4792 129.726 97.8503C129.54 98.2214 129.274 98.5364 128.927 98.7952C128.581 99.0491 128.166 99.2419 127.682 99.3738C127.199 99.5056 126.659 99.5715 126.063 99.5715C125.517 99.5715 124.977 99.5032 124.445 99.3665C123.917 99.2249 123.439 99.01 123.009 98.7219C122.58 98.429 122.235 98.0554 121.977 97.6013C121.723 97.1423 121.596 96.5979 121.596 95.968H124.174C124.174 96.2805 124.215 96.5442 124.298 96.759C124.381 96.9739 124.503 97.1472 124.665 97.2791C124.826 97.406 125.023 97.4988 125.258 97.5574C125.492 97.6111 125.761 97.6379 126.063 97.6379C126.391 97.6379 126.654 97.5916 126.854 97.4988C127.055 97.4011 127.201 97.2742 127.294 97.1179C127.387 96.9568 127.433 96.781 127.433 96.5906Z" fill="#A8A8A8"/>
<rect x="138" y="104.52" width="124" height="96.48" rx="16" fill="#4A4A4A"/>
<path fill-rule="evenodd" clip-rule="evenodd" d="M200.001 124.62C207.712 124.62 214.696 127.798 219.76 132.938C224.823 138.078 227.967 145.18 228 153.031V153.155V153.279C227.971 160.26 225.474 166.647 221.357 171.591C221.301 171.562 221.229 171.51 221.131 171.413C220.971 171.252 220.749 170.974 220.444 170.502C220.188 170.121 218.96 168.188 217.795 165.353C216.631 162.517 215.53 158.778 215.53 154.785C215.53 154.001 216.08 152.997 216.872 151.92C217.664 150.843 218.699 149.694 219.67 148.619L219.704 148.582C220.419 147.786 221.114 147.013 221.694 146.292C222.282 145.558 222.753 144.877 223.006 144.278C223.329 143.504 223.378 142.848 223.257 142.338C223.135 141.829 222.844 141.467 222.486 141.284C222.163 141.122 221.758 141.1 221.35 141.274C220.941 141.448 220.528 141.818 220.188 142.441C219.629 143.448 219.26 144.045 218.827 144.56C218.393 145.074 217.896 145.505 217.081 146.179C216.278 146.852 215.239 147.528 214.401 147.816C213.563 148.104 212.926 148.004 212.926 147.127C212.926 146.653 213.281 145.88 213.723 145.037C213.88 144.739 214.047 144.432 214.214 144.127L214.214 144.127C214.519 143.568 214.821 143.015 215.049 142.529C215.407 141.768 215.392 141.112 215.104 140.647C214.815 140.181 214.252 139.906 213.513 139.906C212.06 139.906 210.85 140.858 210.004 141.975C209.158 143.092 208.676 144.374 208.676 145.033C208.676 145.667 208.819 146.039 208.969 146.426L208.987 146.473C209.143 146.876 209.298 147.307 209.298 148.075C209.298 148.848 208.501 149.736 207.328 150.431C206.155 151.125 204.607 151.627 203.105 151.627C201.593 151.627 200.413 151.462 199.532 151.064C198.651 150.664 198.069 150.031 197.752 149.092L197.652 148.786L197.552 148.48L197.497 148.314C197.163 147.313 196.872 146.44 196.561 145.626C196.233 144.766 195.883 143.972 195.438 143.161C195.201 142.731 194.901 142.368 194.581 142.046C194.279 141.743 193.959 141.477 193.66 141.228L193.606 141.183C193.194 140.854 192.881 140.538 192.66 140.247C192.439 139.957 192.31 139.692 192.265 139.466C192.224 139.242 192.192 138.919 192.347 138.408C192.501 137.897 192.842 137.199 193.546 136.225C194.25 135.256 194.651 134.405 194.788 133.703C194.925 133 194.798 132.445 194.447 132.067C194.319 131.934 194.147 131.824 193.937 131.747C193.726 131.671 193.478 131.627 193.199 131.627C192.705 131.627 192.115 131.762 191.472 132.081C190.829 132.4 190.133 132.905 189.426 133.644C188.327 134.801 188.089 135.93 188.127 136.89C188.147 137.43 188.255 137.915 188.345 138.323L188.345 138.323L188.345 138.323C188.415 138.641 188.475 138.912 188.475 139.124C188.475 139.606 188.374 139.985 188.109 140.406C187.843 140.827 187.413 141.292 186.753 141.948C186.089 142.607 185.643 143.219 185.343 144.234C185.043 145.25 184.89 146.668 184.814 148.939C184.785 150.11 184.67 151.032 184.518 151.811C184.366 152.59 184.176 153.226 183.996 153.823C183.841 154.347 183.691 154.855 183.579 155.41C183.467 155.964 183.391 156.566 183.383 157.278C183.371 158.065 183.429 158.714 183.527 159.311C183.625 159.908 183.763 160.455 183.912 161.042C184.058 161.583 184.208 162.165 184.347 162.87C184.486 163.575 184.613 164.405 184.713 165.443C184.884 167.184 184.93 168.779 184.845 170.317C184.761 171.854 184.544 173.333 184.191 174.844L184.173 174.944L184.156 175.043L184.144 175.093C184.078 175.363 184.006 175.66 183.923 175.906C183.859 176.095 183.788 176.252 183.708 176.345C182.46 175.434 181.284 174.427 180.201 173.324C175.134 168.162 172 161.031 172 153.156C172 145.277 175.134 138.143 180.201 132.979C185.268 127.815 192.268 124.62 200.001 124.62ZM208.746 176.668C208.746 177.093 208.728 177.469 208.693 177.784C208.658 178.099 208.606 178.352 208.539 178.531C208.379 178.929 208.001 179.318 207.467 179.67C207.26 179.806 207.023 179.934 206.773 180.058C204.608 180.605 202.345 180.9 200.014 180.9C199.845 180.9 199.678 180.894 199.511 180.889H199.511L199.51 180.889C199.434 180.886 199.357 180.883 199.28 180.881C198.986 180.796 198.712 180.694 198.468 180.573C197.927 180.305 197.513 179.952 197.254 179.521C196.666 178.541 196.366 176.935 196.209 174.929C196.053 172.922 196.04 170.516 196.03 167.936L196.025 167.199L196.02 166.461C196.001 163.858 195.984 161.434 196.202 159.46C196.421 157.485 196.874 155.96 197.797 155.155C198.154 154.845 198.587 154.638 199.103 154.537C199.619 154.437 200.218 154.441 200.907 154.552C203.527 154.967 204.949 156.003 205.767 157.3C206.583 158.593 206.798 160.145 207 161.603L207.003 161.619L207.025 161.781L207.047 161.944L207.168 162.767L207.289 163.591L207.302 163.681C207.538 165.254 207.894 167.627 208.194 170.031C208.499 172.481 208.746 174.965 208.746 176.668ZM217.566 173.573C217.699 172.903 216.963 170.673 215.97 168.717C214.977 166.762 213.726 165.081 212.831 165.51C212.143 165.847 211.933 167.951 212.072 170.281C212.211 172.61 212.699 175.163 213.41 176.398C213.54 176.616 213.788 176.676 214.078 176.648C214.105 176.645 214.134 176.64 214.162 176.635C214.176 176.633 214.189 176.63 214.202 176.628C215.273 175.989 216.298 175.28 217.272 174.507C217.276 174.499 217.28 174.491 217.284 174.483C217.288 174.475 217.292 174.467 217.296 174.46C217.309 174.436 217.321 174.413 217.332 174.387C217.429 174.161 217.507 173.896 217.566 173.573ZM190.655 168.673C190.985 170.569 191.196 172.997 191.267 175.091C191.323 176.768 191.25 177.878 191.086 178.6C190.964 179.133 190.794 179.454 190.591 179.637C190.053 179.452 189.522 179.252 189 179.036C188.855 178.765 188.723 178.433 188.608 178.037C188.446 177.482 188.314 176.807 188.216 176.024C187.957 173.922 187.94 171.295 188.136 169.184C188.331 167.074 188.738 165.48 189.328 165.443C189.875 165.411 190.325 166.777 190.655 168.673Z" fill="#FEFEFE"/>
</svg>
