<svg width="400" height="200" viewBox="0 0 400 200" fill="none" xmlns="http://www.w3.org/2000/svg">
<g clip-path="url(#clip0_1712_8145)">
<path d="M315.976 187.939C315.928 188.34 315.904 188.742 315.904 189.145C315.904 195.14 320.74 199.999 326.704 199.999C332.669 199.999 337.504 195.14 337.504 189.145C337.505 188.742 337.481 188.34 337.432 187.939" fill="#C4C4C4"/>
<path d="M283.478 187.939C283.429 188.34 283.405 188.742 283.406 189.145C283.406 195.14 288.241 199.999 294.206 199.999C300.171 199.999 305.006 195.14 305.006 189.145C305.007 188.742 304.982 188.34 304.934 187.939" fill="#C4C4C4"/>
<path fill-rule="evenodd" clip-rule="evenodd" d="M360.126 165.326L360.154 165.326C359.656 163.647 358.905 162.054 357.929 160.602L354.404 155.276L352.754 152.764L351.079 150.251L336.079 127.639L334.429 125.127L332.754 122.614L331.279 120.404C328.03 115.507 322.561 112.566 316.705 112.565L163.943 112.564C161.185 112.573 147.383 117.589 147.375 120.361L148.207 166.933L183.093 166.668L186.213 178.47C175.296 178.097 101.935 187.939 218.407 187.939H343.379C348.906 187.94 354.109 185.317 357.413 180.864C360.716 176.41 361.732 170.65 360.153 165.327L360.126 165.326Z" fill="#DDDDDD"/>
<path d="M349.383 147.74L313.448 147.74C310.93 147.732 308.89 145.773 308.883 143.354V128.005C308.89 125.586 310.93 123.627 313.448 123.62L333.383 123.619L334.769 125.629L347.883 145.547L349.383 147.74Z" fill="white"/>
<path d="M293.792 123.619H275.974C273.162 123.619 270.883 125.583 270.883 128.005V143.354C270.883 145.776 273.162 147.739 275.974 147.739H293.792C296.604 147.739 298.883 145.776 298.883 143.354V128.005C298.883 125.583 296.604 123.619 293.792 123.619Z" fill="white"/>
<path d="M255.792 123.619H237.974C235.162 123.619 232.883 125.583 232.883 128.005V143.354C232.883 145.776 235.162 147.739 237.974 147.739H255.792C258.604 147.739 260.883 145.776 260.883 143.354V128.005C260.883 125.583 258.604 123.619 255.792 123.619Z" fill="white"/>
<path d="M210.949 123.551H193.45C190.688 123.551 188.45 125.8 188.45 128.576V146.163C188.45 148.938 190.688 151.188 193.45 151.188H210.949C213.71 151.188 215.949 148.938 215.949 146.163V128.576C215.949 125.8 213.71 123.551 210.949 123.551Z" fill="white"/>
<path d="M258.406 164.32V169.345C258.394 173.503 255.043 176.87 250.906 176.882H233.407C229.27 176.87 225.919 173.503 225.907 169.345V164.32H230.907V169.345C230.907 170.733 232.026 171.858 233.407 171.858H250.906C252.287 171.858 253.406 170.733 253.406 169.345V164.32H258.406Z" fill="#DDDDDD"/>
<path d="M203.099 -1H187.352L212.286 43.5045H239.844L203.099 -1Z" fill="#C4C4C4"/>
<mask id="mask0_1712_8145" style="mask-type:alpha" maskUnits="userSpaceOnUse" x="119" y="21" width="189" height="39">
<path d="M120.158 24.6581L135.136 57.8247C135.46 58.5411 136.173 59.0015 136.959 59.0015H304.554C306.648 59.0015 308.262 56.8585 307.563 54.884C305.776 49.8368 301.784 41.9499 290.328 36.222C280.547 31.3314 265.551 31.826 256.759 31.4263L147.657 35.0231L135.668 21.835H121.981C120.528 21.835 119.56 23.3344 120.158 24.6581Z" fill="#DDDDDD"/>
</mask>
<g mask="url(#mask0_1712_8145)">
<rect x="104.048" y="14.9746" width="225.946" height="58.1982" fill="#DDDDDD"/>
<rect x="283.207" y="37.7979" width="19.3994" height="5.70571" rx="2.85285" fill="white"/>
</g>
<path d="M174.915 88.0496L216.608 45.8682H253.029L191.241 88.0496H174.915Z" fill="#DDDDDD"/>
<path fill-rule="evenodd" clip-rule="evenodd" d="M89.7148 119.152L81.6376 119.601L82.3111 123.044C83.7596 130.448 86.2427 149.26 84.624 165.009C83.0044 180.766 77.6009 195.207 75.1652 200.326L72.1536 206.656L92.8072 203.788L108.711 201.579L109.113 196.362C109.556 191.928 109.71 179.28 107.077 162.569C104.415 145.676 97.3427 127.993 94.1204 121.206L93.4333 119.759L89.7148 119.152Z" fill="#C4C4C4"/>
<path fill-rule="evenodd" clip-rule="evenodd" d="M56.3417 90.5173C49.6911 91.3057 43.7257 93.4347 40.1758 95.2086C39.1472 95.7226 38.4942 96.7705 38.486 97.9204C38.4779 99.0702 39.1159 100.127 40.137 100.656L65.3064 113.684C61.8026 113.89 58.1848 114.591 54.6254 116.011C36.8789 123.088 29.7856 141.503 27.7466 149.745C27.4618 150.896 27.8688 152.108 28.7906 152.854C29.7124 153.6 30.9827 153.746 32.0491 153.227L86.9566 126.53C87.519 126.283 88.0406 126.112 88.6555 126.052C89.2746 125.991 90.0425 126.038 91.0899 126.295L143.098 142.672C144.185 143.014 145.372 142.723 146.177 141.917C146.983 141.11 147.273 139.923 146.929 138.836C146.136 136.326 144.514 132.37 142.164 128.408C139.834 124.481 136.63 120.276 132.57 117.571C128.206 114.664 122.994 112.552 116.507 112.163L147.889 96.9045C148.971 96.3782 149.643 95.2658 149.607 94.063C149.57 92.8601 148.831 91.7908 147.718 91.3317C144.38 89.9537 138.657 88.2799 132.021 87.5556C125.388 86.8317 117.626 87.0324 110.338 89.6072C102.717 92.2998 97.0602 98.3996 93.1263 104.548C91.9536 106.381 90.9146 108.248 90.0056 110.077C88.0708 104.395 84.2607 98.321 77.264 94.169C70.6438 90.2404 62.9763 89.7309 56.3417 90.5173Z" fill="#DDDDDD"/>
<g clip-path="url(#clip1_1712_8145)">
<rect x="138" y="104" width="124" height="96" rx="16" fill="#F14635"/>
<mask id="path-18-outside-1_1712_8145" maskUnits="userSpaceOnUse" x="171" y="121" width="58" height="63" fill="black">
<rect fill="white" x="171" y="121" width="58" height="63"/>
<path fill-rule="evenodd" clip-rule="evenodd" d="M204.666 126.657H195.332C194.044 126.657 192.999 127.699 192.999 128.985V131.314H206.999V128.985C206.999 127.699 205.954 126.657 204.666 126.657ZM195.332 122C191.466 122 188.332 125.127 188.332 128.985V131.315H181.333C176.179 131.315 172 135.485 172 140.629V166.243C172 170.583 174.974 174.229 179 175.263V175.555C179 179.413 182.134 182.541 186 182.541C189.866 182.541 192.999 179.414 193 175.557H207C207.001 179.414 210.134 182.541 214 182.541C217.866 182.541 221 179.413 221 175.555V175.263C225.026 174.229 228 170.583 228 166.243V140.629C228 135.485 223.821 131.315 218.667 131.315H211.666V128.985C211.666 125.127 208.532 122 204.666 122H195.332ZM211.667 175.557H216.333C216.333 176.842 215.288 177.884 214 177.884C212.712 177.884 211.667 176.842 211.667 175.557ZM218.774 170.898C221.302 170.842 223.333 168.779 223.333 166.243V140.629C223.333 138.057 221.244 135.972 218.667 135.972H181.333C178.756 135.972 176.667 138.057 176.667 140.629V166.243C176.667 168.779 178.698 170.842 181.226 170.898H193V170.9H207V170.898H218.774ZM186 177.884C184.712 177.884 183.667 176.842 183.667 175.557H188.333C188.333 176.842 187.288 177.884 186 177.884ZM190.667 147.615C190.667 146.329 189.622 145.286 188.333 145.286C187.045 145.286 186 146.329 186 147.615C186 155.331 192.268 161.586 200 161.586C207.732 161.586 214 155.331 214 147.615C214 146.329 212.955 145.286 211.667 145.286C210.378 145.286 209.333 146.329 209.333 147.615C209.333 152.759 205.155 156.929 200 156.929C194.845 156.929 190.667 152.759 190.667 147.615Z"/>
</mask>
<path fill-rule="evenodd" clip-rule="evenodd" d="M204.666 126.657H195.332C194.044 126.657 192.999 127.699 192.999 128.985V131.314H206.999V128.985C206.999 127.699 205.954 126.657 204.666 126.657ZM195.332 122C191.466 122 188.332 125.127 188.332 128.985V131.315H181.333C176.179 131.315 172 135.485 172 140.629V166.243C172 170.583 174.974 174.229 179 175.263V175.555C179 179.413 182.134 182.541 186 182.541C189.866 182.541 192.999 179.414 193 175.557H207C207.001 179.414 210.134 182.541 214 182.541C217.866 182.541 221 179.413 221 175.555V175.263C225.026 174.229 228 170.583 228 166.243V140.629C228 135.485 223.821 131.315 218.667 131.315H211.666V128.985C211.666 125.127 208.532 122 204.666 122H195.332ZM211.667 175.557H216.333C216.333 176.842 215.288 177.884 214 177.884C212.712 177.884 211.667 176.842 211.667 175.557ZM218.774 170.898C221.302 170.842 223.333 168.779 223.333 166.243V140.629C223.333 138.057 221.244 135.972 218.667 135.972H181.333C178.756 135.972 176.667 138.057 176.667 140.629V166.243C176.667 168.779 178.698 170.842 181.226 170.898H193V170.9H207V170.898H218.774ZM186 177.884C184.712 177.884 183.667 176.842 183.667 175.557H188.333C188.333 176.842 187.288 177.884 186 177.884ZM190.667 147.615C190.667 146.329 189.622 145.286 188.333 145.286C187.045 145.286 186 146.329 186 147.615C186 155.331 192.268 161.586 200 161.586C207.732 161.586 214 155.331 214 147.615C214 146.329 212.955 145.286 211.667 145.286C210.378 145.286 209.333 146.329 209.333 147.615C209.333 152.759 205.155 156.929 200 156.929C194.845 156.929 190.667 152.759 190.667 147.615Z" fill="white"/>
<path d="M192.999 131.314H192.499V131.814H192.999V131.314ZM206.999 131.314V131.814H207.499V131.314H206.999ZM188.332 131.315V131.815H188.832V131.315H188.332ZM179 175.263H179.5V174.875L179.124 174.779L179 175.263ZM193 175.557V175.057H192.5L192.5 175.557L193 175.557ZM207 175.557L207.5 175.557L207.5 175.057H207V175.557ZM221 175.263L220.876 174.779L220.5 174.875V175.263H221ZM211.666 131.315H211.166V131.815H211.666V131.315ZM216.333 175.557L216.833 175.557L216.834 175.057H216.333V175.557ZM211.667 175.557V175.057H211.166L211.167 175.557L211.667 175.557ZM218.774 170.898V171.399L218.785 171.398L218.774 170.898ZM181.226 170.898L181.215 171.398H181.226V170.898ZM193 170.898H193.5V170.398H193V170.898ZM193 170.9H192.5V171.4H193V170.9ZM207 170.9V171.4H207.5V170.9H207ZM207 170.898V170.398H206.5V170.898H207ZM183.667 175.557V175.057H183.166L183.167 175.557L183.667 175.557ZM188.333 175.557L188.833 175.557L188.834 175.057H188.333V175.557ZM195.332 127.157H204.666V126.157H195.332V127.157ZM193.499 128.985C193.499 127.977 194.319 127.157 195.332 127.157V126.157C193.769 126.157 192.499 127.422 192.499 128.985H193.499ZM193.499 131.314V128.985H192.499V131.314H193.499ZM206.999 130.814H192.999V131.814H206.999V130.814ZM206.499 128.985V131.314H207.499V128.985H206.499ZM204.666 127.157C205.679 127.157 206.499 127.977 206.499 128.985H207.499C207.499 127.422 206.23 126.157 204.666 126.157V127.157ZM188.832 128.985C188.832 125.405 191.742 122.5 195.332 122.5V121.5C191.191 121.5 187.832 124.85 187.832 128.985H188.832ZM188.832 131.315V128.985H187.832V131.315H188.832ZM181.333 131.815H188.332V130.815H181.333V131.815ZM172.5 140.629C172.5 135.763 176.454 131.815 181.333 131.815V130.815C175.904 130.815 171.5 135.208 171.5 140.629H172.5ZM172.5 166.243V140.629H171.5V166.243H172.5ZM179.124 174.779C175.314 173.8 172.5 170.348 172.5 166.243H171.5C171.5 170.817 174.635 174.658 178.876 175.747L179.124 174.779ZM179.5 175.555V175.263H178.5V175.555H179.5ZM186 182.041C182.409 182.041 179.5 179.136 179.5 175.555H178.5C178.5 179.69 181.859 183.041 186 183.041V182.041ZM192.5 175.557C192.499 179.137 189.59 182.041 186 182.041V183.041C190.141 183.041 193.499 179.691 193.5 175.557L192.5 175.557ZM207 175.057H193V176.057H207V175.057ZM206.5 175.557C206.501 179.691 209.859 183.041 214 183.041V182.041C210.41 182.041 207.501 179.137 207.5 175.557L206.5 175.557ZM214 183.041C218.141 183.041 221.5 179.69 221.5 175.555H220.5C220.5 179.136 217.591 182.041 214 182.041V183.041ZM221.5 175.555V175.263H220.5V175.555H221.5ZM227.5 166.243C227.5 170.348 224.686 173.8 220.876 174.779L221.124 175.747C225.365 174.658 228.5 170.817 228.5 166.243H227.5ZM227.5 140.629V166.243H228.5V140.629H227.5ZM218.667 131.815C223.546 131.815 227.5 135.763 227.5 140.629H228.5C228.5 135.208 224.096 130.815 218.667 130.815V131.815ZM211.666 131.815H218.667V130.815H211.666V131.815ZM211.166 128.985V131.315H212.166V128.985H211.166ZM204.666 122.5C208.257 122.5 211.166 125.405 211.166 128.985H212.166C212.166 124.85 208.807 121.5 204.666 121.5V122.5ZM195.332 122.5H204.666V121.5H195.332V122.5ZM216.333 175.057H211.667V176.057H216.333V175.057ZM214 178.384C215.563 178.384 216.833 177.119 216.833 175.557L215.833 175.556C215.833 176.565 215.013 177.384 214 177.384V178.384ZM211.167 175.557C211.167 177.119 212.437 178.384 214 178.384V177.384C212.987 177.384 212.167 176.565 212.167 175.556L211.167 175.557ZM222.833 166.243C222.833 168.506 221.02 170.348 218.763 170.399L218.785 171.398C221.583 171.335 223.833 169.052 223.833 166.243H222.833ZM222.833 140.629V166.243H223.833V140.629H222.833ZM218.667 136.472C220.969 136.472 222.833 138.335 222.833 140.629H223.833C223.833 137.78 221.519 135.472 218.667 135.472V136.472ZM181.333 136.472H218.667V135.472H181.333V136.472ZM177.167 140.629C177.167 138.335 179.031 136.472 181.333 136.472V135.472C178.481 135.472 176.167 137.78 176.167 140.629H177.167ZM177.167 166.243V140.629H176.167V166.243H177.167ZM181.237 170.399C178.98 170.348 177.167 168.506 177.167 166.243H176.167C176.167 169.052 178.417 171.335 181.215 171.398L181.237 170.399ZM193 170.398H181.226V171.398H193V170.398ZM193.5 170.9V170.898H192.5V170.9H193.5ZM207 170.4H193V171.4H207V170.4ZM206.5 170.898V170.9H207.5V170.898H206.5ZM218.774 170.398H207V171.398H218.774V170.398ZM183.167 175.557C183.167 177.119 184.437 178.384 186 178.384V177.384C184.987 177.384 184.167 176.565 184.167 175.556L183.167 175.557ZM188.333 175.057H183.667V176.057H188.333V175.057ZM186 178.384C187.563 178.384 188.833 177.119 188.833 175.557L187.833 175.556C187.833 176.565 187.013 177.384 186 177.384V178.384ZM188.333 145.786C189.347 145.786 190.167 146.606 190.167 147.615H191.167C191.167 146.052 189.897 144.786 188.333 144.786V145.786ZM186.5 147.615C186.5 146.606 187.32 145.786 188.333 145.786V144.786C186.77 144.786 185.5 146.052 185.5 147.615H186.5ZM200 161.086C192.543 161.086 186.5 155.053 186.5 147.615H185.5C185.5 155.608 191.993 162.086 200 162.086V161.086ZM213.5 147.615C213.5 155.053 207.457 161.086 200 161.086V162.086C208.007 162.086 214.5 155.608 214.5 147.615H213.5ZM211.667 145.786C212.68 145.786 213.5 146.606 213.5 147.615H214.5C214.5 146.052 213.23 144.786 211.667 144.786V145.786ZM209.833 147.615C209.833 146.606 210.653 145.786 211.667 145.786V144.786C210.103 144.786 208.833 146.052 208.833 147.615H209.833ZM200 157.429C205.43 157.429 209.833 153.036 209.833 147.615H208.833C208.833 152.481 204.879 156.429 200 156.429V157.429ZM190.167 147.615C190.167 153.036 194.57 157.429 200 157.429V156.429C195.121 156.429 191.167 152.481 191.167 147.615H190.167Z" fill="white" mask="url(#path-18-outside-1_1712_8145)"/>
</g>
<path d="M123.698 67.3935C123.527 70.5782 120.385 72.4177 117.196 72.4177H54.6057C50.1507 72.4177 46.2554 68.6494 48.355 64.7202C50.7633 60.2132 55.4053 57.2973 60.5982 57.2973C62.9128 57.2973 65.0967 57.8405 67.022 58.8028C68.7278 50.0906 76.6131 43.5039 86.0828 43.5039C93.8501 43.5039 100.551 47.9351 103.651 54.3358C105.473 53.4974 107.511 53.0284 109.662 53.0284C117.424 53.0284 123.717 59.1379 123.717 66.6744C123.717 66.9156 123.71 67.1554 123.698 67.3935Z" fill="#DDDDDD"/>
</g>
<defs>
<clipPath id="clip0_1712_8145">
<rect width="400" height="200" fill="white"/>
</clipPath>
<clipPath id="clip1_1712_8145">
<rect x="138" y="104" width="124" height="96" rx="6" fill="white"/>
</clipPath>
</defs>
</svg>
