<svg width="115" height="114" viewBox="0 0 115 114" fill="none" xmlns="http://www.w3.org/2000/svg">
<circle cx="57.5" cy="57" r="55.5" fill="white" stroke="#8D7036" stroke-width="3"/>
<path d="M49.6584 57.0996C49.5758 53.2617 54.5092 53.721 54.5092 53.721C54.5092 53.721 57.8914 54.3826 59.8761 54.8212C53.3347 34.6835 80.5282 42.2555 68.9894 50.9261C69.2836 40.7817 56.6415 47.9857 65.02 53.7902C77.369 59.3036 82.4392 41.2224 70.3116 38.5781C77.5878 31.7426 76.4866 24.907 76.4866 24.907L24.596 56.3647H24.449L76.9273 88.9995C76.9273 88.9995 78.029 82.1644 70.7528 75.3284C82.8799 72.6831 77.8082 54.6019 65.4612 60.1143C57.0807 65.9234 69.7238 73.1249 69.4296 62.9809C80.2331 71.3615 54.5082 80.9873 59.9473 59.8227C57.7438 60.4085 54.4359 60.7026 54.4359 60.7026C54.4359 60.7026 49.7306 60.5581 49.6573 57.1006L49.6584 57.0996Z" fill="#8D7036"/>
</svg>
