<svg width="115" height="114" viewBox="0 0 115 114" fill="none" xmlns="http://www.w3.org/2000/svg">
<circle cx="57.5" cy="57" r="55.5" fill="white" stroke="#A31F34" stroke-width="3"/>
<path d="M24.9442 63.8001C24.9442 63.8001 23.0787 63.8134 21.8756 63.6937C26.2013 95.2093 59.1848 88.3477 71.432 93.7466C61.199 79.2521 39.976 89.478 24.9442 63.8001Z" fill="#001E62"/>
<path d="M80.5217 59.2116C80.5217 59.2116 83.1172 60.7275 84.4554 60.927C86.9021 61.2861 88.2674 60.4217 88.2674 60.4217C88.2674 60.4217 88.8487 64.0786 87.0373 64.8897C85.2259 65.7009 81.1841 62.5094 80.5217 59.2116Z" fill="#A31F34"/>
<path fill-rule="evenodd" clip-rule="evenodd" d="M85.4681 42.3649C89.5234 45.1176 93.0921 48.8143 93.8086 49.9314C93.0516 51.3143 89.9425 50.7824 89.9425 50.7824C91.9161 51.2744 92.8623 53.7744 92.8623 53.7744C92.8623 53.7744 92.9569 55.1308 89.8208 57.5642C84.6029 61.6201 77.8845 55.5696 77.8845 55.5696C71.2608 56.168 67.0703 50.543 67.0703 50.543C68.8276 55.8355 73.9509 58.0164 77.4655 58.0696C79.5878 61.1546 80.2096 66.1413 80.2096 66.1413C76.4246 63.3754 71.1121 63.0296 71.1121 63.0296C95.1603 72.6173 83.3458 89.3192 76.4111 93.1755C76.4652 83.7209 69.7063 79.6252 69.7063 79.6252C71.4906 82.0188 73.694 86.6331 72.6261 89.9974C68.7465 84.3344 61.8603 82.4221 55.2271 80.58C45.4274 77.8585 36.1796 75.2903 37.9934 61.0084C35.4388 63.653 35.2594 67.5656 35.1911 69.0541C35.1766 69.3693 35.1671 69.5758 35.1412 69.6386C32.4241 66.753 30.2477 62.7902 29.9503 58.8275C29.8557 57.5243 29.8151 51.4473 34.1949 45.9154C29.8016 48.1761 25.922 53.7611 25.922 53.7611C24.016 36.5937 37.3581 28.8146 49.2538 29.0672C45.6117 27.9192 40.8622 28.3246 38.4176 28.5333C37.3508 28.6243 36.7229 28.6779 36.8174 28.5486C44.1711 18.5487 60.2573 20.3306 65.8131 23.4822C63.9484 21.0294 59.3958 20.006 57.7833 19.6435C57.3501 19.5461 57.1291 19.4965 57.2293 19.4796C76.3435 16.1019 78.8713 31.6071 78.8713 31.6071C79.6419 28.0699 77.7764 24.8917 76.6815 23.8678C86.4549 27.6045 79.8717 36.3145 79.8717 36.3145C81.9882 37.1687 83.6515 39.6689 84.7567 41.3301C85.028 41.7379 85.2656 42.095 85.4681 42.3649ZM35.668 40.6474C44.0491 27.6289 60.5003 34.557 60.5003 34.557C60.5003 34.557 44.0626 32.0704 35.668 40.6474ZM36.372 56.0865C36.372 56.0865 37.6426 43.9457 50.4575 42.0176C50.4575 42.0176 40.1164 47.8021 36.372 56.0865ZM48.1768 51.5111C38.3763 66.8567 58.6666 73.7981 58.6666 73.7981C34.5914 68.5588 45.4867 52.176 48.1768 51.5111ZM78.9979 83.9193C81.6579 72.7857 57.2138 65.8092 56.2919 65.5558C87.4053 70.3169 78.9979 83.9193 78.9979 83.9193ZM56.288 65.5552L56.2919 65.5558C56.258 65.5465 56.2559 65.5462 56.288 65.5552ZM59.2067 57.9559C61.9019 58.2324 65.1044 58.561 68.6236 60.4474C66.3126 58.3288 63.0868 57.3545 60.2114 56.4861C54.1891 54.6672 49.7036 53.3125 58.3771 42.8811C52.9024 46.8306 49.996 53.5326 53.389 56.3118C54.8462 57.5085 56.8291 57.7119 59.2067 57.9559ZM65.269 48.1328C61.7814 50.5264 61.43 52.162 61.43 52.162C61.43 52.162 60.3756 49.795 60.4432 47.8004C60.5107 45.4467 63.2278 44.4759 63.2278 44.4759C60.9433 46.1647 62.2275 48.7844 62.2275 48.7844C66.9829 46.251 67.3375 42.5939 67.3738 42.2196C67.376 42.1971 67.377 42.1864 67.3778 42.1887L67.405 42.2696C67.7857 43.3991 68.6069 45.8356 65.269 48.1328ZM67.0026 40.1955C67.0026 40.1955 65.6103 36.4322 67.0026 35.0626C69.0303 33.0679 74.0995 36.7115 74.0995 36.7115C74.0995 36.7115 69.7467 30.927 66.3132 33.2541C63.5285 35.1424 65.6914 38.653 67.0026 40.1955ZM50.9655 24.7839C67.7006 21.4328 74.081 32.2439 74.081 32.2439C68.2548 24.9833 50.9655 24.7839 50.9655 24.7839ZM81.6141 44.1344C81.8122 43.8702 81.9802 43.6461 81.921 43.4265C82.7511 42.9871 83.0462 42.8311 83.027 42.7482C82.9966 42.6179 82.1886 42.6687 81.4614 42.0834C80.2718 41.126 78.3658 40.9797 78.3658 40.9797C78.4519 41.0214 78.5543 41.0693 78.6674 41.1223C79.7092 41.6099 81.6595 42.5227 80.1231 42.8946C78.4199 43.3068 74.6889 41.6978 74.6889 41.6978C74.6889 41.6978 78.3388 44.9158 80.3664 45.8467C81.0288 46.1525 81.3938 46.3254 81.5966 46.4318C80.7182 45.3297 81.2244 44.6543 81.6141 44.1344Z" fill="#A31F34"/>
</svg>
