<svg width="115" height="114" viewBox="0 0 115 114" fill="none" xmlns="http://www.w3.org/2000/svg">
<circle cx="57.5" cy="57" r="55.563" fill="white" stroke="#FFBF00" stroke-width="2.87395"/>
<path d="M24.45 78.4776H73.4979L90.5508 35.6541H62.8605L24.45 78.4776Z" fill="#FFBF00" stroke="#FFBF00" stroke-width="5.1486"/>
<path d="M71.7599 63.2505C71.8427 62.9239 71.8841 62.5157 71.9255 62.2299C71.9669 61.985 71.4288 60.5562 71.3046 60.1888C71.1804 59.8214 70.9735 58.8008 71.0563 58.5559C71.139 58.1884 71.2632 57.9843 71.3874 57.6986C71.5116 57.4128 71.6357 57.2495 71.8841 56.9229C72.1738 56.5963 72.7533 55.5758 72.9602 54.6777C73.043 54.3919 73.8294 53.2488 73.8708 53.208C73.9536 53.1672 73.9122 53.9837 73.8708 54.1878C73.8294 54.3919 74.8228 53.9837 74.9056 53.9428C74.9884 53.8612 74.5331 55.1675 74.4089 55.29C74.3261 55.4125 74.8642 55.29 74.9884 55.2084C75.1125 55.1675 75.4851 55.3308 75.4437 55.4125C75.4023 55.4941 73.995 57.0046 73.7053 57.1679C73.4155 57.3312 73.2086 57.6986 73.0844 57.9027C72.9602 58.1068 72.8774 59.2499 73.0844 58.9641C73.2913 58.6783 74.1606 58.0252 74.2847 57.9843C74.3675 57.9435 74.7814 58.2701 74.7814 58.2701C74.7814 58.2701 72.8361 60.4745 72.7947 60.7195C72.7533 60.9644 73.3741 60.597 73.3741 60.597C73.3741 60.597 73.1258 63.0056 73.043 63.4955C72.9602 63.9853 72.6705 64.4752 72.5463 64.6793C72.3808 64.8835 71.8427 65.0876 71.5116 65.1284L70.601 65.2917C70.6837 65.7816 70.7665 66.4347 70.7251 66.6389C70.6837 66.9246 70.4768 67.7003 69.9387 68.3126C69.4006 68.925 69.1523 69.2515 68.9867 69.5373C68.8212 69.8231 68.7384 70.8028 68.9039 71.0478C69.0695 71.2927 69.649 72.5582 69.649 72.844C69.649 73.1297 69.5248 73.3747 69.4006 73.5788C69.2765 73.7829 68.9039 74.7627 68.8212 75.0893C68.7384 75.4567 68.6556 76.5181 68.6556 76.5181C68.6556 76.6814 68.2417 77.6611 68.2003 77.7428C68.2003 77.8244 67.5794 78.2326 67.2069 78.1918C66.8344 78.151 66.3791 78.2326 66.3377 78.1102C66.2549 77.9877 66.1722 77.7428 66.2136 77.5795C66.2549 77.4162 66.8758 76.8038 67.0414 76.6405C67.2069 76.4772 67.745 75.2526 67.9106 74.7627C68.0347 74.2728 68.2003 73.1297 68.1175 72.9665C68.0347 72.8032 66.8758 71.7418 66.7102 71.456C66.5447 71.1702 66.2136 70.3129 66.0066 69.7414C65.7996 69.2107 65.1788 69.8231 65.0132 70.0272C64.8477 70.2313 64.4751 71.0478 64.5579 71.3335C64.6407 71.6193 65.0546 72.1092 65.0546 72.1908C65.0546 72.2725 64.7235 72.7623 64.5579 72.8032C64.3924 72.8032 63.8957 72.8848 63.6473 72.9665C63.399 73.0073 61.5778 73.7013 61.495 73.7013H60.9569C60.7914 73.7013 60.6258 74.5586 60.5844 74.7219C60.543 74.8443 60.2119 75.1301 60.0877 75.1709C59.6324 75.3342 58.9702 75.0076 58.7632 74.8851C58.6391 74.8035 58.3493 74.4361 58.5149 74.232C58.6805 74.0279 59.2599 73.2114 59.5497 72.8848C59.7152 72.7215 60.7914 72.8032 61.5364 72.5582C61.8261 72.4766 63.1506 71.9867 63.2334 71.7418C63.3162 71.4968 63.4404 71.4152 63.3576 71.2519C63.2748 71.0886 63.0679 70.8436 62.8609 70.5987C62.654 70.3946 61.5364 69.4148 62.0745 68.7208C62.447 68.7208 63.7301 68.8841 63.1506 68.7208C62.5712 68.5575 62.0331 68.68 61.4536 68.68C60.8742 68.68 60.5844 68.6392 60.1705 68.5167C59.7152 68.3942 58.5149 67.4553 58.101 67.0063C57.6871 66.5572 55.9487 65.2917 55.6589 65.1692C55.3692 65.0467 55.1623 64.9651 55.0381 64.8835C54.9139 64.761 54.9139 64.5569 54.707 64.1486C54.5 63.7404 53.3825 61.985 53.1755 61.8217C52.9685 61.6584 52.2649 63.0464 52.0993 63.4138C51.9338 63.7812 52.0166 64.1895 52.0993 64.3936C52.1821 64.5977 52.2235 64.7202 52.2235 64.9243C52.2235 65.1284 52.1407 65.4958 51.9752 65.6999C51.8096 65.904 52.058 65.9449 52.1821 66.1898C52.3063 66.3939 52.058 67.0879 51.8924 67.3737C51.7268 67.6594 51.5199 67.8636 51.3957 67.8227C51.2715 67.7819 51.0646 67.3737 50.899 67.0879C50.7335 66.8021 50.7748 66.5164 50.8576 66.2714C50.9404 66.0265 50.9818 65.904 50.9818 65.6591C50.9818 65.455 50.6921 65.2509 50.6507 64.9651C50.6093 64.6793 50.7335 64.4344 50.9404 64.1078C51.1474 63.7812 51.7268 62.2708 51.8096 61.9442C51.8924 61.6584 51.9338 61.0053 52.058 60.8011C52.3063 60.3521 52.8444 60.3521 53.0927 60.5154C53.3411 60.6787 54.8725 61.4543 54.5414 61.2094C54.5414 61.1685 54.5 61.0053 54.4172 60.4337C54.3344 60.5154 53.548 59.3315 53.4238 59.1682C53.2169 58.9641 53.0927 58.76 52.803 58.9641C52.5133 59.1682 51.0646 60.4337 51.2715 60.7603C51.4785 61.0461 51.0646 61.4543 51.0646 61.4543C51.0646 61.4543 50.9818 61.8217 51.2301 61.985C51.9752 62.3932 51.1888 63.2913 51.1474 63.4138C51.1474 63.4138 50.4851 63.4138 50.3609 63.373C50.3195 63.373 49.6573 62.5157 49.6987 62.3116C49.7401 62.1075 49.8229 61.7809 49.8643 61.6176C49.9056 61.4135 49.7815 61.1685 49.7401 61.0461C49.6987 61.0052 49.7401 60.842 49.8643 60.6378C50.154 60.2296 50.6093 59.5764 50.9818 59.1682C51.3543 58.76 52.2649 57.3312 52.4305 57.2495C52.596 57.1679 52.7202 57.0046 52.9272 57.0862C53.1341 57.2087 53.9205 57.6986 53.9205 57.6986C53.755 57.3312 53.4652 56.7596 53.4238 56.6372C53.3411 56.4331 53.2169 55.9432 53.3411 55.9432C53.4652 55.9023 53.6722 55.9023 53.9619 56.2289C54.2517 56.5555 53.2583 55.0451 53.0927 54.8001C52.9272 54.5552 52.8858 54.1061 52.8858 54.1061C52.8858 54.1061 53.3825 54.3102 53.5894 54.5144C53.755 54.7185 53.2997 53.902 53.1755 53.6571C53.0513 53.453 52.7616 53.0039 52.9272 52.9223C53.0513 52.7998 53.3825 52.7181 53.1341 52.3916C52.8858 52.065 52.5546 51.0852 52.4719 50.8403C52.3891 50.5953 53.3411 50.9627 53.3411 50.9627C53.0513 50.6362 51.644 48.3092 51.7682 47.9826C51.9338 47.6152 53.0927 48.595 52.8444 48.2684C52.596 47.9418 50.5679 45.2475 50.899 44.8801C51.1888 44.5943 51.5613 44.9617 51.6027 44.9617C51.6027 44.9617 51.5613 44.9209 51.4785 44.7984C51.1474 44.3494 49.8229 42.8389 50.0712 42.5123C50.3609 42.1857 50.3609 42.1857 50.7748 42.5123C51.2301 42.8389 51.106 42.5532 50.6507 42.1857C49.6159 41.3285 49.4503 40.6345 49.4503 40.6345C49.4503 40.6345 50.7335 40.7569 51.7268 41.6959C50.899 40.7569 48.5398 38.0626 48.7053 37.8585C48.995 37.5319 51.3543 39.1648 52.3063 40.0629C53.2583 40.9611 55.0381 43.3696 55.8245 44.676C56.5281 45.8598 57.894 49.6564 57.8526 49.6564C58.0596 49.6972 58.1838 49.7789 58.3907 49.8605C58.7632 49.983 59.4669 50.4729 59.8394 50.8403C60.2119 51.2077 60.543 51.7384 60.8328 52.2691C61.1225 52.7998 61.3708 53.7387 61.495 54.3919C61.6192 55.0042 61.5778 56.0248 61.5778 56.5147C61.5364 56.9638 61.4122 57.6986 61.2881 57.9435C61.1639 58.2293 61.0397 58.4334 60.9983 58.515C60.9983 58.2701 60.9156 58.9233 61.0811 59.5356C61.1639 59.903 61.3295 60.3929 61.4536 60.6378C61.702 60.4337 62.1987 59.9847 62.447 59.6581C62.8609 59.1274 63.1093 57.9843 63.0679 56.8821C63.0265 55.8615 62.8195 53.9837 62.654 53.0447C62.4884 52.1058 62.3642 50.7586 62.4884 49.8197C62.5712 48.8808 63.1506 47.1254 63.5646 46.3089C64.0198 45.4924 65.3857 43.7779 66.2136 43.0022C67.0414 42.2266 67.3311 41.9408 68.3659 41.0835C69.4006 40.2262 71.7599 38.8791 72.5877 38.43C73.4155 37.981 75.0298 37.3278 75.692 37.1237C76.3956 36.9196 79.2516 36.1031 79.6655 36.1031C80.2864 36.1031 79.6655 36.7563 79.3758 37.0012C79.086 37.2053 78.0099 38.1442 77.5546 38.4708C77.2235 38.7158 77.6374 38.9199 78.0099 38.8382C78.341 38.7566 78.6307 39.124 78.4652 39.4506C78.2996 39.7772 75.899 41.9816 76.2715 41.9C76.644 41.8183 77.2235 41.7775 77.3476 42.1449C77.4304 42.5123 74.4089 44.6351 74.74 44.5127C75.0711 44.3902 75.2367 44.9209 75.1539 45.125C75.0711 45.3291 74.3261 46.064 73.8294 46.3089C73.3327 46.5538 72.5463 46.9621 73.0016 46.9621C73.4569 46.9621 72.7119 47.8602 72.3808 48.1459C72.091 48.4317 71.2218 49.289 71.3046 49.4523C71.4702 49.9013 71.0149 50.4729 70.4768 50.8811C69.9387 51.3301 69.649 51.4118 69.9387 51.6159C70.2698 51.8608 69.8559 52.3507 69.5662 52.6773C69.2765 53.0039 68.5728 53.453 69.0281 53.453C69.649 53.453 69.3179 54.2286 69.0695 54.4735C68.7798 54.7185 68.1589 54.9226 68.3659 55.29C68.6142 55.7391 68.2831 55.984 67.9933 56.1881C67.7036 56.3922 67.1655 56.1881 67.6208 56.4739C67.8692 56.6372 66.8758 57.6169 66.8758 57.7802C66.8758 58.1476 66.3791 58.3926 66.3791 58.7191C66.3791 59.5356 65.0546 59.6173 65.096 59.7806C65.2616 60.1888 64.8477 60.4745 64.5579 60.6378C64.2682 60.8011 63.6887 60.842 64.0198 61.1685C64.351 61.4951 63.0679 62.0667 63.2334 62.0258C63.2748 62.0667 64.6407 62.5157 65.0546 62.5157C65.4685 62.5157 67.8692 62.5565 68.0761 62.5974C68.2417 62.6382 69.5248 63.4546 69.8145 63.8221C70.1043 64.1895 70.3526 64.6385 70.4768 64.9651C70.5182 64.8018 71.4702 64.4344 71.7599 63.2505Z" fill="white"/>
<path d="M62.3222 69.5371C62.3635 69.6188 62.4049 69.7004 62.4049 69.7412C62.4877 69.9862 62.7775 70.2311 62.9844 70.4352C63.1914 70.6393 63.3983 70.9251 63.4811 71.0884C63.5639 71.2517 63.4811 71.4966 63.3983 71.7416C63.3155 71.9865 62.943 72.1498 62.6533 72.2723C62.3635 72.3947 61.9496 72.4764 61.6599 72.5989C61.3702 72.7213 60.9563 72.7213 60.7079 72.803C60.4182 72.8846 60.3768 72.8438 60.1285 72.8438C59.8387 72.8438 59.9215 72.803 59.7145 72.8846C59.5076 72.9663 59.549 73.0479 59.5076 73.252C59.4248 73.4561 59.3006 73.5786 59.1351 73.7827C58.9695 73.9868 58.9695 73.946 58.804 74.1501C58.6384 74.3542 58.7626 74.2726 58.7626 74.4359C58.7626 74.5992 58.8453 74.5584 59.0523 74.7217C59.2593 74.885 59.549 74.9258 59.7973 74.9666C60.0457 75.0074 60.1698 74.9666 60.294 74.9258C60.4182 74.885 60.501 74.6808 60.5838 74.5584C60.6251 74.4359 60.5838 74.3542 60.6251 74.1093C60.6665 73.8644 60.7079 73.7827 60.7493 73.6194C60.7079 73.4561 60.7493 73.4561 60.9149 73.4561C61.0804 73.4561 61.4116 73.497 61.4943 73.497C61.5771 73.497 61.5771 73.4561 61.7013 73.3745C61.7841 73.3337 62.2808 73.0887 62.6119 72.9663C62.943 72.8438 63.4811 72.7621 63.7708 72.7213C64.0192 72.6805 64.5159 72.6397 64.64 72.5989C64.8056 72.5989 64.8056 72.5172 64.847 72.4356C64.8884 72.3539 64.9298 72.2723 64.9298 72.2314C64.9298 72.1498 64.7642 72.0273 64.5986 71.8232C64.3917 71.6191 64.4745 71.5783 64.3917 71.2925C64.3089 71.0067 64.3917 70.8435 64.3917 70.6393C64.3917 70.4352 64.6814 70.1086 64.847 69.9045C65.0125 69.7412 65.3437 69.6188 65.592 69.5779H66.0887C66.0887 69.6188 66.1301 69.6596 66.1301 69.7004C66.337 70.2311 66.751 71.0884 66.9165 71.3742C67.0821 71.6599 67.4132 71.9865 67.7857 72.2314C68.1582 72.5172 68.2824 72.803 68.3238 72.9663C68.4066 73.1296 68.3652 73.4153 68.3652 73.7011C68.3652 73.9868 68.241 74.1501 68.1168 74.6808C67.9927 75.1707 67.7029 75.7422 67.5374 76.1096C67.4132 76.4771 67.2476 76.6403 67.0821 76.8036C66.9165 76.9669 66.751 77.0486 66.5854 77.2119C66.3784 77.416 66.4612 77.416 66.4198 77.5793C66.3784 77.7426 66.5026 77.8242 66.544 77.9467C66.6268 78.0692 66.6268 77.9467 66.9993 77.9875C67.3718 78.0283 67.7857 77.9467 67.9099 77.9059C68.0341 77.865 68.1168 77.7834 68.1168 77.7018C68.1168 77.6201 68.1168 77.4976 68.1168 77.3343C68.1168 77.1302 68.1996 77.0894 68.241 76.9261C68.2824 76.7628 68.4066 76.722 68.4894 76.5995C68.5721 76.4771 68.5721 76.3954 68.5721 76.2321C68.5721 76.0688 68.5721 75.7831 68.5721 75.6198C68.5721 75.4157 68.7377 75.2115 68.8205 74.8441C68.9033 74.4767 68.986 74.2726 69.0274 74.0277C69.0688 73.7827 69.3172 73.497 69.4413 73.252C69.5655 73.0479 69.5655 72.8438 69.5655 72.5989C69.5655 72.3131 69.5241 72.1906 69.4 72.0273C69.2758 71.9049 69.2758 71.7824 69.0688 71.6191C68.8619 71.4558 68.9033 71.2925 68.7377 71.0067C68.5721 70.7618 68.6549 70.476 68.6963 70.1495C68.6963 69.9045 68.7791 69.7412 68.9033 69.5371H69.3586C69.193 69.8229 69.1516 70.1086 69.1102 70.3128C69.0688 70.5985 69.1102 70.8026 69.193 71.0884C69.2758 71.3333 69.6069 71.7007 69.7725 71.9049C69.938 72.109 69.9794 72.3131 69.9794 72.4764C69.9794 72.6397 69.9794 73.0887 69.9794 73.2928C69.938 73.497 69.8966 73.7419 69.8966 73.7419C69.8966 73.7419 69.6069 73.9052 69.4413 74.1093C69.2758 74.3134 69.3586 74.3542 69.3172 74.5584C69.2758 74.7625 69.2344 75.0891 69.1102 75.2932C69.0274 75.4973 68.986 75.7014 68.9033 75.9055C68.8619 76.0688 68.9447 76.3954 68.9447 76.5587C68.9447 76.7628 68.8619 76.8445 68.7377 77.0078C68.5721 77.2119 68.5308 77.2935 68.4894 77.416C68.4894 77.5385 68.4894 77.5793 68.5721 77.6609C68.6549 77.7426 68.6549 77.7426 68.5308 77.865C68.448 77.9875 68.3238 78.1508 68.1168 78.3141C67.9099 78.4774 67.7443 78.4366 67.3304 78.5182C66.9579 78.5999 66.9993 78.5182 66.6682 78.5182C66.337 78.5182 66.4198 78.4774 66.2543 78.4366C66.0887 78.3957 66.1301 78.2733 66.0887 78.0692C66.0473 77.865 66.1301 77.6609 66.1715 77.4976C66.2129 77.3343 66.5026 77.0894 66.6682 76.8853C66.8751 76.6812 66.9993 76.5179 67.1235 76.4362C67.2476 76.3546 67.2063 76.2729 67.289 76.0688C67.3718 75.8647 67.5788 75.4973 67.7029 75.2524C67.7857 75.0074 67.9513 74.1093 67.9927 73.7011C68.0341 73.2928 67.7857 72.8846 67.6615 72.7213C67.5374 72.558 67.0821 72.3131 66.8751 72.1498C66.6682 71.9865 66.7096 71.864 66.5026 71.4966C66.2543 71.1292 66.1715 70.6802 66.0887 70.476C66.0473 70.3944 66.0059 70.3128 65.9645 70.1903C65.9231 70.1903 65.8818 70.1903 65.8404 70.1903C65.6748 70.1903 65.6748 70.2311 65.3023 70.3944C64.9298 70.5169 64.9298 70.721 64.847 70.8843C64.7642 71.0476 64.7642 71.2517 64.7642 71.4558C64.7642 71.6599 65.1367 72.0681 65.2609 72.2314C65.3437 72.3947 65.3023 72.4356 65.2195 72.6397C65.1367 72.8438 65.0125 72.8438 64.8884 73.0071C64.7228 73.1704 64.6814 73.1296 64.2261 73.2112C63.7708 73.2928 63.2741 73.3337 62.8602 73.4561C62.4463 73.5786 61.991 73.7419 61.8255 73.8644C61.6599 73.9868 61.6599 73.9868 61.5771 74.0277C61.4943 74.0685 61.3288 74.0277 61.1218 74.0277C60.9149 74.0277 60.9563 74.1501 60.9149 74.2726C60.8735 74.3951 60.8735 74.5584 60.8321 74.8033C60.7907 75.0074 60.7079 75.1299 60.5424 75.2524C60.3768 75.3748 60.1285 75.4565 59.9215 75.5381C59.7145 75.5789 59.4248 75.4973 59.3006 75.4565C59.1765 75.4565 58.9281 75.2524 58.6798 75.0482C58.4314 74.8033 58.5142 74.8033 58.39 74.5584C58.2659 74.3134 58.4314 74.1501 58.5556 74.0277C58.6798 73.9052 58.9281 73.5786 59.0523 73.4561C59.1765 73.3337 59.2593 73.1296 59.4248 72.8846C59.549 72.6805 59.9629 72.6805 60.2112 72.6805C60.4182 72.6805 60.6251 72.6397 60.9149 72.5989C61.2046 72.558 61.2874 72.5172 61.453 72.4764C61.5771 72.4356 61.7427 72.3539 62.2808 72.1906C62.8188 72.0273 63.0672 71.864 63.1914 71.7416C63.3155 71.5783 63.15 71.3333 63.0258 71.0884C62.9016 70.8843 62.6119 70.6802 62.4049 70.4352C62.198 70.2311 62.1566 70.0678 62.0324 69.8229C61.991 69.782 61.991 69.7004 61.9496 69.6596L62.3222 69.5371Z" fill="#F20000"/>
<path fill-rule="evenodd" clip-rule="evenodd" d="M64.4337 60.7599C64.5579 60.7191 64.682 60.6783 64.8476 60.5966V60.5558H63.7714C63.5749 60.6666 63.3785 60.7585 63.1949 60.8444L63.1948 60.8445C63.1077 60.8852 63.0235 60.9246 62.9436 60.964C62.4055 61.209 62.3228 61.3315 62.3228 61.3315C62.5711 61.3315 63.0264 61.209 63.6059 61.0049C64.1853 60.8008 63.8542 61.1273 63.6887 61.2906C63.5962 61.3818 63.3102 61.4857 62.9891 61.6024C62.7351 61.6946 62.4593 61.7948 62.24 61.903C61.7194 62.1399 61.5863 62.3769 61.3908 62.7247L61.3708 62.7603C61.2052 63.1277 61.288 63.4543 61.288 63.4543L61.4122 63.1685C61.5363 62.8827 62.3228 62.2704 62.7367 62.0663C62.9436 61.9438 63.1092 61.903 63.2747 61.8622C63.2864 61.8736 63.298 61.8883 63.3114 61.9053C63.3459 61.9488 63.3924 62.0076 63.4817 62.0663C63.5668 62.0998 63.6099 62.1403 63.6513 62.1791C63.7106 62.2348 63.7664 62.2872 63.937 62.3112C64.1853 62.3929 64.682 62.3929 65.0959 62.3929H66.9171C67.3724 62.352 67.9105 62.3929 68.0761 62.4337C68.283 62.4745 68.49 62.597 68.6555 62.7194C68.8625 62.8419 69.3592 63.291 69.6489 63.6584C69.9386 63.985 70.2284 64.4748 70.3112 64.8014C70.3939 65.128 70.6423 66.2302 70.6009 66.516C70.5595 66.8018 70.4353 67.5366 69.8972 68.1489C69.3592 68.7613 69.1108 69.047 68.9453 69.3328C68.9039 69.4145 68.8625 69.4961 68.8211 69.5369H69.2764C69.3178 69.4145 69.4419 69.2512 69.5661 69.1287C69.6613 69.0254 69.7499 68.933 69.8324 68.8469C70.1089 68.5584 70.3173 68.3408 70.4767 68.0265C70.5141 67.9453 70.5529 67.8642 70.5915 67.7833L70.5916 67.783C70.7667 67.4163 70.9395 67.0545 70.9734 66.7201C71.0148 66.3119 70.9734 65.5771 70.932 65.2913C71.0148 65.2913 71.0562 65.2913 71.139 65.3321C71.3045 65.373 71.6357 65.4138 71.884 65.4138C72.084 65.4467 72.2303 65.3207 72.3878 65.1851C72.4258 65.1523 72.4646 65.119 72.5049 65.0872C72.6664 64.9916 72.7776 64.7964 72.9564 64.4823C73.0066 64.3941 73.0622 64.2965 73.1257 64.1891C73.4155 63.6992 73.581 62.7603 73.581 62.4337C73.581 62.1071 73.788 60.964 73.8707 60.5966H73.4568C73.4483 60.622 73.4361 60.6561 73.4219 60.6961L73.4219 60.6961C73.3676 60.8492 73.2827 61.088 73.2499 61.2498C73.2085 61.4948 73.1671 61.7805 73.1257 62.1071C73.1119 62.2159 73.0981 62.3519 73.0828 62.5031L73.0828 62.5032L73.0828 62.5032C73.0521 62.8056 73.0153 63.1685 72.9602 63.4951C72.8774 64.0258 72.5462 64.434 72.3807 64.6381C72.2565 64.8423 71.8426 65.0055 71.5115 65.0464C71.2348 65.107 71.118 65.0325 71.0253 64.9735C70.9932 64.953 70.964 64.9344 70.932 64.9239C70.9113 64.9239 70.901 64.9137 70.8906 64.9035C70.8803 64.8933 70.8699 64.8831 70.8492 64.8831L70.8078 64.679L70.932 64.5973C71.0148 64.5157 71.2217 64.3116 71.3459 64.1483C71.5115 63.985 71.8012 63.5359 71.9254 63.2501C72.0207 63.0309 72.0672 62.6914 72.1024 62.4346C72.1131 62.3568 72.1227 62.2866 72.1323 62.2296C72.1323 61.9846 72.0496 61.5764 71.9254 61.1682L71.677 60.5558H71.2217C71.2896 60.8237 71.3947 61.1404 71.4827 61.4058C71.5556 61.6257 71.6169 61.8105 71.6357 61.903C71.7184 62.1887 71.5943 62.8827 71.4287 63.4543C71.2631 64.0258 70.9734 64.3932 70.7665 64.4748L70.7251 64.5157C70.6423 64.2707 70.5181 64.0258 70.3939 63.8625C70.3215 63.7809 70.2491 63.689 70.1721 63.5914C69.9412 63.2986 69.6696 62.9542 69.235 62.6786L69.1551 62.624C68.6628 62.2869 68.3345 62.0622 67.7449 61.9846C67.2962 61.9256 67.1285 61.9306 66.8825 61.9379C66.7882 61.9407 66.6823 61.9438 66.5446 61.9438H64.6406C64.588 61.9496 64.5387 61.9553 64.4923 61.9608C64.2105 61.9937 64.0378 62.0139 63.8956 61.9438C63.8542 61.9234 63.8232 61.903 63.7921 61.8826C63.7611 61.8622 63.73 61.8417 63.6887 61.8213H63.73C63.9052 61.772 63.9745 61.6778 64.0568 61.566C64.1106 61.4928 64.1699 61.4122 64.2681 61.3315C64.3923 61.209 64.3612 61.0865 64.3354 60.9845C64.3095 60.8824 64.2888 60.8008 64.4337 60.7599ZM50.0296 60.6378L50.071 60.597L49.6157 60.5561C49.6078 60.5797 49.5983 60.6048 49.5884 60.6308L49.5884 60.6308C49.5471 60.74 49.4995 60.8655 49.5329 60.9644C49.6157 61.2093 49.7813 61.4542 49.7813 61.4542C49.7813 61.4542 49.6571 61.6175 49.5743 61.7808C49.4916 61.9441 49.4502 62.1891 49.5743 62.3932C49.6678 62.4853 49.7085 62.6555 49.7485 62.823C49.7795 62.9523 49.81 63.0799 49.8641 63.1688C49.8919 63.2055 49.9156 63.2421 49.9384 63.2774C50.0172 63.3992 50.0854 63.5046 50.278 63.5362C50.4849 63.5771 50.7747 63.6179 50.8988 63.6179L50.8161 63.7812C50.7333 63.9853 50.5677 64.516 50.4849 64.8426C50.4241 65.0824 50.5419 65.2342 50.6416 65.3626C50.6776 65.409 50.7113 65.4524 50.7333 65.4957L50.9402 65.7815C50.9402 65.7815 50.7747 66.1081 50.6505 66.3122C50.5558 66.4679 50.5815 66.576 50.6173 66.7273C50.6285 66.7743 50.6407 66.8256 50.6505 66.8837C50.6919 67.1695 50.9816 67.6185 51.1886 67.8635C51.2538 67.9406 51.2943 67.9976 51.3232 68.038C51.3859 68.126 51.3933 68.1364 51.4783 68.1084C51.6439 68.0676 51.768 67.9451 51.975 67.7002C52.1557 67.4863 52.3996 66.8676 52.5136 66.5783C52.5302 66.5364 52.544 66.5014 52.5545 66.4755C52.6127 66.332 52.4868 66.1684 52.3781 66.0271L52.3781 66.0271C52.3322 65.9674 52.2893 65.9117 52.2647 65.8632C52.182 65.6999 52.2233 65.4549 52.2233 65.4549C52.2233 65.4549 52.4303 65.0875 52.4717 64.8834C52.507 64.7442 52.3918 64.4862 52.2801 64.2361L52.2801 64.2361L52.2801 64.2361C52.2608 64.1928 52.2416 64.1499 52.2233 64.1078C52.1297 63.8616 52.1773 63.7778 52.2418 63.664C52.2629 63.6268 52.2857 63.5865 52.3061 63.5362C52.3475 63.4342 52.4199 63.2709 52.4924 63.1076L52.4924 63.1076C52.5648 62.9443 52.6372 62.781 52.6786 62.6789C52.6909 62.6486 52.7041 62.6147 52.7181 62.5788L52.7181 62.5787C52.7983 62.3728 52.904 62.1013 53.0098 62.0666C53.1339 62.0258 53.3409 62.1891 53.5478 62.3932C53.7548 62.5565 53.9617 62.9647 54.2101 63.4546C54.4584 63.9445 54.9965 65.1283 54.9965 65.1283C54.9965 65.1283 55.1207 65.1692 55.2862 65.21C55.4114 65.2408 55.7967 65.435 56.1562 65.6161L56.1562 65.6161L56.1562 65.6161L56.1563 65.6162L56.1565 65.6163C56.2724 65.6747 56.3856 65.7317 56.4866 65.7815C56.8474 65.9594 57.5228 66.6338 57.9369 67.0472L57.9369 67.0473L57.937 67.0474C57.9979 67.1081 58.0531 67.1632 58.1008 67.2103L58.1754 67.2766L58.1754 67.2766C58.624 67.6757 59.5335 68.485 59.9634 68.6391C60.4187 68.8024 61.0395 68.8024 61.5362 68.8024C61.5362 68.8277 61.552 68.8529 61.5739 68.8877C61.5874 68.9093 61.6032 68.9345 61.619 68.9657C61.6481 69.0803 61.6975 69.1948 61.753 69.3235C61.7766 69.3782 61.8013 69.4355 61.826 69.4964H62.2813C62.1985 69.3331 62.1571 69.129 62.1571 69.0474C62.1571 69.0065 62.1674 68.9657 62.1778 68.9249L62.1778 68.9249C62.1881 68.8841 62.1985 68.8432 62.1985 68.8024C62.571 68.8024 62.9435 68.8024 63.3988 68.8432C64.1438 68.8841 64.9717 69.2515 64.9717 69.2515C64.9717 69.2515 64.6405 68.9657 64.3094 68.7616C64.0887 68.6527 63.9415 68.6165 63.6962 68.556L63.6962 68.556L63.6961 68.5559C63.5735 68.5257 63.4263 68.4894 63.2332 68.435C62.8013 68.3133 62.4154 68.3277 62.0069 68.3429H62.0069H62.0069H62.0069H62.0069C61.8673 68.3481 61.7252 68.3534 61.5776 68.3534C60.9982 68.3534 60.7498 68.3125 60.2945 68.1901C59.8575 68.0725 59.6874 67.955 59.3084 67.693L59.2597 67.6594C58.9408 67.4391 58.7447 67.2189 58.4821 66.9239C58.4039 66.8362 58.3199 66.7418 58.225 66.6388C57.9406 66.3302 57.5779 66.0602 57.2849 65.842C57.1515 65.7426 57.0325 65.654 56.9419 65.5774C56.6107 65.3324 55.9485 64.9242 55.6588 64.8017C55.5083 64.7381 55.4136 64.7516 55.34 64.7621C55.2719 64.7718 55.2217 64.779 55.1621 64.7201C55.0871 64.6461 55.0423 64.5424 54.973 64.3819C54.9275 64.2767 54.8715 64.147 54.7896 63.9853C54.5826 63.5771 54.1687 62.8422 53.9617 62.4748C53.7548 62.0666 53.4237 61.6175 53.2167 61.4542C53.0187 61.298 52.9722 61.3286 52.751 61.4746L52.72 61.4951C52.5193 61.594 52.4808 61.773 52.4297 62.0104L52.4297 62.0104C52.4176 62.0668 52.4048 62.1264 52.3889 62.1891C52.3459 62.3023 52.2929 62.4547 52.2351 62.6209L52.2351 62.6209L52.2351 62.6209C52.1262 62.9341 52.0004 63.2962 51.8922 63.5362C51.7267 63.9036 51.8094 64.1486 51.8922 64.3527C51.9198 64.4207 51.9566 64.4888 51.9934 64.5568C52.067 64.6929 52.1406 64.829 52.1406 64.965C52.1406 65.1235 52.0657 65.2082 51.9547 65.3337C51.9228 65.3698 51.8878 65.4093 51.8508 65.4549C51.6853 65.659 51.8094 65.8632 51.9336 66.0673C51.9584 66.1163 51.9816 66.1587 52.0025 66.1969C52.0859 66.3498 52.1323 66.4347 52.0992 66.598C52.0675 66.7543 51.9872 66.8867 51.877 67.0685L51.8769 67.0685C51.8433 67.1241 51.8068 67.1843 51.768 67.2511C51.6144 67.5164 51.5677 67.5003 51.4625 67.4639L51.4369 67.4553C51.3602 67.43 51.3151 67.3268 51.2527 67.1842C51.2142 67.0961 51.169 66.9929 51.1058 66.8837C50.9402 66.598 51.023 66.3122 51.1058 66.0673C51.1547 65.8983 51.1748 65.8292 51.1829 65.7588C51.1886 65.7101 51.1886 65.6608 51.1886 65.5774C51.1886 65.4769 51.1283 65.3763 51.0622 65.266C50.9941 65.1524 50.9198 65.0284 50.8988 64.8834C50.8574 64.5976 50.9816 64.3527 51.1886 64.0261C51.3011 63.8486 51.3769 63.6348 51.4493 63.4308C51.51 63.2595 51.5683 63.0951 51.6439 62.9647C51.7575 62.7686 51.8322 62.4186 51.8946 62.1259L51.8946 62.1259L51.8946 62.1259L51.8946 62.1259L51.8946 62.1259C51.9231 61.9922 51.949 61.8704 51.975 61.7808C52.0578 61.4951 52.0578 61.3318 52.0578 61.0868C52.0578 60.8139 52.1333 60.7644 52.3565 60.6182L52.3889 60.597C52.4096 60.597 52.4199 60.5868 52.4303 60.5765C52.4406 60.5663 52.451 60.5561 52.4717 60.5561H51.8508C51.8301 60.5561 51.8198 60.5663 51.8094 60.5765C51.7991 60.5868 51.7887 60.597 51.768 60.597C51.6248 60.7383 51.66 60.8796 51.6953 61.0209C51.711 61.0837 51.7267 61.1465 51.7267 61.2093C51.7267 61.4134 51.7267 61.6584 51.6439 61.8625L51.6025 61.9849L51.5197 61.9033C51.4632 61.8476 51.4019 61.8061 51.3472 61.7692C51.2418 61.6979 51.1613 61.6435 51.1886 61.5359C51.2077 61.4603 51.2535 61.4109 51.3013 61.3594C51.3567 61.2998 51.4147 61.2372 51.4369 61.1277C51.4548 61.0393 51.434 60.9816 51.4147 60.928C51.3893 60.8577 51.3665 60.7944 51.4369 60.6786C51.4576 60.6582 51.468 60.6378 51.4783 60.6174C51.4887 60.597 51.499 60.5765 51.5197 60.5561H51.0644C51.023 60.6378 51.023 60.7602 51.1058 60.8827C51.3127 61.1685 51.023 61.1277 51.023 61.1277C51.023 61.1277 50.8161 61.3318 50.8574 61.5359C50.8632 61.5643 50.8682 61.5928 50.8731 61.6212C50.9037 61.7961 50.9335 61.9669 51.1472 62.1074C51.3955 62.2707 51.4369 62.3524 51.3541 62.5565C51.2714 62.6789 51.23 62.8014 51.1886 62.9239L51.1058 63.0872C51.0818 63.0872 51.0193 63.0941 50.9398 63.1028L50.9398 63.1028C50.7454 63.1243 50.4489 63.157 50.3608 63.128C50.3194 63.0872 50.3194 63.0872 50.278 63.0872C50.2549 63.0872 50.2447 63.0617 50.2186 62.9966C50.1979 62.9451 50.1673 62.8688 50.1124 62.7606C50.0642 62.6749 50.0204 62.6026 49.9822 62.5394C49.8566 62.3316 49.7909 62.2231 49.8227 62.0666C49.8447 61.9364 49.9017 61.8524 49.9566 61.7716C50.005 61.7003 50.0516 61.6316 50.071 61.5359C50.1124 61.3318 49.9882 61.046 49.9055 60.9235C49.8641 60.8827 49.8227 60.8827 49.8227 60.8827C49.8227 60.8827 49.8641 60.8419 50.0296 60.6378ZM54.0453 60.7403C53.9729 60.6893 53.9004 60.6383 53.8383 60.5974L52.9691 60.6791H53.0105C53.2175 60.8016 53.59 61.0465 54.0867 61.3731C54.542 61.7405 54.8731 61.9854 55.3698 62.3528L55.3698 62.3528C55.8026 62.673 56.0154 62.7762 56.2821 62.9055C56.3214 62.9245 56.362 62.9442 56.4046 62.9652C56.7771 63.0877 56.7357 62.9652 56.4873 62.7611C56.4106 62.698 56.2352 62.5415 56.0184 62.3481L56.0184 62.3481L56.0184 62.3481L56.0184 62.348C55.5332 61.9152 54.8408 61.2974 54.5834 61.1281C54.5834 61.0873 54.5834 60.8832 54.6248 60.6383H54.2523V60.8832C54.1902 60.8424 54.1177 60.7914 54.0453 60.7403ZM61.413 60.5974C61.3264 60.6544 61.2398 60.6915 61.1673 60.7225C61.1358 60.736 61.1069 60.7484 61.0818 60.7607C60.5851 60.9649 59.5918 61.0465 59.5918 61.0465C59.5918 61.0465 60.0885 60.8424 60.6265 60.5974H61.413ZM73.4156 60.5966L73.2915 60.7191C73.1259 60.9232 73.0017 61.1273 72.9604 61.209C72.9445 61.2402 72.9348 61.2714 72.9264 61.298L72.9264 61.298C72.9129 61.3411 72.9032 61.3723 72.8776 61.3723C72.8577 61.3723 72.8425 61.3746 72.8305 61.3765C72.7924 61.3825 72.7848 61.3837 72.7534 61.2906C72.7534 61.2498 72.7442 61.1954 72.7335 61.1319C72.712 61.0049 72.6844 60.8416 72.712 60.6783V60.5558L73.4156 60.5966ZM65.6344 69.5371H65.5516V69.6187H66.0897C65.9241 69.1289 65.6757 68.6798 65.4688 68.394C65.2618 68.0674 64.8065 67.6184 64.4754 67.3735C64.3331 67.2799 64.2271 67.2161 64.1365 67.1616C63.9899 67.0735 63.8839 67.0097 63.7304 66.8836C63.4407 66.6795 63.4407 66.6386 63.4407 66.6386C63.4407 66.6386 63.3579 66.6795 63.5234 66.8836C63.5739 66.9458 63.6128 67.0042 63.6508 67.0612C63.7373 67.191 63.8187 67.3132 64.0201 67.4551C64.1857 67.5717 64.2972 67.6884 64.4087 67.805C64.4923 67.8925 64.5759 67.98 64.6824 68.0674C64.9307 68.2716 65.2204 68.639 65.3446 68.8431C65.386 68.9451 65.4377 69.0472 65.4895 69.1493C65.5412 69.2513 65.593 69.3534 65.6344 69.4554L65.6757 69.5371H65.6344Z" fill="#F20000"/>
<path fill-rule="evenodd" clip-rule="evenodd" d="M49.6569 60.597C49.6982 60.5562 49.6982 60.5154 49.6982 60.5154C49.6982 60.5154 49.8218 60.3602 49.9924 60.1479H50.1535C50.1994 60.0833 50.2484 60.0136 50.2998 59.9403C50.5733 59.5509 50.9162 59.0627 51.2297 58.7191C51.6022 58.3109 52.1403 57.5761 52.2645 57.372C52.2962 57.3094 52.3252 57.2442 52.3536 57.1804L52.3536 57.1803L52.3536 57.1802L52.3537 57.1802C52.3837 57.1126 52.4131 57.0467 52.4442 56.9871C52.492 56.9418 52.5488 56.8992 52.637 56.8413C52.8396 56.7271 52.941 56.7926 53.0828 56.8842L53.0828 56.8842L53.0828 56.8842L53.0829 56.8842L53.0829 56.8842L53.0829 56.8843C53.1438 56.9236 53.2122 56.9678 53.2992 57.0046L53.2993 57.0046C53.382 57.0454 53.4648 57.0862 53.589 57.1679L53.5622 57.124L53.5363 57.0815C53.6487 57.1604 53.7661 57.2348 53.8787 57.2903L53.8788 57.2904L53.879 57.2904C54.2101 57.4537 54.7066 57.6986 54.9135 57.7802C54.9962 57.7802 55.079 57.821 55.1204 57.8618L55.079 57.9027C54.7479 58.3925 54.6237 58.76 54.4582 59.2498C54.4168 59.3723 54.3754 59.4948 54.3754 59.6172C54.127 59.2498 53.7131 58.6375 53.589 58.4742C53.382 58.2701 53.1751 58.066 52.8853 58.2701C52.7659 58.3878 52.6179 58.5433 52.4641 58.7048L52.4641 58.7048C52.2979 58.8792 52.1252 59.0606 51.9747 59.209C51.7264 59.4948 51.3125 60.0255 51.3125 60.0255C51.3125 60.0255 51.2297 60.0663 51.1883 60.1479H51.6436C51.7264 60.0255 51.8506 59.8622 52.1403 59.5764L52.9267 58.8008C52.9436 58.7842 52.9581 58.7683 52.9715 58.7538C53.0562 58.6614 53.0902 58.6244 53.3406 58.8008C53.4998 58.9578 53.659 59.1652 53.8074 59.3583C53.8904 59.4665 53.97 59.5702 54.0443 59.6581C54.0693 59.6951 54.102 59.7397 54.1376 59.7883L54.1376 59.7884C54.2197 59.9004 54.3177 60.0341 54.3754 60.1479H54.7479C54.7479 60.0867 54.7582 60.0153 54.7686 59.9438C54.7789 59.8724 54.7893 59.8009 54.7893 59.7397C54.8307 59.4131 55.079 58.8416 55.2446 58.515C55.297 58.4116 55.3494 58.3 55.4045 58.1828L55.4045 58.1828L55.4045 58.1828C55.5233 57.9299 55.6544 57.6509 55.8241 57.372C55.9482 57.1883 56.0724 56.9943 56.1966 56.8004L56.1966 56.8004L56.1966 56.8004L56.1967 56.8003L56.1967 56.8003L56.1967 56.8002C56.3208 56.6064 56.445 56.4126 56.5691 56.2289C56.7567 55.9514 56.8026 55.8369 56.903 55.5863C56.9355 55.5052 56.9738 55.4098 57.0244 55.29C57.2163 54.8356 57.2659 54.4866 57.3051 54.2104L57.3141 54.1469C57.3395 53.9965 57.3025 53.8615 57.2702 53.7797H57.2732C57.3146 53.698 57.2732 53.6164 57.2732 53.6164C57.2732 53.6164 57.0662 53.6164 56.9007 53.6572C56.9899 53.5986 57.0577 53.6031 57.1655 53.6103C57.2078 53.6132 57.2563 53.6164 57.3146 53.6164C57.4564 53.6164 57.4816 53.5781 57.5234 53.5145C57.5425 53.4853 57.5652 53.4508 57.6043 53.4123C57.7054 53.3126 57.8064 53.1048 57.8852 52.9428C57.9032 52.9058 57.92 52.8711 57.9354 52.8408C57.9965 52.6902 58.0801 52.6729 58.1529 52.6578C58.1789 52.6524 58.2034 52.6474 58.2252 52.6366C58.3493 52.5958 58.2666 52.5142 58.2666 52.5142H58.308C58.4321 52.4733 58.3493 52.3917 58.3493 52.3917H58.0596C57.9354 52.3917 57.894 52.4325 57.8113 52.5958C57.6871 52.7183 57.5629 52.8816 57.4801 53.004C57.41 53.1078 57.3399 53.1237 57.2194 53.1509C57.1977 53.1558 57.1743 53.1611 57.149 53.1673C57.1014 53.1791 57.0572 53.1875 57.0154 53.1954C56.912 53.2149 56.8235 53.2317 56.7351 53.2898C56.6523 53.3306 56.6109 53.4123 56.5695 53.4939C56.4868 53.6164 56.4454 53.7797 56.4454 53.7797H56.6523C56.6937 53.7797 56.7351 53.7389 56.7351 53.7389L56.6109 53.8613C56.5282 53.9022 56.4868 53.943 56.4868 54.0246C56.424 54.0865 56.4088 54.1954 56.3871 54.3512C56.3802 54.4009 56.3726 54.4553 56.3626 54.5145C56.3119 54.6644 56.2923 54.9212 56.2752 55.1448C56.2643 55.2866 56.2545 55.415 56.2384 55.4943V55.5351C56.197 55.5759 56.1143 55.6576 56.0315 55.6984C55.8659 55.78 55.7831 55.78 55.5762 55.78H55.3278C55.3278 55.78 55.3278 55.9025 55.3692 55.9433H55.245C55.245 55.9433 55.245 56.0658 55.3692 56.1066C55.4934 56.1474 55.6176 56.1883 55.9073 56.1883C56.1555 56.1883 56.2214 56.1583 56.3393 56.0471C56.3163 56.0861 56.296 56.12 56.2794 56.1473C56.1879 56.26 56.1217 56.3602 56.032 56.4962C55.9593 56.6064 55.871 56.7401 55.7413 56.9229C55.6463 57.0635 55.5922 57.1771 55.5398 57.2871C55.5009 57.3687 55.4631 57.4483 55.4102 57.5353C55.2032 57.4944 54.8307 57.372 54.5409 57.2495L54.1684 57.0046C54.1471 56.9414 54.0488 56.7374 53.9472 56.5265L53.9472 56.5263L53.9471 56.5262L53.9471 56.5261C53.8516 56.3279 53.7532 56.1237 53.7131 56.0248C53.589 55.7799 53.5062 55.6166 53.6304 55.5757C53.741 55.5394 53.8517 55.6651 54.0797 55.9242C54.1074 55.9558 54.137 55.9893 54.1684 56.0248C54.4168 56.3514 54.4582 56.2289 54.4582 56.2289C54.4582 56.2289 54.2098 55.7799 54.127 55.5757C54.0443 55.3308 53.5062 54.3919 53.3406 54.1469C53.1751 53.8612 53.2578 53.6571 53.2578 53.6571C53.2578 53.6571 53.589 53.902 53.7545 54.1061C53.9615 54.3102 54.0443 54.3102 54.0443 54.3102C54.0443 54.3102 53.5062 53.1672 53.382 52.9631C53.3627 52.9249 53.3424 52.8868 53.3223 52.8492L53.3222 52.8491C53.2133 52.6448 53.1116 52.4541 53.2164 52.3507C53.382 52.2691 53.6304 52.514 53.9201 52.9222C54.2512 53.3305 54.2098 53.1264 54.2098 53.1264C54.2098 53.1264 53.6304 52.0241 53.382 51.6975C53.1524 51.3955 52.9581 50.8143 52.8647 50.5348L52.8439 50.4728L52.8254 50.4297C52.9344 50.4766 53.0095 50.5137 53.0095 50.5137C53.0095 50.5137 52.9355 50.4042 52.829 50.2411C52.8492 50.2434 52.8748 50.249 52.906 50.2557C52.9247 50.2598 52.9454 50.2643 52.9681 50.2687C53.1369 50.302 53.2507 50.4168 53.489 50.6574C53.5429 50.7118 53.6031 50.7725 53.6717 50.8403L53.6718 50.8403L53.6718 50.8403C53.9195 51.0847 54.0025 51.1665 54.079 51.2539C54.1175 51.298 54.1544 51.3434 54.2098 51.4118C54.3754 51.6159 54.4168 51.4118 54.4168 51.4118C54.4168 51.4118 54.0857 50.8811 53.7959 50.5545C53.574 50.3043 52.8663 49.0001 52.4728 48.2751L52.4728 48.2751L52.4728 48.2751L52.4728 48.275C52.3526 48.0536 52.2618 47.8862 52.2231 47.8193C52.0575 47.5336 52.0575 47.4111 52.3472 47.5744C52.637 47.6969 52.8853 47.9418 53.1337 48.2276C53.3254 48.5302 53.9081 49.2183 54.1572 49.5126L54.2098 49.5747C54.4168 49.8605 54.4168 49.738 54.4168 49.738C54.4168 49.738 53.2992 47.901 53.0509 47.5744C52.9397 47.4281 52.6291 46.9215 52.2978 46.381C51.8895 45.7147 51.4496 44.997 51.3125 44.8392C51.1363 44.596 51.1401 44.5894 51.1962 44.4921C51.206 44.4751 51.2174 44.4553 51.2297 44.431C51.3125 44.3085 51.4367 44.3902 51.7264 44.6351C52.0575 44.9209 52.4714 45.3699 52.9267 45.9415C53.382 46.513 54.1684 47.5336 54.2926 47.7377C54.4168 47.9418 54.4996 47.6969 54.4996 47.6969C54.4996 47.6969 53.6304 46.6355 53.3406 46.1456C53.1468 45.8179 52.6567 45.1979 52.2542 44.6889C52.0551 44.437 51.8774 44.2123 51.7678 44.0636C51.4366 43.6145 50.6502 42.5123 50.5674 42.3082C50.5574 42.2885 50.548 42.2705 50.5395 42.2541C50.4771 42.135 50.4583 42.0992 50.5674 42.0633C50.733 42.0224 50.8158 42.0633 51.2711 42.3898C51.7264 42.7164 52.0575 43.0838 52.3886 43.4512C52.5937 43.6535 52.9367 44.066 53.2451 44.4369L53.2451 44.4369L53.2451 44.437L53.2452 44.437C53.497 44.7398 53.7257 45.0149 53.8373 45.125C53.9648 45.2508 54.147 45.5058 54.3108 45.7351L54.3108 45.7352L54.3108 45.7352L54.3108 45.7352C54.466 45.9524 54.6047 46.1467 54.6651 46.1864C54.7423 46.2371 54.6916 46.1618 54.5628 45.9703L54.5628 45.9703L54.5628 45.9703C54.4843 45.8535 54.3766 45.6934 54.2512 45.4924C53.9924 45.0775 53.177 44.0888 52.5961 43.3845L52.5961 43.3845L52.5959 43.3842L52.5958 43.384L52.5957 43.3839C52.4337 43.1875 52.29 43.0132 52.1817 42.8797C51.7702 42.3386 51.5008 42.0497 51.1851 41.7111C51.1197 41.641 51.0524 41.5688 50.9814 41.4917C50.8525 41.3519 50.7116 41.2042 50.5749 41.0609L50.5749 41.0609L50.5749 41.0609C50.2725 40.7439 49.9907 40.4484 49.9052 40.3079C49.8755 40.2639 49.8511 40.2305 49.8321 40.2057C49.9972 40.2287 50.166 40.2732 50.3191 40.3487C50.5674 40.4712 50.8986 40.5936 50.8986 40.5936L50.8753 40.5652C51.4127 40.9356 52.1858 41.6183 52.5542 41.9816C52.9267 42.349 54.0857 43.982 54.2098 44.2269C54.334 44.4718 54.4582 44.3902 54.3754 44.1861C54.2926 43.982 52.0575 40.8794 51.4366 40.1854C51.1151 39.826 50.6714 39.3242 50.2723 38.8728L50.2722 38.8727C49.9008 38.4527 49.5681 38.0764 49.4085 37.8993C49.2813 37.7582 49.2091 37.6954 49.1684 37.6599L49.1684 37.6599C49.1411 37.6362 49.128 37.6248 49.1219 37.6104C49.1163 37.5969 49.1168 37.5809 49.1177 37.55C49.1182 37.5346 49.1188 37.5154 49.1188 37.4911C49.1188 37.437 49.1275 37.4058 49.1518 37.393C49.6567 37.5698 50.6652 38.1204 51.2811 38.5431C51.6098 38.817 51.9547 39.128 52.2968 39.4479C52.4738 39.6238 52.6581 39.8107 52.835 39.9923C53.7908 41.0535 55.0993 42.9284 55.7827 44.0636C56.4267 45.1471 57.4867 47.7352 57.8522 48.6356L57.8522 48.6358C57.8646 48.7094 57.8771 48.7756 57.8895 48.8355C57.6362 48.8139 57.425 48.8472 57.2975 48.8673H57.2975L57.2975 48.8673L57.2975 48.8673L57.2974 48.8673C57.2485 48.875 57.2119 48.8807 57.1899 48.8807C57.1486 48.8399 57.0658 48.7583 57.0244 48.6766C56.9705 48.6058 56.9322 48.5733 56.896 48.5427C56.8487 48.5026 56.8049 48.4656 56.7347 48.35C56.6868 48.232 56.6804 48.1686 56.6756 48.1203C56.6721 48.0851 56.6693 48.0579 56.6519 48.0234C56.6105 47.901 56.5277 47.9826 56.4449 48.0643C56.3938 48.1147 56.3742 48.1652 56.3472 48.2349C56.3305 48.278 56.311 48.3285 56.2794 48.3909C56.2183 48.5112 56.2248 48.6981 56.2324 48.9188C56.2351 48.9976 56.238 49.0806 56.238 49.1665V49.2481H56.1966C56.1966 49.2481 56.1138 49.2481 56.031 49.2073C56.0182 49.1947 56.0015 49.1704 55.9783 49.1368C55.9266 49.0617 55.8429 48.9401 55.6999 48.7991C55.5318 48.6333 55.4456 48.6022 55.3082 48.5526C55.2765 48.5411 55.242 48.5287 55.2032 48.5133C54.9962 48.4317 54.9549 48.5133 54.9549 48.5133C54.9549 48.5133 54.9962 48.595 54.9962 48.8399C55.0205 48.9833 55.0872 49.0707 55.1551 49.1595L55.1642 49.1715C55.168 49.2146 55.1778 49.2799 55.2032 49.3299C55.2446 49.3299 55.286 49.3707 55.286 49.3707L55.2861 49.3708C55.3255 49.4679 55.4118 49.5465 55.4914 49.6023L55.5757 49.6973L55.6259 49.7716C55.6053 49.8119 55.5747 49.8615 55.5343 49.9013C55.4646 49.9472 55.3818 49.993 55.286 50.0461C55.2112 50.0875 55.1284 50.1334 55.0376 50.1871C54.8731 50.2844 54.8394 50.3818 54.7701 50.5816C54.7522 50.6332 54.732 50.6916 54.7065 50.7586C54.5823 51.0852 54.4996 51.4118 54.4996 51.7384C54.4689 51.9802 54.5745 52.1773 54.6649 52.3462C54.6966 52.4054 54.7264 52.4611 54.7479 52.514C54.7689 52.6177 54.7579 52.6793 54.742 52.7682C54.7265 52.8544 54.7065 52.9663 54.7065 53.1672C54.6651 53.5754 54.5823 54.0653 54.5409 54.1878C54.5071 54.3211 54.3905 54.4273 54.3038 54.5062L54.3037 54.5062L54.3037 54.5063L54.3036 54.5063C54.2842 54.524 54.2663 54.5402 54.2512 54.5552C54.1684 54.6776 54.2098 54.7593 54.2926 54.9226C54.3754 55.0859 54.4582 55.1675 54.6651 55.3716C54.8721 55.5757 55.1204 55.5757 55.1204 55.5757C55.1204 55.5757 55.1618 55.4533 55.079 55.4125C55.0376 55.392 54.9962 55.3512 54.9497 55.3053C54.9031 55.2594 54.8514 55.2083 54.7893 55.1675C54.7044 55.1117 54.6389 55.0369 54.5795 54.969L54.5795 54.969C54.552 54.9375 54.5258 54.9076 54.4996 54.8818C54.4168 54.8001 54.4168 54.7593 54.4996 54.6776C54.5823 54.596 54.7479 54.3919 54.8307 54.2286C54.9019 54.0882 54.9424 53.7968 54.9787 53.5362C54.9847 53.4938 54.9904 53.4521 54.9962 53.4121V52.4732C54.9962 52.2573 54.949 52.1346 54.8902 51.9819C54.8712 51.9325 54.8509 51.8799 54.8307 51.82C54.7637 51.6218 54.8051 51.4504 54.8453 51.284C54.8548 51.2448 54.8642 51.2058 54.8721 51.1668C54.8997 51.0308 54.9641 50.931 55.0284 50.8312L55.0284 50.8312C55.0606 50.7813 55.0928 50.7314 55.1204 50.677C55.1801 50.5887 55.2397 50.564 55.3304 50.5266L55.3304 50.5266C55.3655 50.5121 55.4053 50.4956 55.4515 50.4728C55.6171 50.3912 55.6999 50.3504 55.6999 50.2687C55.7147 50.2248 55.7243 50.1808 55.7342 50.135C55.7519 50.0531 55.771 49.9652 55.8241 49.8605C55.8531 49.7459 55.9025 49.7117 55.958 49.6733C55.9816 49.657 56.0063 49.6399 56.031 49.6156C56.0517 49.6156 56.0724 49.6053 56.0931 49.5951C56.1138 49.5849 56.1345 49.5747 56.1552 49.5747C56.2794 49.8197 56.4863 49.983 56.4863 49.983C56.4863 49.983 56.5277 49.8197 56.5277 49.738C56.5277 49.6156 56.5277 49.5339 56.4449 49.4114C56.3858 49.324 56.39 49.2781 56.3973 49.1996C56.4001 49.1682 56.4035 49.1315 56.4035 49.0849V48.8399L56.6105 49.044C56.6519 49.0849 56.8174 49.3298 56.9002 49.4931C56.931 49.6145 56.916 49.8036 56.9063 49.9262C56.9029 49.9685 56.9002 50.0028 56.9002 50.0238C56.9002 50.0646 57.0244 50.0646 57.0244 50.0646C57.0244 50.0646 57.1072 49.983 57.1072 49.8605V49.3706H57.4383C57.6452 49.3706 58.1005 49.4931 58.4731 49.6156C58.887 49.738 59.3837 50.1463 59.7562 50.5137C60.1287 50.8811 60.4184 51.371 60.7082 51.9017C60.9979 52.4324 61.2462 53.2488 61.3704 53.8612C61.4946 54.4735 61.536 55.3716 61.4946 55.8207C61.4532 56.2697 61.2462 57.0862 61.1634 57.2903C61.1428 57.3107 61.1324 57.3414 61.1221 57.372C61.1117 57.4026 61.1014 57.4332 61.0807 57.4536C61.0393 57.2087 61.0393 57.0046 61.0393 56.8821C61.0393 56.7246 61.0241 56.4847 61.0067 56.2105C60.9835 55.8448 60.9565 55.4183 60.9565 55.045C60.9565 54.3919 60.8323 53.4529 60.7082 52.8814C60.5886 52.4686 60.4474 52.1836 60.3314 51.9494C60.2868 51.8594 60.2459 51.7769 60.2115 51.6975C60.0873 51.4118 59.4664 50.677 59.2595 50.4728C59.1152 50.3305 58.8099 50.1485 58.5541 49.996C58.4431 49.9298 58.3413 49.8691 58.2661 49.8197C58.0178 49.6564 57.728 49.6564 57.5625 49.6564C57.3969 49.6564 57.4797 49.738 57.4797 49.738C57.4797 49.738 57.6866 49.8197 58.0592 50.0238C58.4731 50.2279 59.0525 50.7586 59.3423 51.0444C59.6734 51.3301 60.1287 52.1058 60.3356 52.7181C60.5426 53.2896 60.6254 54.0245 60.6254 54.596C60.6254 54.8638 60.6345 55.3558 60.6441 55.8786C60.6551 56.4714 60.6668 57.104 60.6668 57.4944C60.6668 58.0455 60.7366 58.2522 60.8414 58.5622L60.8414 58.5622L60.8414 58.5623C60.8763 58.6656 60.9151 58.7804 60.9565 58.9232C61.0807 59.2907 61.2876 59.6989 61.4118 59.903C61.2048 60.0255 60.9151 60.1888 60.584 60.3521H61.4118C61.9085 60.0663 62.4879 59.4948 62.8191 59.0865C63.233 58.5558 63.4813 57.2495 63.4399 56.1473C63.3985 55.1267 63.1088 53.2488 62.9432 52.3099C62.7777 51.371 62.8191 50.0238 62.9019 49.0849C63.026 48.1459 63.4813 46.3905 63.9366 45.5741C64.3919 44.7576 65.675 43.2471 66.5028 42.4715L66.7519 42.2378C67.4013 41.6281 67.7312 41.3183 68.6552 40.5528C69.6485 39.6955 72.0078 38.3483 72.8356 37.8993C73.6634 37.4502 75.1949 36.8379 75.8985 36.6338C76.2854 36.5145 77.4066 36.2421 78.3548 36.0117C79.0298 35.8477 79.6171 35.7049 79.7892 35.654C80.1638 35.5432 79.657 35.9673 79.3426 36.2304C79.3096 36.2581 79.2787 36.2839 79.2512 36.3072C78.9614 36.5521 77.3058 37.8585 76.4366 38.4708C75.5674 39.0423 72.0492 41.5326 71.4283 42.1041C70.973 42.5123 70.5591 43.0022 70.5591 43.0022L71.3042 42.3898C71.4939 42.2443 71.834 42.014 72.1877 41.7745L72.1878 41.7744L72.1879 41.7744C72.5285 41.5437 72.8817 41.3046 73.1253 41.1243C73.4354 40.895 74.5033 40.2045 75.3326 39.6682C75.832 39.3452 76.2449 39.0782 76.3538 39.0015C76.6435 38.7974 77.9267 38.43 78.2578 38.3483C78.5889 38.3075 78.4647 38.6341 78.2992 38.9607C78.1336 39.2873 76.1469 41.0019 75.6502 41.3693C75.1535 41.7367 72.9598 43.1655 72.5873 43.3696C72.4741 43.444 72.2197 43.59 71.9063 43.7697L71.9062 43.7698L71.9061 43.7698C71.1878 44.1819 70.1599 44.7715 69.8141 45.0842C69.5244 45.3699 69.7727 45.4108 69.8969 45.2883C69.925 45.2698 70.0293 45.2075 70.1802 45.1174L70.181 45.1169L70.1813 45.1167L70.1813 45.1167C70.6978 44.8081 71.7573 44.1751 72.1734 43.8595C72.5459 43.5737 74.9051 42.2674 75.4846 41.9816C76.0641 41.655 76.478 41.5326 76.8505 41.4509C77.223 41.3693 77.2644 41.6142 77.1816 41.8183C77.0988 41.9816 76.1055 42.9205 75.3604 43.3288C75.193 43.4205 75.0277 43.5122 74.8607 43.6049L74.8601 43.6052C74.2842 43.9248 73.6883 44.2554 72.9184 44.6351C72.3803 44.8801 69.7313 46.3905 69.2346 46.6763C69.1212 46.7365 69.0372 46.7786 68.9764 46.8091C68.8727 46.861 68.8366 46.8791 68.8374 46.8956C68.8377 46.9044 68.8486 46.9128 68.8653 46.9256C68.8859 46.9414 68.9154 46.9641 68.9449 47.0029C69.0264 47.11 69.1435 47.0238 69.3196 46.8943C69.4119 46.8263 69.5204 46.7465 69.6485 46.6763C69.7913 46.5824 69.9341 46.5245 70.1071 46.4543C70.3856 46.3414 70.7426 46.1967 71.3042 45.819C72.2561 45.2475 74.3671 44.3902 74.6982 44.2677C75.0293 44.1452 75.1535 44.431 75.0707 44.6351C74.9879 44.8392 74.4085 45.2883 73.9118 45.5332C73.5722 45.6878 72.9194 46.0213 72.3383 46.3181C71.9986 46.4915 71.6835 46.6525 71.4697 46.7579C71.0034 46.9879 69.4652 47.9579 68.7095 48.4344C68.5261 48.5501 68.3887 48.6367 68.324 48.6766C67.9929 48.8399 68.1585 48.9624 68.2826 48.9216C68.3471 48.9004 68.5231 48.7802 68.7353 48.6352L68.7354 48.6352L68.7354 48.6352L68.7354 48.6351C68.9321 48.5009 69.1598 48.3453 69.3588 48.2276C69.7727 47.9826 71.6353 46.9212 71.9664 46.7579C72.0339 46.7246 72.0859 46.6964 72.1299 46.6726L72.1299 46.6726L72.1299 46.6726C72.3013 46.5797 72.349 46.5538 72.7114 46.5538C73.1667 46.5538 72.6287 47.2478 72.3389 47.5336C72.0492 47.8193 71.3869 48.3909 70.6419 48.8399C69.8969 49.289 68.2826 50.4728 67.9101 50.7586C67.7183 50.9267 67.5375 51.0191 67.3959 51.0915C67.2625 51.1597 67.1639 51.2101 67.1237 51.2893C67.0823 51.4526 67.1651 51.4526 67.372 51.371C67.579 51.3301 68.1585 50.9219 68.4482 50.7178C68.5018 50.6825 68.5882 50.6245 68.6957 50.5522L68.6957 50.5522C69.0863 50.2897 69.7557 49.8396 70.1452 49.6156C70.6222 49.3411 70.8702 49.2926 71.0724 49.253L71.0972 49.2481C71.3042 49.2073 71.3042 49.2481 71.2628 49.4523C71.2319 49.574 71.1091 49.673 70.8258 49.9014C70.729 49.9795 70.6134 50.0727 70.4763 50.1871L70.4225 50.232L70.4225 50.232L70.4225 50.2321C69.9184 50.6528 69.6317 50.8921 69.1518 51.2077C68.8179 51.4272 68.4653 51.7391 68.1065 52.0563L68.1065 52.0563L68.1064 52.0564L68.1064 52.0564L68.1064 52.0564L68.1063 52.0565C67.9315 52.211 67.7553 52.3669 67.579 52.514C67.0409 52.9631 66.834 53.2488 66.8754 53.4121C66.9167 53.5346 67.2479 53.1264 67.4134 52.9222C67.579 52.7181 68.4068 52.0649 68.7793 51.8608C69.1518 51.6159 69.483 51.4118 69.8141 51.371C70.1866 51.3301 69.8141 51.82 69.5244 52.1466C69.3271 52.369 68.9954 52.6103 68.6732 52.8448L68.6732 52.8448C68.5222 52.9546 68.3733 53.063 68.2412 53.1672C67.9588 53.4179 67.3485 53.8969 66.9105 54.2406L66.9105 54.2407C66.7067 54.4006 66.5403 54.5312 66.4615 54.596L66.4098 54.6569C66.2406 54.8559 66.1717 54.9369 66.1717 55.0859C66.1717 55.2492 66.3787 55.045 66.5442 54.8409C66.7098 54.6368 67.2479 54.2286 67.579 54.0245C67.6395 53.9871 67.7111 53.9416 67.7905 53.8912C68.1454 53.6657 68.6556 53.3414 69.0277 53.208C69.483 53.0447 69.4002 53.5754 69.1105 53.8203C68.8621 54.1061 68.6138 54.3102 67.8273 54.7185C67.3719 54.9549 67.1247 55.1365 66.9089 55.2951C66.752 55.4104 66.6117 55.5135 66.4201 55.6166C65.9648 55.9023 65.7578 56.1881 65.7578 56.1881C65.7578 56.1881 65.8406 56.1881 66.1717 55.984C66.5028 55.7799 67.4134 55.3308 68.0343 55.1267C68.6552 54.9634 68.1999 55.4533 67.9101 55.6574C67.6421 55.8462 67.3034 55.9651 66.7955 56.1434L66.7955 56.1434L66.6684 56.1881C66.2041 56.3517 65.9524 56.5414 65.7216 56.7154C65.6644 56.7585 65.6084 56.8007 65.5509 56.8413C65.2611 57.0454 65.3025 57.0862 65.4267 57.127C65.4872 57.1469 65.4986 57.1377 65.5518 57.0948C65.6078 57.0495 65.7101 56.9669 65.9648 56.8413L65.9648 56.8413L65.9648 56.8412L65.9649 56.8412C66.4615 56.5963 66.8754 56.3922 67.372 56.2289C67.9101 56.1064 67.4134 56.6371 67.0823 56.8413C66.7098 57.0862 65.675 57.6169 65.2197 57.821C64.7644 58.0251 65.1369 58.0251 65.3439 57.9435C65.5509 57.8618 65.9648 57.6986 66.5442 57.4944C67.1237 57.2903 66.3787 57.8618 66.0889 58.0251C65.8821 58.1417 65.3378 58.4039 64.9228 58.6038L64.9224 58.604L64.9221 58.6041C64.756 58.6841 64.6107 58.7541 64.5161 58.8008C64.185 58.9641 64.5575 59.0457 64.723 58.9641C64.7606 58.9456 64.8023 58.9229 64.8527 58.8955L64.8529 58.8954C65.0247 58.802 65.2966 58.6543 65.8406 58.4334C66.5442 58.1068 66.3373 58.515 66.0475 58.6783C65.7992 58.8008 64.8886 59.1682 64.3505 59.3723C64.2188 59.4223 64.1094 59.4625 64.0169 59.4964C63.7314 59.6013 63.6064 59.6472 63.4813 59.7397C63.3158 59.8214 63.2744 60.0663 63.4399 59.9847C63.6055 59.903 64.0608 59.7397 64.8472 59.5356C65.6336 59.3723 64.8886 59.903 64.5989 60.0663L63.7711 60.4745H64.8472C65.0542 60.3521 65.2611 60.2296 65.4681 60.0663C65.882 59.7805 65.6336 59.3315 65.6336 59.3315C66.0889 59.1682 66.5028 58.76 66.6684 58.5558C66.834 58.3517 66.627 58.1068 66.627 58.1068C66.627 58.1068 66.5442 58.1476 66.9167 57.8618C67.2893 57.5353 67.1651 57.2903 67.1651 57.2903C67.1651 57.2903 67.2893 57.2087 67.6618 56.9229C68.0343 56.6371 67.9515 56.2289 67.9515 56.2289C67.9515 56.2289 68.324 55.984 68.6552 55.5757C68.9863 55.1675 68.6965 54.9226 68.6965 54.9226L69.1932 54.4327C69.483 54.1469 69.7727 53.5754 69.8555 53.3713C69.9383 53.1264 69.483 52.9222 69.483 52.9222L70.228 52.0241C70.6005 51.5751 70.3936 51.1668 70.3936 51.1668C70.3936 51.1668 71.3869 50.2279 71.7181 49.8197C72.0906 49.4114 71.5939 48.9216 71.5939 48.9216C71.5939 48.9216 72.5459 48.0234 73.0426 47.4927C73.5392 46.962 73.3323 46.5538 73.3323 46.5538C73.3323 46.5538 73.6634 46.3089 74.2015 45.9823C74.6544 45.7074 74.99 45.3168 75.2577 45.0053L75.2577 45.0053L75.2579 45.0051C75.3081 44.9466 75.356 44.8909 75.4018 44.8392C75.6916 44.5127 75.2777 44.1452 75.2777 44.1452C75.2777 44.1452 75.3604 44.0636 75.6502 43.8595C75.7221 43.7987 75.8296 43.7153 75.9584 43.6155C76.3484 43.3131 76.9324 42.8604 77.3058 42.4307C77.8025 41.8591 77.6369 41.6142 77.4714 41.4509C77.3058 41.2876 76.7677 41.3284 76.7677 41.3284C76.7677 41.3284 77.0161 41.0427 77.3886 40.7161C77.7611 40.3895 78.382 39.6955 78.7545 39.124C79.1684 38.5525 79.0028 38.3483 78.6717 38.1851C78.3406 38.0626 77.8439 38.2667 77.8439 38.2667C77.8439 38.2667 78.382 37.736 78.7131 37.4911C79.0442 37.2461 79.7892 36.5521 80.2031 35.9398C80.617 35.3274 79.9548 35.4091 79.0442 35.5315C78.0922 35.6132 76.2296 36.1847 75.0293 36.5929C73.829 37.0012 71.7181 38.1034 70.7247 38.6749C69.7313 39.2465 67.7859 40.5936 66.7098 41.5734C65.6336 42.5531 64.0608 44.4718 63.2744 45.8598C62.8191 46.7171 62.4466 48.595 62.3638 49.3706C62.352 49.4813 62.3393 49.5795 62.3274 49.6721C62.2557 50.2286 62.21 50.5833 62.5293 52.2282C62.9019 54.1469 62.9846 56.5963 62.9019 57.6169C62.8191 58.5558 62.1154 59.3723 61.6601 59.8214C61.5774 59.7397 61.4946 59.6172 61.4532 59.4948C61.3704 59.2907 61.2876 59.0049 61.2462 58.76C61.2462 58.743 61.2391 58.7191 61.2308 58.6911C61.219 58.6515 61.2048 58.6037 61.2048 58.5558C61.2255 58.515 61.2359 58.4844 61.2462 58.4538C61.2566 58.4232 61.2669 58.3925 61.2876 58.3517C61.3042 58.2864 61.3406 58.208 61.3916 58.0983C61.4681 57.9337 61.5774 57.6986 61.7015 57.3311C61.9085 56.678 61.9085 55.4941 61.9085 54.8818C61.9085 54.3102 61.4532 52.6365 61.2462 52.1058C61.131 51.7647 60.815 51.3444 60.5639 51.0103C60.4543 50.8646 60.3571 50.7353 60.2942 50.6361C60.0045 50.1871 58.9697 49.4931 58.3489 49.2481C58.2868 49.2277 58.2247 49.2175 58.1626 49.2073C58.1005 49.1971 58.0385 49.1869 57.9764 49.1665C57.9474 49.0808 57.9184 48.9751 57.8895 48.8355C57.9045 48.8368 57.9197 48.8382 57.935 48.8399L57.9092 48.7763L57.8522 48.6356C57.7785 48.2725 57.443 47.4251 57.1658 46.7252L57.1658 46.7252L57.0658 46.4722C56.8552 45.8492 56.02 44.3461 55.594 43.5795L55.594 43.5794L55.594 43.5794L55.594 43.5793C55.5175 43.4418 55.4542 43.3279 55.4102 43.2471C55.1204 42.7573 54.0443 41.3284 53.7545 40.961C53.6038 40.7938 53.2388 40.4068 52.835 39.9923C52.6909 39.8323 52.5548 39.6907 52.43 39.573C52.3857 39.5312 52.3413 39.4895 52.2968 39.4479C51.9901 39.143 51.7053 38.8709 51.5194 38.7158C51.4498 38.6618 51.3695 38.6038 51.2811 38.5431C50.7349 38.0879 50.2333 37.735 49.8638 37.6135C49.6954 37.5582 49.5635 37.5088 49.4607 37.4703L49.4607 37.4703L49.4607 37.4703C49.2851 37.4046 49.1945 37.3707 49.1518 37.393C49.1256 37.3839 49.1008 37.3757 49.0774 37.3686C48.6308 37.2669 48.6119 37.3059 48.5474 37.4388C48.5342 37.466 48.519 37.4972 48.4979 37.5319C48.3737 37.736 48.5393 37.8993 48.7876 38.1034C48.9007 38.2596 49.0509 38.4279 49.2179 38.6151L49.2179 38.6151L49.2179 38.6151C49.3565 38.7705 49.5067 38.9388 49.6569 39.124C49.9932 39.4926 50.7346 40.3938 50.8753 40.5652L50.8572 40.5528C50.3191 40.2262 50.1121 40.1446 49.9052 40.1446H49.781C49.781 40.1446 49.7981 40.1614 49.8321 40.2057C49.7293 40.1914 49.628 40.1854 49.5327 40.1854C49.343 40.1854 49.3465 40.2092 49.3587 40.2932C49.3625 40.3192 49.3671 40.3509 49.3671 40.3895C49.3671 40.5405 49.4025 40.6217 49.5061 40.8592L49.5327 40.9202C49.6569 41.2468 50.4847 41.9 50.4847 41.9C50.4847 41.9 50.3191 41.8591 50.1949 41.9C50.0708 41.9 49.9466 41.9 49.8638 42.1041C49.781 42.3082 49.8224 42.3898 49.988 42.6756C50.1535 42.9614 51.1055 44.3085 51.1055 44.3085L50.9814 44.2677C50.9814 44.2677 50.6916 44.1861 50.6088 44.3902C50.5103 44.5197 50.6203 44.7264 50.8146 45.0918C50.8652 45.1869 50.9215 45.2927 50.9814 45.4108C51.2297 45.9823 52.2645 47.4519 52.2645 47.4519C52.2645 47.4519 51.9747 47.4111 51.7678 47.4111C51.5608 47.4111 51.478 47.5744 51.478 47.5744C51.478 47.5744 51.5608 47.7377 51.6436 48.1051C51.6956 48.3359 51.7966 48.5023 51.9262 48.7156C52.0028 48.8418 52.0894 48.9844 52.1817 49.1665C52.3413 49.4813 52.6376 49.9478 52.829 50.2411C52.757 50.2327 52.7558 50.2651 52.8254 50.4297C52.7363 50.3913 52.6245 50.3463 52.5128 50.3096C52.3286 50.249 52.3266 50.2558 52.304 50.33C52.2962 50.3558 52.2859 50.3898 52.2645 50.432C52.2308 50.5648 52.2519 50.6436 52.3054 50.8438C52.3177 50.8899 52.3318 50.9424 52.3472 51.0035C52.43 51.371 53.0095 52.4324 53.0095 52.4324C53.0095 52.4324 52.8025 52.4732 52.637 52.514C52.4861 52.5512 52.5071 52.6223 52.5747 52.851L52.5956 52.9222C52.637 53.1672 52.9267 53.6571 53.0095 53.7387C53.0095 53.7387 52.9681 53.6979 52.8853 53.6979C52.7198 53.6571 52.637 53.8203 52.637 53.8203C52.637 53.8203 52.6784 54.2286 52.8025 54.596C52.9267 54.9634 53.382 55.5757 53.382 55.5757C53.382 55.5757 53.2164 55.5349 53.0923 55.6982C53.0751 55.7208 53.0611 55.7371 53.05 55.75C53.0334 55.7695 53.0234 55.7811 53.0194 55.7945C53.0134 55.8145 53.0206 55.8385 53.0385 55.8982C53.0582 55.9642 53.0911 56.0738 53.1337 56.2697C53.2416 56.589 53.412 56.8775 53.5363 57.0815C53.3951 56.9825 53.2617 56.8764 53.1555 56.792L53.1555 56.792L53.1554 56.7919L53.1551 56.7916L53.1547 56.7913L53.1544 56.7911C53.0971 56.7455 53.0478 56.7063 53.0095 56.678C52.8641 56.5919 52.8208 56.6268 52.7506 56.6835C52.7208 56.7074 52.6862 56.7353 52.637 56.7596C52.5585 56.7983 52.4987 56.8828 52.4442 56.9871C52.383 57.0451 52.3368 57.1078 52.2589 57.2133C52.2261 57.2576 52.1877 57.3096 52.1403 57.372C52.0569 57.4816 51.9223 57.6694 51.7692 57.8829L51.7692 57.883L51.7691 57.883L51.7691 57.883C51.4661 58.3056 51.091 58.8288 50.8986 59.0457C50.7156 59.252 50.2849 59.784 49.9924 60.1479H49.6569V60.597ZM55.6259 49.7716L55.6585 49.8198L55.7413 49.6973L55.6171 49.5748L55.3273 49.2482C55.286 49.2074 55.1618 49.1258 55.1618 49.1258C55.1618 49.1258 55.1618 49.1442 55.1642 49.1715C55.2092 49.2305 55.2538 49.2913 55.286 49.3706L55.2861 49.3708L55.4914 49.6023C55.579 49.6636 55.6585 49.6972 55.6585 49.6972C55.6585 49.6972 55.6476 49.7293 55.6259 49.7716ZM56.6139 55.5588C56.6141 55.5616 56.6143 55.5643 56.6145 55.567C56.621 55.6513 56.626 55.7157 56.5282 55.78C56.5282 55.8617 56.4868 55.9025 56.404 55.9841C56.3802 56.0076 56.3591 56.0285 56.3393 56.0471C56.4137 55.9212 56.5163 55.742 56.6139 55.5588ZM56.6139 55.5588C56.6124 55.5386 56.6109 55.5171 56.6109 55.4943V54.9636C56.6109 54.8819 56.6213 54.7594 56.6316 54.637C56.642 54.5145 56.6523 54.392 56.6523 54.3104C56.6937 54.2696 56.7351 54.2389 56.7765 54.2083C56.8179 54.1777 56.8593 54.1471 56.9007 54.1063C57.0219 54.0465 57.0543 54.0086 57.0955 53.9606C57.1106 53.943 57.1268 53.924 57.149 53.9022C57.1904 53.8613 57.1904 53.8205 57.1904 53.7797H57.2024C57.1873 53.8312 57.1679 53.91 57.1486 54.0245C57.1247 54.1655 57.0597 54.3742 56.9931 54.5883L56.993 54.5883L56.993 54.5883C56.9439 54.746 56.8939 54.9065 56.8588 55.045C56.8049 55.1868 56.712 55.3748 56.6139 55.5588ZM57.2024 53.7797C57.2196 53.721 57.2313 53.6979 57.2313 53.6979C57.2313 53.6979 57.2498 53.7283 57.2702 53.7797H57.2024ZM51.8921 60.5969C52.0064 60.5067 52.1334 60.4414 52.252 60.3804L52.2521 60.3804L52.2521 60.3803L52.2521 60.3803L52.2521 60.3803L52.2522 60.3803C52.3482 60.3309 52.4389 60.2843 52.513 60.2295C52.6785 60.107 52.8855 60.0254 53.258 60.2295C53.4236 60.3111 53.6305 60.4336 53.8789 60.5969H53.0097C52.8027 60.4744 52.6785 60.5152 52.513 60.5969H51.8921ZM71.0975 60.2297C71.1389 60.3114 71.1803 60.4338 71.2217 60.5971L71.8839 60.6788C71.8592 60.6178 71.8345 60.5606 71.8109 60.5058C71.7554 60.3772 71.706 60.2626 71.6769 60.1481C71.5528 59.7807 71.5114 59.6174 71.47 59.2091C71.461 59.1203 71.452 59.047 71.4443 58.9841V58.984C71.4165 58.7576 71.4052 58.666 71.47 58.4743C71.5226 58.2407 71.592 58.1227 71.6674 57.9942C71.7107 57.9206 71.7559 57.8436 71.8011 57.7395C71.9253 57.4946 71.9667 57.4129 72.2564 57.0863C72.3868 56.9148 72.4488 56.8108 72.5022 56.7212C72.5504 56.6402 72.5917 56.5709 72.6703 56.474C72.8359 56.2699 72.9187 56.1474 73.0428 55.8208C73.1278 55.5975 73.1352 55.4887 73.1447 55.3508C73.1491 55.2871 73.1539 55.2171 73.167 55.1268C73.2084 54.9839 73.2394 54.9023 73.2705 54.8206C73.3015 54.739 73.3326 54.6573 73.374 54.5145C73.4354 54.3025 73.5423 54.1579 73.661 53.9975L73.661 53.9974C73.7023 53.9415 73.7451 53.8837 73.7879 53.8205C73.9069 53.6737 73.9404 53.6536 73.9652 53.6387C73.9748 53.6328 73.9832 53.6278 73.9948 53.6163C74.0362 53.5755 73.9948 53.7796 73.9534 53.9837L73.9534 53.9838C73.9279 54.0847 73.9181 54.2012 73.9046 54.3622C73.8962 54.4617 73.8865 54.5782 73.8707 54.7186C73.8438 54.9306 73.8692 54.9878 73.8904 55.0353C73.9019 55.061 73.912 55.0838 73.912 55.1268C73.912 55.2085 73.9948 55.2085 73.9948 55.2085C73.9948 55.2085 74.0776 55.2085 74.119 55.1268C74.1361 55.093 74.1888 55.0171 74.2505 54.9283C74.3377 54.8026 74.443 54.6509 74.4915 54.5553C74.5795 54.4395 74.6884 54.3443 74.7738 54.2695C74.8088 54.2388 74.8399 54.2116 74.864 54.1879C74.9468 54.1062 74.9468 54.2287 74.9468 54.2287L74.7812 54.4736C74.6985 54.5961 74.6157 54.8002 74.5743 55.0043C74.5329 55.1676 74.5329 55.5759 74.5329 55.78C74.4915 56.0249 74.5329 55.9841 74.5329 55.9841L74.6157 55.9024C74.6157 55.9024 74.8226 55.6983 74.9054 55.5759C74.9792 55.4667 75.1188 55.4224 75.2362 55.3851L75.2779 55.3717C75.4021 55.3309 75.4021 55.4534 75.3607 55.535C75.3153 55.5798 75.2823 55.6246 75.2345 55.6896C75.1952 55.7431 75.1457 55.8103 75.071 55.9024C75.0322 55.9503 74.9979 55.9937 74.9655 56.0347C74.8598 56.1685 74.7741 56.2769 74.6157 56.4331C74.4087 56.5964 74.119 56.8006 73.8293 56.9639C73.5943 57.0963 73.3865 57.4704 73.2502 57.7159C73.2184 57.7731 73.1905 57.8234 73.167 57.862C73.0768 58.0103 73.0303 58.3526 72.9957 58.6069L72.9957 58.607C72.9827 58.7027 72.9714 58.7859 72.9601 58.8417C72.9315 58.9827 72.9424 59.1431 72.9518 59.2827V59.2827V59.2827C72.9561 59.3452 72.9601 59.4036 72.9601 59.4541V59.699L73.0428 59.6582L73.1256 59.4132C73.1669 59.3521 73.2289 59.2706 73.3064 59.1688L73.3064 59.1687L73.3067 59.1683L73.3067 59.1683L73.3068 59.1682L73.3068 59.1681L73.3072 59.1677C73.3847 59.0657 73.4777 58.9435 73.5809 58.8009C73.7654 58.5825 73.9499 58.4939 74.1051 58.4194C74.124 58.4104 74.1424 58.4015 74.1604 58.3927C74.2574 58.3448 74.3544 58.325 74.4347 58.3086C74.4915 58.297 74.54 58.2871 74.5743 58.2702C74.6985 58.2294 74.7399 58.311 74.7399 58.311C74.7399 58.311 74.6571 58.5151 74.5329 58.6376C74.5061 58.664 74.4852 58.6866 74.4658 58.7074C74.3953 58.7834 74.3463 58.8361 74.119 58.9642C74.0555 59 73.9999 59.0299 73.9497 59.0569C73.7708 59.1532 73.6597 59.2131 73.4981 59.3724C73.2912 59.5765 73.167 59.7807 73.0428 59.9848C72.9281 60.1356 72.884 60.3562 72.8454 60.5499L72.8359 60.5971H73.5395C73.5809 60.5155 73.6223 60.5155 73.6223 60.5155C73.6223 60.5155 73.5809 60.5563 73.5809 60.5971H73.9948V60.5563C74.0776 60.2705 74.2018 59.9848 74.3673 59.7807C74.4907 59.6286 74.4073 59.6578 74.2883 59.6994L74.2882 59.6995C74.2475 59.7137 74.2026 59.7294 74.1604 59.7398L74.1603 59.7399C73.9948 59.8215 73.8292 59.9031 73.6223 60.0256C73.4154 60.1481 73.2912 60.2297 73.2912 60.2297C73.2912 60.2297 73.3326 60.1072 73.4981 59.9439C73.6637 59.7807 73.912 59.6174 74.119 59.4949C74.3259 59.3724 74.6571 59.1275 74.7812 59.005C74.9054 58.8825 75.0296 58.5151 75.1124 58.2702C75.1952 58.0253 75.2365 57.6578 75.2365 57.4537C75.2779 57.2496 75.1124 57.4129 75.0296 57.4946C74.983 57.5252 74.9539 57.5558 74.9248 57.5864C74.8763 57.6374 74.8278 57.6885 74.6985 57.7395C74.5914 57.7817 74.5397 57.8021 74.4861 57.812C74.4361 57.8211 74.3844 57.8211 74.2846 57.8211C74.0836 57.8211 74.0453 57.8479 73.9064 57.9445L73.9064 57.9445C73.8736 57.9674 73.8353 57.9941 73.7879 58.0253C73.6141 58.1395 73.5822 58.1938 73.5362 58.272C73.5164 58.3056 73.4941 58.3436 73.4567 58.3927C73.2912 58.556 73.2498 58.6376 73.2498 58.6376C73.2498 58.6376 73.2498 58.5151 73.2912 58.3518C73.3227 58.2277 73.402 58.1035 73.4928 57.9614C73.5214 57.9166 73.5512 57.87 73.5809 57.8211C73.6674 57.6789 73.7741 57.6159 73.8868 57.5494L73.8869 57.5494C73.9359 57.5205 73.986 57.4908 74.0362 57.4537C74.0847 57.4179 74.1437 57.3821 74.2062 57.3442L74.2062 57.3442C74.3572 57.2526 74.5278 57.1491 74.6157 57.0047C74.7399 56.8006 74.8226 56.6781 74.9054 56.5964C74.9675 56.5352 75.0296 56.4051 75.0917 56.275C75.1124 56.2316 75.1331 56.1882 75.1538 56.1474C75.217 56.0226 75.3044 55.8979 75.379 55.7914C75.4021 55.7584 75.424 55.7272 75.4435 55.6983C75.5263 55.5759 75.7332 55.4126 75.8574 55.3309C75.9816 55.2493 76.023 55.2085 75.9402 55.1268C75.8988 55.0452 75.816 55.0043 75.6504 54.9635H75.0296C74.864 55.0043 74.7812 55.0043 74.7812 55.0043C74.7812 55.0043 74.7812 54.9227 74.8226 54.7186C74.8598 54.5353 75.0639 54.2861 75.225 54.0894L75.2779 54.0246C75.4021 53.8205 75.5263 53.7388 75.6504 53.6572C75.7746 53.5755 75.6504 53.5347 75.5677 53.5347C75.4849 53.5347 75.3193 53.5347 75.1538 53.5755C74.9468 53.6163 74.6985 53.7388 74.4501 53.9021C74.2018 54.0654 74.2018 54.1879 74.2018 54.1879V54.0654C74.2018 53.9838 74.2432 53.7388 74.2846 53.5347C74.3065 53.4263 74.3636 53.2833 74.4246 53.1303C74.4785 52.9952 74.5355 52.8522 74.5743 52.7182C74.6571 52.4325 74.3259 52.5549 74.0776 52.6774C73.8392 52.7782 73.6289 53.0447 73.3774 53.3634L73.3773 53.3635L73.3771 53.3638C73.323 53.4323 73.267 53.5033 73.2084 53.5755C72.9894 53.8726 72.9514 53.9731 72.903 54.1017L72.9029 54.1017L72.9029 54.1018C72.8781 54.1676 72.8505 54.2407 72.7945 54.3512C72.6703 54.6369 72.6703 54.7594 72.6703 55.0452L72.6642 55.094C72.6286 55.3766 72.6225 55.4254 72.5048 55.6575L72.5047 55.6575C72.3392 55.9025 72.1736 56.1474 71.8011 56.6781C71.3872 57.2088 71.2217 57.4946 71.0147 57.862C70.8161 58.1557 70.8028 58.3973 70.7843 58.7327C70.7796 58.8168 70.7747 58.9068 70.7664 59.005C70.7377 59.3447 70.8482 59.6058 70.9601 59.8701L70.9601 59.8701C71.0096 59.987 71.0594 60.1045 71.0975 60.2297ZM55.8239 51.9016C55.7411 51.9424 55.6997 52.0241 55.6583 52.1057C55.6169 52.1465 55.5755 52.1874 55.5755 52.2282C55.5341 52.3507 55.5341 52.3915 55.5341 52.3915L55.5755 52.4323C55.5755 52.4323 55.6997 52.3507 55.7825 52.3098C55.8627 52.2703 55.9429 52.2691 56.0231 52.269C55.9429 52.2691 55.864 52.2703 55.8239 52.3098C55.7825 52.3098 55.6583 52.4323 55.6583 52.4323L55.6997 52.4731L55.6169 52.5548C55.6169 52.5548 55.6583 52.6364 55.7825 52.6364C55.9117 52.6683 55.9401 52.6504 55.9857 52.6216C55.9985 52.6135 56.0127 52.6046 56.0308 52.5956C56.0782 52.5644 56.1136 52.5392 56.1438 52.5176L56.1438 52.5176C56.1927 52.4828 56.228 52.4575 56.2792 52.4323C56.3619 52.3915 56.4033 52.3098 56.3619 52.3098C56.4447 52.269 56.4861 52.1874 56.4447 52.1874C56.4322 52.1874 56.4197 52.1836 56.406 52.1795C56.3745 52.1701 56.3369 52.1589 56.2792 52.1874C56.2633 52.1718 56.2536 52.1562 56.2452 52.1429C56.2317 52.1213 56.222 52.1057 56.1964 52.1057L56.155 52.0649H56.3205C56.4033 52.0649 56.3619 51.9833 56.2792 51.9424C56.1964 51.9016 56.1136 51.8608 56.0308 51.8608C55.948 51.8608 55.9066 51.8608 55.8239 51.9016ZM55.6585 55.5352H55.5757C55.5343 55.6169 55.5757 55.6985 55.5757 55.6985C55.5757 55.6985 55.4515 55.6985 55.4102 55.6577C55.3274 55.6577 55.3274 55.576 55.3274 55.4536C55.3274 55.3719 55.3274 55.3311 55.4102 55.2494C55.4102 55.2086 55.4102 55.1678 55.4929 55.127C55.5757 55.0453 55.6999 55.0453 55.8241 55.0453C55.9068 55.0453 56.031 55.2086 56.031 55.2086C56.031 55.2086 55.9896 55.2494 55.9068 55.2494L55.9896 55.3311C55.9896 55.3311 55.9482 55.3719 55.8655 55.3719C55.7827 55.3719 55.7413 55.4127 55.6999 55.4536C55.6171 55.4944 55.6585 55.5352 55.6585 55.5352Z" fill="#F20000"/>
</svg>
