<svg width="115" height="114" viewBox="0 0 115 114" fill="none" xmlns="http://www.w3.org/2000/svg">
<circle cx="57.5" cy="57" r="55.5" fill="white" stroke="#5C0632" stroke-width="3"/>
<path fill-rule="evenodd" clip-rule="evenodd" d="M50.3963 32.7636C49.5349 32.7636 48.8493 33.0956 48.8493 33.4974C48.8669 33.8993 49.5525 34.2313 50.3963 34.2313C54.8088 34.2313 68.2045 33.8993 68.2045 33.4974C68.2045 33.0956 54.7913 32.7636 50.3963 32.7636ZM41.5362 37.4988C41.5362 38.0754 42.7668 38.5297 44.261 38.5297C49.5701 38.5297 62.3505 38.3026 69.8395 37.9706C70.068 37.8221 70.2966 37.6692 70.5251 37.5163C70.7536 37.3634 70.9822 37.2105 71.2107 37.062C64.0382 36.7125 49.9217 36.4679 44.261 36.4679C42.7492 36.4679 41.5362 36.9222 41.5362 37.4988ZM62.0868 43.492C53.8595 43.7016 44.9466 43.8239 40.3583 43.8239C38.4421 43.8239 36.8951 43.2473 36.8951 42.5135C36.8951 41.7971 38.4421 41.203 40.3583 41.203C45.4037 41.203 55.7581 41.3603 64.6359 41.6049C64.3837 41.7853 64.1316 41.9715 63.8761 42.1602L63.8761 42.1602C63.6863 42.3003 63.4946 42.4419 63.2998 42.5834C62.8955 42.8979 62.4911 43.1949 62.0868 43.492ZM71.5974 43.1949C76.6252 42.9853 80.1411 42.7581 80.1411 42.5135C80.1411 42.3038 77.6448 42.1116 73.8476 41.9369C73.0917 42.3388 72.3358 42.7581 71.5974 43.1949ZM74.2695 53.3641C80.2641 53.1369 84.4481 52.8574 84.4481 52.5603C84.4481 52.2284 79.0863 51.9138 71.8259 51.6518C72.406 52.1759 73.2147 52.77 74.2695 53.3641ZM42.714 64.1274C40.3935 64.1623 38.3543 64.1623 36.7545 64.1623C34.4692 64.1623 32.6057 63.4634 32.6057 62.5898C32.6057 61.7161 34.4692 61.0172 36.7545 61.0172C38.7762 61.0172 41.5362 61.0347 44.683 61.0696C43.8407 62.2828 43.3036 63.1591 43.0304 63.6048L43.0304 63.6049L43.0303 63.605L43.0302 63.6051L43.0302 63.6051L43.0302 63.6052L43.0302 63.6052C42.91 63.8012 42.841 63.9138 42.8195 63.9352L42.714 64.1274ZM46.4408 68.7576C45.5443 67.9888 44.718 67.1327 43.9621 66.2241C43.9621 66.2241 43.9621 66.2066 43.9269 66.1542L42.973 66.1469L42.9711 66.1469C41.0494 66.1322 39.3635 66.1192 38.0026 66.1192C35.8403 66.1192 34.0999 66.7832 34.0999 67.6044C34.0999 68.4257 35.8403 69.0896 38.0026 69.0896C40.2647 69.0896 43.4632 69.063 47.1227 69.0127C46.6233 69.0167 46.4408 68.7576 46.4408 68.7576ZM47.9351 68.8275C47.6097 68.9589 47.3476 69.0085 47.1393 69.0125C51.8658 68.9475 57.3594 68.843 62.5966 68.7052C62.3316 68.3136 62.0877 67.9507 61.8719 67.6296L61.8715 67.629C61.5289 67.1194 61.2572 66.7152 61.0847 66.4687C57.7446 66.3988 54.3517 66.3289 51.1522 66.2765C50.0623 67.7267 49.0778 68.3558 47.9351 68.8275ZM40.3583 73.9471C38.4421 73.9471 36.8951 73.353 36.8951 72.6367C36.8951 71.9203 38.4421 71.3262 40.3583 71.3262C45.4213 71.3262 55.7933 71.4834 64.671 71.7281C65.0929 72.3396 65.5324 72.9512 65.9368 73.5103C56.7953 73.7724 45.6674 73.9471 40.3583 73.9471ZM44.2434 78.6822C49.5877 78.6822 62.4208 78.4726 69.8746 78.1406C69.7205 77.9874 69.5623 77.826 69.3999 77.6604C69.2287 77.4858 69.053 77.3065 68.8726 77.1271C61.3133 76.8126 49.3415 76.6204 44.2434 76.6204C42.7316 76.6204 41.5186 77.0747 41.5186 77.6513C41.5186 78.2105 42.7492 78.6822 44.2434 78.6822ZM50.4139 80.9188C54.8088 80.9188 68.2221 81.2508 68.2221 81.6527C68.2221 82.0545 54.8264 82.3865 50.4139 82.3865C49.5525 82.3865 48.8669 82.0545 48.8669 81.6527C48.8493 81.2508 49.5525 80.9188 50.4139 80.9188ZM36.772 54.133C39.954 54.133 44.929 54.0805 50.4666 53.9932C51.3456 53.0322 52.2422 52.0886 53.1915 51.1801C46.5815 51.0577 40.4814 50.9879 36.772 50.9879C34.4867 50.9879 32.6232 51.6868 32.6232 52.5604C32.6232 53.4341 34.4867 54.133 36.772 54.133ZM77.6449 46.9691C80.8971 47.1439 82.9364 47.3361 82.9364 47.5283C82.9364 47.7554 80.4576 47.9651 76.6428 48.1398C77.3953 47.5707 77.5998 47.0773 77.6388 46.9834C77.6417 46.9763 77.6437 46.9716 77.6449 46.9691ZM34.1351 47.5282C34.1351 48.3494 35.8755 49.0134 38.0378 49.0134C41.9405 49.0134 48.6559 48.9261 55.7229 48.7688C56.6547 47.9301 57.5864 47.1263 58.5357 46.3226C50.4842 46.1479 42.4679 46.043 38.0378 46.043C35.8755 46.043 34.1351 46.707 34.1351 47.5282ZM36.3326 59.1825C33.9945 59.1825 32.1135 58.4661 32.1135 57.575C32.1135 56.7013 34.0121 55.985 36.3326 55.985C39.2508 55.985 43.6281 56.0199 48.5856 56.1073C47.7418 57.0858 46.9331 58.0817 46.1596 59.1126L44.4 59.1284C41.1843 59.1573 38.3913 59.1825 36.3326 59.1825Z" fill="#747F8A"/>
<path d="M84.8876 56.3869C84.9228 57.1906 84.9228 57.9769 84.87 58.7457C77.0647 59.0602 69.6812 59.5145 69.6812 60.0387C69.6812 60.5629 76.9064 61.0172 84.6239 61.3142C84.4833 62.1878 84.3075 63.0615 84.0965 63.9177C76.5021 64.2322 69.4527 64.6865 69.4527 65.1932C69.4527 65.6824 76.0275 66.1367 83.323 66.4337C82.989 67.3423 82.6198 68.2509 82.1804 69.1246C75.922 69.4216 70.7536 69.8235 70.7536 70.2603C70.7536 70.6622 75.2715 71.0466 80.9674 71.3261C80.6509 71.8329 80.3169 72.3396 79.9653 72.8288C79.5786 73.353 79.1918 73.8772 78.7699 74.3839C75.2012 74.646 72.7576 74.9605 72.7576 75.2925C72.7576 75.572 74.5156 75.8341 77.2053 76.0788C75.6231 77.6164 73.8652 78.9618 71.949 80.0626C71.949 80.0626 69.5406 78.0008 67.5365 75.5895C65.7609 73.4404 61.9813 67.7617 61.1023 66.4862C60.2058 65.2106 59.6256 64.8437 58.5884 65.2106C57.1996 65.6999 55.5823 65.9445 55.0725 65.9445C54.5627 65.9445 54.299 65.7523 55.1428 65.4203C55.9691 65.0883 59.2565 63.5507 60.8738 60.3532C62.6845 56.7713 61.0847 51.809 61.0847 51.809C60.4695 54.4649 59.0807 55.4433 59.0807 55.4433C59.5377 52.9797 59.0455 50.7606 57.8149 49.1881L57.1293 52.2982C57.1293 52.2982 56.7074 52.2807 55.6526 53.1544C54.5978 54.0455 54.3166 55.321 54.3166 55.321C55.1428 55.653 56.1449 54.8318 56.1449 54.8318C54.8615 59.5669 53.0508 63.4284 51.7148 65.4727C50.3787 67.5171 49.2888 68.2859 47.9527 68.8275C46.8276 69.2818 46.4585 68.7576 46.4585 68.7576C45.5619 67.9888 44.7181 67.1327 43.9797 66.2241C43.9797 66.2241 43.9094 66.1192 44.1204 66.1192C44.6653 66.1192 45.6498 65.1932 45.8608 64.8088C46.1069 64.3719 46.0717 64.0225 45.9486 64.005C45.8256 63.9875 45.6146 64.337 44.5599 65.001C43.5051 65.6649 43.0304 65.2106 42.6788 64.8437C42.4151 64.5467 42.6788 64.1797 42.837 63.9526C42.9953 63.7429 48.568 53.434 63.2998 42.5833C82.6023 28.3779 94.9432 24.5339 95.6464 24.2543C96.121 24.0796 96.877 23.835 97.0528 24.0097C97.2461 24.2019 97.334 24.3766 97.3165 24.6038C97.2989 24.8309 97.1758 24.9532 96.2792 25.3376C88.8606 28.5876 80.2114 33.9867 75.3067 37.1318C69.2593 40.0672 63.4932 44.2432 63.2822 44.3481C62.8251 44.6276 63.1591 45.047 63.4404 44.8723C73.6542 38.1277 85.6084 33.5324 98.8459 29.7583C99.4788 29.5835 99.8303 29.5835 99.9358 29.7233C100.059 29.8806 100.112 30.0553 100.129 30.2475C100.147 30.4921 99.9534 30.6144 99.4084 30.8241C85.2041 36.066 74.7266 40.9409 67.9936 45.4489C67.9936 45.4489 67.2904 45.8682 67.2904 46.3575C67.2904 46.5497 67.6595 46.5671 67.6595 46.5671C71.0348 46.6195 75.5352 46.8292 77.68 46.9515C77.68 46.9515 77.3811 48.0348 75.3243 48.9085C73.7421 49.5725 72.2654 49.4676 70.8239 49.4851C70.5075 49.4851 70.2262 49.7996 70.4899 50.1491C70.5602 50.3238 73.6542 55.2686 84.8876 56.3869Z" fill="#5C0632"/>
</svg>
