<svg width="115" height="114" viewBox="0 0 115 114" fill="none" xmlns="http://www.w3.org/2000/svg">
<circle cx="57.5" cy="57" r="55.5" fill="white" stroke="#A31480" stroke-width="3"/>
<path d="M30.7004 50.1429C30.6994 51.3489 30.3478 52.5277 29.6878 53.5303C29.0287 54.5329 28.0918 55.3143 26.9959 55.7755C25.8999 56.2368 24.6938 56.3572 23.5299 56.1217C22.3669 55.8863 21.2978 55.3053 20.4593 54.4524C19.6206 53.5995 19.0495 52.5128 18.8182 51.3299C18.587 50.1471 18.7059 48.921 19.1598 47.8068C19.6139 46.6926 20.3828 45.7404 21.3696 45.0704C22.3554 44.4003 23.5155 44.0427 24.7015 44.0427C25.4899 44.043 26.2707 44.2013 26.9997 44.5085C27.7278 44.8158 28.3897 45.2661 28.9463 45.8335C29.5039 46.4009 29.9455 47.0745 30.2463 47.8155C30.5471 48.5565 30.7013 49.3507 30.7004 50.1524" fill="#00B5D8"/>
<path d="M46.7017 50.1424C46.7017 51.349 46.3491 52.5284 45.69 53.5316C45.0309 54.5348 44.0931 55.3166 42.9971 55.7783C41.9002 56.2399 40.6941 56.3607 39.5302 56.1251C38.3662 55.8896 37.2971 55.3084 36.4579 54.4551C35.6188 53.6019 35.0468 52.5147 34.816 51.3312C34.5841 50.1478 34.7039 48.9212 35.158 47.8066C35.613 46.692 36.3823 45.7394 37.369 45.0694C38.3557 44.3993 39.5158 44.0419 40.7028 44.0422C41.4912 44.0425 42.2729 44.2008 43.001 44.508C43.729 44.8153 44.391 45.2656 44.9476 45.833C45.5051 46.4004 45.9468 47.074 46.2476 47.815C46.5484 48.5561 46.7026 49.3502 46.7017 50.1519" fill="#A31781"/>
<path d="M62.6959 33.8793C62.6959 35.0855 62.3444 36.2645 61.6853 37.2673C61.0262 38.2702 60.0893 39.0518 58.9933 39.5134C57.8974 39.9749 56.6913 40.0957 55.5273 39.8603C54.3634 39.6251 53.2952 39.0442 52.4561 38.1914C51.6169 37.3386 51.0459 36.252 50.8141 35.069C50.5832 33.8861 50.702 32.66 51.1561 31.5457C51.6102 30.4313 52.3785 29.4789 53.3652 28.8089C54.3519 28.1388 55.5111 27.7811 56.698 27.7811C58.2882 27.7811 59.8143 28.4236 60.939 29.5672C62.0637 30.7109 62.6959 32.262 62.6959 33.8793Z" fill="#A31781"/>
<path d="M78.6932 33.8793C78.6932 35.0855 78.3416 36.2645 77.6825 37.2673C77.0234 38.2702 76.0865 39.0518 74.9906 39.5134C73.8947 39.9749 72.6886 40.0957 71.5246 39.8603C70.3616 39.6251 69.2925 39.0442 68.4533 38.1914C67.6151 37.3386 67.0432 36.252 66.8123 35.069C66.5805 33.8861 66.6993 32.66 67.1533 31.5457C67.6074 30.4313 68.3757 29.4789 69.3625 28.8089C70.3492 28.1388 71.5083 27.7811 72.6953 27.7811C74.2855 27.7811 75.8116 28.4236 76.9363 29.5672C78.0619 30.7109 78.6932 32.262 78.6932 33.8793Z" fill="#00B5D8"/>
<path d="M62.6959 50.1424C62.6959 51.3484 62.3434 52.5272 61.6843 53.5298C61.0252 54.5324 60.0883 55.3138 58.9914 55.775C57.8955 56.2363 56.6894 56.3567 55.5264 56.1213C54.3624 55.8858 53.2943 55.3048 52.4551 54.4519C51.6169 53.599 51.0459 52.5123 50.8141 51.3294C50.5832 50.1466 50.702 48.9205 51.1561 47.8063C51.6102 46.6921 52.3785 45.7399 53.3652 45.0699C54.3519 44.3999 55.5111 44.0422 56.698 44.0422C57.4864 44.0425 58.2672 44.2008 58.9953 44.508C59.7233 44.8153 60.3853 45.2656 60.9428 45.833C61.4994 46.4004 61.941 47.074 62.2418 47.815C62.5427 48.5561 62.6969 49.3502 62.6959 50.1519" fill="#FFD600"/>
<path d="M78.6818 50.1424C78.6818 51.3484 78.3292 52.5272 77.6701 53.5298C77.0111 54.5324 76.0741 55.3138 74.9782 55.775C73.8813 56.2363 72.6762 56.3567 71.5122 56.1213C70.3492 55.8858 69.2801 55.3048 68.4419 54.4519C67.6027 53.599 67.0317 52.5123 66.7999 51.3294C66.569 50.1466 66.6878 48.9205 67.1419 47.8063C67.596 46.6921 68.3653 45.7399 69.351 45.0699C70.3377 44.3999 71.4969 44.0422 72.6838 44.0422C73.4723 44.0425 74.253 44.2008 74.9811 44.508C75.7101 44.8153 76.3711 45.2656 76.9287 45.833C77.4853 46.4004 77.9269 47.074 78.2277 47.815C78.5295 48.5561 78.6837 49.3502 78.6818 50.1519" fill="#006AB4"/>
<path d="M46.7017 66.4035C46.7017 67.6102 46.3501 68.7898 45.691 69.7933C45.0319 70.7968 44.095 71.5789 42.9981 72.0408C41.9022 72.5028 40.6951 72.6238 39.5312 72.3885C38.3672 72.1531 37.2971 71.5721 36.4579 70.7189C35.6188 69.8656 35.0478 68.7785 34.816 67.595C34.5841 66.4115 34.7039 65.1848 35.158 64.0701C35.612 62.9554 36.3813 62.0027 37.369 61.3326C38.3557 60.6624 39.5158 60.305 40.7028 60.3054C42.294 60.3054 43.82 60.9478 44.9447 62.0914C46.0694 63.2351 46.7017 64.7862 46.7017 66.4035Z" fill="#006AB4"/>
<path d="M62.6959 66.4035C62.6959 67.6096 62.3444 68.7887 61.6853 69.7915C61.0262 70.7943 60.0893 71.5759 58.9933 72.0376C57.8974 72.4991 56.6913 72.6198 55.5273 72.3846C54.3634 72.1493 53.2952 71.5685 52.4561 70.7156C51.6169 69.8628 51.0459 68.7761 50.8141 67.5932C50.5832 66.4103 50.702 65.1842 51.1561 64.0698C51.6102 62.9555 52.3785 62.0031 53.3652 61.3331C54.3519 60.663 55.5111 60.3054 56.698 60.3054C58.2882 60.3054 59.8143 60.9478 60.939 62.0914C62.0637 63.2351 62.6959 64.7862 62.6959 66.4035Z" fill="#00B5D8"/>
<path d="M78.6932 66.4035C78.6932 67.6096 78.3416 68.7887 77.6825 69.7915C77.0234 70.7943 76.0865 71.5759 74.9906 72.0376C73.8947 72.4991 72.6886 72.6198 71.5246 72.3846C70.3616 72.1493 69.2925 71.5685 68.4533 70.7156C67.6151 69.8628 67.0432 68.7761 66.8123 67.5932C66.5805 66.4103 66.6993 65.1842 67.1533 64.0698C67.6074 62.9555 68.3757 62.0031 69.3625 61.3331C70.3492 60.663 71.5083 60.3054 72.6953 60.3054C74.2855 60.3054 75.8116 60.9478 76.9363 62.0914C78.0619 63.2351 78.6932 64.7862 78.6932 66.4035Z" fill="#FFD600"/>
<path d="M62.696 82.6675C62.6941 83.8731 62.3396 85.0509 61.6796 86.0523C61.0195 87.0536 60.0816 87.8335 58.9857 88.2933C57.8888 88.7531 56.6837 88.8722 55.5207 88.6356C54.3577 88.399 53.2895 87.8173 52.4523 86.964C51.614 86.1107 51.044 85.0241 50.8132 83.8415C50.5832 82.6588 50.703 81.4333 51.1571 80.3196C51.6111 79.206 52.3804 78.2543 53.3662 77.5847C54.3519 76.9152 55.5121 76.5577 56.698 76.5577C57.4865 76.558 58.2672 76.7163 58.9953 77.0236C59.7234 77.3308 60.3853 77.7811 60.9429 78.3485C61.4994 78.9159 61.9411 79.5895 62.2419 80.3306C62.5427 81.0716 62.6969 81.8657 62.696 82.6675Z" fill="#A31781"/>
<path d="M78.6932 82.6675C78.6913 83.8731 78.3378 85.0509 77.6768 86.0523C77.0168 87.0536 76.0789 87.8335 74.983 88.2933C73.8861 88.7531 72.6809 88.8722 71.5179 88.6356C70.355 88.399 69.2878 87.8173 68.4495 86.964C67.6122 86.1107 67.0413 85.0241 66.8114 83.8415C66.5805 82.6588 66.7003 81.4333 67.1543 80.3196C67.6084 79.206 68.3777 78.2543 69.3635 77.5847C70.3502 76.9152 71.5093 76.5577 72.6953 76.5577C73.4837 76.558 74.2645 76.7163 74.9925 77.0236C75.7216 77.3308 76.3826 77.7811 76.9401 78.3485C77.4967 78.9159 77.9384 79.5895 78.2392 80.3306C78.5409 81.0716 78.6952 81.8657 78.6932 82.6675Z" fill="#006AB4"/>
<path d="M94.681 50.1424C94.68 51.3484 94.3284 52.5272 93.6684 53.5298C93.0093 54.5324 92.0724 55.3138 90.9765 55.775C89.8805 56.2363 88.6744 56.3567 87.5105 56.1213C86.3475 55.8858 85.2784 55.3048 84.4401 54.4519C83.6009 53.599 83.03 52.5123 82.7991 51.3294C82.5673 50.1466 82.6861 48.9205 83.1402 47.8063C83.5942 46.6921 84.3635 45.7399 85.3502 45.0699C86.336 44.3999 87.4961 44.0422 88.6821 44.0422C89.4705 44.0425 90.2513 44.2008 90.9803 44.508C91.7084 44.8153 92.3703 45.2656 92.9269 45.833C93.4845 46.4004 93.9261 47.074 94.2269 47.815C94.5277 48.5561 94.6819 49.3502 94.681 50.1519" fill="#00B5D8"/>
<path d="M94.681 66.4035C94.681 67.6096 94.3284 68.7887 93.6694 69.7915C93.0103 70.7943 92.0734 71.5759 90.9774 72.0376C89.8815 72.4991 88.6754 72.6198 87.5114 72.3846C86.3485 72.1493 85.2793 71.5685 84.4411 70.7156C83.6019 69.8628 83.03 68.7761 82.7991 67.5932C82.5673 66.4103 82.6861 65.1842 83.1402 64.0698C83.5942 62.9555 84.3635 62.0031 85.3493 61.3331C86.336 60.663 87.4961 60.3054 88.6821 60.3054C90.2733 60.3054 91.7984 60.9478 92.924 62.0914C94.0487 63.2351 94.681 64.7862 94.681 66.4035Z" fill="#A31781"/>
</svg>
