<svg width="115" height="114" viewBox="0 0 115 114" fill="none" xmlns="http://www.w3.org/2000/svg">
<circle cx="57.5" cy="57" r="55.5" fill="white" stroke="#00569F" stroke-width="3"/>
<path fill-rule="evenodd" clip-rule="evenodd" d="M57.5079 55.1475L53.3378 62.4394H61.7445L57.5079 55.1475ZM48.8577 61.6152C45.7504 61.8454 41.5322 63.2303 37.2513 65.6027C29.7747 69.7462 24.9365 75.3377 26.4422 78.0852C27.9479 80.8364 35.2327 79.7077 42.7058 75.5642C47.6657 72.8167 51.4668 69.4269 53.024 66.6572H45.9754L48.8577 61.6152ZM36.5538 61.062C41.8717 58.4036 47.16 57.2267 51.1567 57.5905L49.4112 60.6461L51.3893 57.1821C49.2008 53.7106 47.7432 48.4013 47.5808 42.3866C41.0193 45.9025 36.5538 52.8529 36.5538 60.8503V61.062ZM68.6861 78.3636C63.0804 74.9219 59.0284 70.5482 57.5042 66.6572H57.3124C55.7808 70.563 51.6955 74.9589 46.0529 78.4082C49.3005 80.5282 53.1754 81.7608 57.3345 81.7608C61.5231 81.7608 65.4238 80.5096 68.6861 78.3636ZM67.3022 42.5017C67.1251 48.4087 65.7006 53.629 63.5601 57.0782L61.1762 52.9755C62.4087 50.1241 63.1948 45.8469 63.1948 41.0686C63.1948 32.4808 60.6632 25.5193 57.5411 25.5193C54.4227 25.5193 51.8911 32.4808 51.8911 41.0686C51.8911 45.7838 52.655 50.0089 53.8618 52.8604L52.4189 55.3814L57.4562 46.5747L69.129 66.6572H61.7925C63.3461 69.4269 67.1472 72.8167 72.1071 75.5642C79.5838 79.7077 86.865 80.8364 88.3707 78.0889C89.8763 75.3377 85.0382 69.7462 77.5615 65.6027C73.3987 63.2971 69.2914 61.9234 66.2098 61.6374L63.848 57.5757C67.7856 57.2675 72.9301 58.4259 78.1151 60.9914L78.1183 60.8503C78.1183 52.9384 73.7456 46.0549 67.3022 42.5017ZM57.441 21.0751C62.2755 21.0751 66.3017 28.1665 67.1541 37.5303C76.2214 41.3433 82.5948 50.3506 82.5948 60.8503C82.5948 61.7377 82.5468 62.6176 82.4582 63.4827C90.5143 68.7883 94.9797 75.9652 92.5957 80.3166C90.2154 84.668 81.7976 84.7014 73.033 80.6841C68.7558 84.0851 63.353 86.1196 57.4779 86.1196C51.5807 86.1196 46.1595 84.0702 41.8713 80.6433C33.0771 84.7013 24.6076 84.6791 22.2163 80.3128C19.8212 75.9391 24.3493 68.7103 32.4903 63.3936C32.4091 62.5582 32.3649 61.708 32.3649 60.8503C32.3649 50.3803 38.7012 41.3952 47.7279 37.5636C48.5767 28.1814 52.6029 21.0751 57.441 21.0751Z" fill="#00569F"/>
</svg>
