<svg width="115" height="114" viewBox="0 0 115 114" fill="none" xmlns="http://www.w3.org/2000/svg">
<circle cx="57.5" cy="57" r="57" fill="#00B5EF"/>
<circle cx="57.5001" cy="57" r="35.9244" fill="#FFD14F"/>
<path fill-rule="evenodd" clip-rule="evenodd" d="M82.9021 82.4019C76.1168 89.1873 67.0959 92.9244 57.4992 92.9244C47.9042 92.9244 38.8833 89.1873 32.098 82.4028C25.3127 75.6174 21.5757 66.5963 21.5757 57.0004C21.5757 37.1915 37.6914 21.0756 57.4992 21.0756C67.0959 21.0756 76.1168 24.8118 82.9021 31.5972C89.6875 38.3826 93.4244 47.4036 93.4244 56.9996C93.4244 66.5955 89.6875 75.6165 82.9021 82.4019ZM33.2584 32.7579C26.7834 39.2331 23.217 47.8421 23.217 56.9994C23.217 66.1566 26.7834 74.7648 33.2584 81.24C39.7335 87.7151 48.3433 91.2806 57.4996 91.2806C76.4025 91.2806 91.783 75.9025 91.783 56.9985C91.783 47.8413 88.2167 39.2322 81.7425 32.7571C75.2666 26.2819 66.6567 22.7156 57.4996 22.7156C48.3433 22.7156 39.7335 26.2828 33.2584 32.7579Z" fill="#F0501D"/>
<path d="M75.3229 40.6465H57.9464C56.5915 40.6465 54.9351 41.6092 54.2637 42.7847L46.6381 56.1435L48.6151 59.3048L50.7741 55.523C50.7741 55.523 52.103 52.4082 56.0606 52.4082H68.8134C70.1682 52.4082 71.8247 51.4464 72.4961 50.2708L78.9263 39.0055C78.9263 39.0055 76.676 40.6465 75.3229 40.6465Z" fill="#439539"/>
<path d="M54.0187 69.4896H72.95C74.3031 69.4896 75.9596 68.5105 76.6301 67.3341L85.134 52.4093C85.134 52.4093 82.8854 54.0503 81.5314 54.0503H59.1286C57.7755 54.0503 56.1173 55.0121 55.4442 56.1868C55.4442 56.1868 48.9571 67.4461 48.0047 69.1173C47.0524 70.7884 45.1193 71.2452 44.3651 71.24C41.3366 71.2202 38.4167 69.3732 38.4167 65.7836C38.4167 60.347 46.7594 61.982 46.7594 61.982L42.3829 55.0069C42.3829 55.0069 32.9465 55.2689 32.9465 65.538C32.9465 75.9328 43.5516 77.0265 43.5516 77.0265H80.0861L83.4439 71.1452H53.075C52.0571 71.1469 51.8158 69.4896 54.0187 69.4896Z" fill="#439539"/>
</svg>
