<svg width="72" height="72" viewBox="0 0 72 72" fill="none" xmlns="http://www.w3.org/2000/svg">
<circle cx="36" cy="36" r="34" stroke="#F14635" stroke-width="4"/>
<path fill-rule="evenodd" clip-rule="evenodd" d="M36 56.7272C47.6363 46.6407 53.4545 38.4754 53.4545 32.2314C53.4545 22.8654 46.8448 15.2727 36 15.2727C25.1551 15.2727 18.5454 22.8654 18.5454 32.2314C18.5454 38.4754 24.3636 46.6407 36 56.7272ZM22.4241 32.2325C22.4241 24.4832 27.7569 19.0424 35.9998 19.0424C44.2428 19.0424 49.5756 24.4832 49.5756 32.2325C49.5756 36.6721 45.1253 43.2848 35.9998 51.6202C26.8744 43.2848 22.4241 36.6721 22.4241 32.2325ZM35.9999 24.6951C40.2842 24.6951 43.7574 28.0696 43.7574 32.2323C43.7574 36.395 40.2842 39.7695 35.9999 39.7695C31.7155 39.7695 28.2423 36.395 28.2423 32.2323C28.2423 28.0696 31.7155 24.6951 35.9999 24.6951ZM35.9998 28.4638C33.8576 28.4638 32.121 30.151 32.121 32.2324C32.121 34.3137 33.8576 36.0009 35.9998 36.0009C38.142 36.0009 39.8786 34.3137 39.8786 32.2324C39.8786 30.151 38.142 28.4638 35.9998 28.4638Z" fill="#F14635"/>
<path d="M36 56.7272L35.9345 56.8028L36 56.8596L36.0655 56.8028L36 56.7272ZM35.9998 51.6202L35.9324 51.694L35.9998 51.7556L36.0673 51.694L35.9998 51.6202ZM53.3545 32.2314C53.3545 35.3234 51.9132 38.9052 49.0094 42.9803C46.1067 47.0541 41.7495 51.6111 35.9345 56.6517L36.0655 56.8028C41.8868 51.7568 46.2569 47.188 49.1723 43.0964C52.0867 39.0062 53.5545 35.3834 53.5545 32.2314H53.3545ZM36 15.3727C41.398 15.3727 45.7351 17.2618 48.7226 20.3098C51.7107 23.3583 53.3545 27.5721 53.3545 32.2314H53.5545C53.5545 27.5247 51.8935 23.2591 48.8655 20.1698C45.8369 17.08 41.4467 15.1727 36 15.1727V15.3727ZM18.6454 32.2314C18.6454 27.5721 20.2892 23.3583 23.2773 20.3098C26.2648 17.2618 30.6019 15.3727 36 15.3727V15.1727C30.5532 15.1727 26.163 17.08 23.1344 20.1698C20.1064 23.2591 18.4454 27.5247 18.4454 32.2314H18.6454ZM36.0655 56.6517C30.2504 51.6111 25.8932 47.0541 22.9905 42.9803C20.0867 38.9052 18.6454 35.3234 18.6454 32.2314H18.4454C18.4454 35.3834 19.9132 39.0062 22.8276 43.0964C25.7431 47.188 30.1131 51.7568 35.9345 56.8028L36.0655 56.6517ZM35.9998 18.9424C31.8559 18.9424 28.4355 20.3104 26.0507 22.6602C23.6658 25.01 22.3241 28.3343 22.3241 32.2325H22.5241C22.5241 28.3813 23.8487 25.1106 26.191 22.8027C28.5334 20.4948 31.9008 19.1424 35.9998 19.1424V18.9424ZM49.6756 32.2325C49.6756 28.3343 48.3338 25.01 45.949 22.6602C43.5642 20.3104 40.1438 18.9424 35.9998 18.9424V19.1424C40.0988 19.1424 43.4663 20.4948 45.8086 22.8027C48.1509 25.1106 49.4756 28.3813 49.4756 32.2325H49.6756ZM36.0673 51.694C40.6332 47.5235 44.0329 43.7808 46.2919 40.5224C48.5492 37.2665 49.6756 34.4827 49.6756 32.2325H49.4756C49.4756 34.4218 48.3768 37.1642 46.1276 40.4084C43.8801 43.6502 40.4919 47.3816 35.9324 51.5464L36.0673 51.694ZM22.3241 32.2325C22.3241 34.4827 23.4504 37.2665 25.7077 40.5224C27.9668 43.7808 31.3665 47.5235 35.9324 51.694L36.0673 51.5464C31.5077 47.3816 28.1196 43.6502 25.8721 40.4084C23.6229 37.1642 22.5241 34.4218 22.5241 32.2325H22.3241ZM43.8574 32.2323C43.8574 28.0117 40.3367 24.5951 35.9999 24.5951V24.7951C40.2317 24.7951 43.6574 28.1276 43.6574 32.2323H43.8574ZM35.9999 39.8695C40.3367 39.8695 43.8574 36.4529 43.8574 32.2323H43.6574C43.6574 36.337 40.2317 39.6695 35.9999 39.6695V39.8695ZM28.1423 32.2323C28.1423 36.4529 31.663 39.8695 35.9999 39.8695V39.6695C31.768 39.6695 28.3423 36.337 28.3423 32.2323H28.1423ZM35.9999 24.5951C31.663 24.5951 28.1423 28.0117 28.1423 32.2323H28.3423C28.3423 28.1276 31.768 24.7951 35.9999 24.7951V24.5951ZM32.221 32.2324C32.221 30.2089 33.9101 28.5638 35.9998 28.5638V28.3638C33.8051 28.3638 32.021 30.0931 32.021 32.2324H32.221ZM35.9998 35.9009C33.9101 35.9009 32.221 34.2558 32.221 32.2324H32.021C32.021 34.3716 33.8051 36.1009 35.9998 36.1009V35.9009ZM39.7786 32.2324C39.7786 34.2558 38.0895 35.9009 35.9998 35.9009V36.1009C38.1945 36.1009 39.9786 34.3716 39.9786 32.2324H39.7786ZM35.9998 28.5638C38.0895 28.5638 39.7786 30.2089 39.7786 32.2324H39.9786C39.9786 30.0931 38.1945 28.3638 35.9998 28.3638V28.5638Z" fill="#F14635"/>
</svg>
