<?xml version="1.0" encoding="UTF-8"?>
<svg xmlns="http://www.w3.org/2000/svg" xmlns:xlink="http://www.w3.org/1999/xlink" width="48px" height="48px" viewBox="0 0 48 48" version="1.1">
<g id="surface1">
<path style=" stroke:none;fill-rule:evenodd;fill:rgb(100%,100%,100%);fill-opacity:1;" d="M 44.109375 10.894531 C 39.824219 4.335938 32.417969 0 24 0 C 18.019531 0 12.546875 2.1875 8.34375 5.808594 L 8.34375 42.191406 C 12.546875 45.8125 18.019531 48 24 48 C 32.417969 48 39.824219 43.664062 44.109375 37.105469 Z M 44.109375 10.894531 "/>
<path style=" stroke:none;fill-rule:evenodd;fill:rgb(94.509804%,27.450982%,20.784314%);fill-opacity:1;" d="M 25.121094 25.726562 C 29.417969 26.386719 29.996094 28.929688 30.34375 31.296875 L 30.402344 31.699219 L 30.441406 31.972656 L 30.652344 33.363281 C 31.058594 36.023438 31.914062 41.539062 31.914062 44.417969 C 31.914062 45.140625 31.851562 45.691406 31.734375 45.996094 C 31.542969 46.460938 30.964844 46.847656 30.1875 47.222656 C 28.3125 47.714844 26.320312 47.972656 24.351562 47.996094 C 24.136719 48 23.90625 48.003906 23.695312 47.996094 C 22.878906 47.765625 22.28125 47.359375 21.957031 46.832031 C 20.976562 45.234375 20.917969 41.675781 20.898438 37.519531 L 20.894531 37.039062 L 20.886719 35.792969 C 20.855469 31.390625 20.828125 27.597656 22.425781 26.234375 C 23.046875 25.710938 23.925781 25.535156 25.121094 25.726562 Z M 15.753906 35.308594 C 16.6875 35.253906 17.285156 39.832031 17.40625 43.304688 C 17.488281 45.722656 17.304688 46.609375 16.898438 46.964844 C 16.441406 46.8125 15.984375 46.675781 15.539062 46.496094 C 15.242188 45.957031 14.953125 45.1875 14.808594 44.078125 C 14.371094 40.59375 14.753906 35.367188 15.753906 35.308594 Z M 39.09375 42.148438 C 39.035156 42.46875 38.914062 42.726562 38.8125 42.933594 C 38.015625 43.574219 37.15625 44.117188 36.28125 44.644531 C 36.003906 44.691406 35.816406 44.6875 35.695312 44.480469 C 34.535156 42.445312 34.101562 36.046875 35.222656 35.492188 C 36.6875 34.785156 39.308594 41.042969 39.09375 42.148438 Z M 24 0 C 37.070312 0 47.699219 10.351562 47.992188 23.230469 L 48 23.675781 L 48 23.878906 C 47.976562 29.699219 45.925781 35.324219 42.398438 39.441406 C 42.269531 39.378906 41.945312 38.867188 41.523438 38.234375 C 41.085938 37.597656 37.3125 31.789062 37.3125 25.136719 C 37.3125 23.828125 39.195312 21.789062 40.863281 19.996094 C 42.105469 18.652344 43.285156 17.378906 43.722656 16.378906 C 44.273438 15.089844 43.886719 14.191406 43.273438 13.886719 C 42.71875 13.613281 41.886719 13.8125 41.304688 14.847656 C 40.347656 16.527344 40.039062 16.839844 38.640625 17.964844 C 37.265625 19.085938 35.078125 20.214844 35.078125 18.753906 C 35.078125 17.964844 36.296875 16.175781 36.898438 14.921875 C 37.511719 13.65625 36.851562 12.738281 35.582031 12.738281 C 33.089844 12.738281 31.4375 15.910156 31.4375 17.007812 C 31.4375 18.109375 31.96875 18.265625 31.96875 19.542969 C 31.96875 20.832031 29.238281 22.503906 26.660156 22.503906 C 24.183594 22.503906 22.746094 22.003906 22.148438 20.589844 L 22.074219 20.390625 L 21.902344 19.882812 C 21.289062 18.097656 20.851562 16.800781 20.089844 15.449219 C 19.683594 14.734375 19.058594 14.238281 18.519531 13.800781 C 17.8125 13.253906 17.445312 12.746094 17.371094 12.371094 C 17.300781 11.996094 17.261719 11.292969 18.46875 9.667969 C 19.675781 8.054688 19.84375 6.835938 19.238281 6.207031 C 19.019531 5.980469 18.648438 5.839844 18.171875 5.839844 C 17.324219 5.839844 16.148438 6.285156 14.9375 7.519531 C 13.050781 9.449219 14.121094 11.28125 14.121094 12.085938 C 14.121094 12.890625 13.777344 13.34375 12.644531 14.4375 C 11.507812 15.539062 11.113281 16.480469 10.984375 20.265625 C 10.933594 22.214844 10.589844 23.339844 10.28125 24.332031 C 10.015625 25.207031 9.769531 26.027344 9.757812 27.210938 C 9.734375 28.527344 9.953125 29.371094 10.210938 30.347656 C 10.460938 31.253906 10.726562 32.285156 10.898438 34.015625 C 11.167969 36.695312 11.074219 38.957031 10.582031 41.269531 L 10.449219 41.851562 L 10.417969 42.015625 C 10.316406 42.421875 9.914062 43.148438 9.75 43.332031 C 3.675781 39.019531 0 31.742188 0 23.777344 C 0 10.648438 10.746094 0 24 0 Z M 24 0 "/>
</g>
</svg>
