<svg width="400" height="201" viewBox="0 0 400 201" fill="none" xmlns="http://www.w3.org/2000/svg">
<path fill-rule="evenodd" clip-rule="evenodd" d="M238.075 5.2125L249.041 11.5437C246.382 18.1744 248.932 25.9233 255.299 29.5992C261.666 33.2752 269.651 31.6087 274.064 25.9906L277.8 28.1475L285.925 32.8387C290.413 35.4297 291.95 41.1679 289.359 45.6555L229.416 149.481C226.537 154.467 220.161 156.176 215.175 153.297L204.216 146.97C206.877 140.338 204.328 132.587 197.96 128.911C191.592 125.234 183.605 126.902 179.192 132.522L168.228 126.192C163.241 123.313 161.533 116.937 164.412 111.951L223.834 9.02833C226.713 4.04213 233.089 2.33372 238.075 5.2125Z" fill="#DDDDDD"/>
<path fill-rule="evenodd" clip-rule="evenodd" d="M236.516 60.9963C236.947 60.7084 237.521 61.0398 237.488 61.5571L236.909 70.4632L243.914 75.9878C244.322 76.3088 244.184 76.9574 243.681 77.0851L235.031 79.2844L231.796 88.051C231.677 88.3754 231.237 88.4216 231.053 88.1294L226.062 80.2255L217.148 79.8744C216.63 79.854 216.36 79.2483 216.692 78.8496L222.394 71.9888L219.974 63.3979C219.834 62.8988 220.326 62.4553 220.808 62.6473L229.094 65.9516L236.516 60.9963Z" fill="white" stroke="white" stroke-width="6.255"/>
<rect x="221.953" y="24.7969" width="12.51" height="8.34" rx="4.17" transform="rotate(30 221.953 24.7969)" fill="white"/>
<rect x="236.402" y="33.1367" width="12.51" height="8.34" rx="4.17" transform="rotate(30 236.402 33.1367)" fill="white"/>
<rect x="250.84" y="41.4766" width="12.51" height="8.34" rx="4.17" transform="rotate(30 250.84 41.4766)" fill="white"/>
<rect x="265.289" y="49.8154" width="12.51" height="8.34" rx="4.17" transform="rotate(30 265.289 49.8154)" fill="white"/>
<path fill-rule="evenodd" clip-rule="evenodd" d="M262.627 85.2119C259.433 85.2119 256.844 87.8162 256.844 91.0288C256.844 94.2413 259.433 96.8456 262.627 96.8456H276.402L285.668 131.791C286.491 134.895 289.66 136.741 292.746 135.913C295.832 135.085 297.667 131.898 296.844 128.794L287.35 92.9844C286.134 88.401 282.007 85.2119 277.291 85.2119H262.627ZM316.86 190.499C316.86 196.281 312.199 200.969 306.449 200.969C300.7 200.969 296.039 196.281 296.039 190.499C296.039 184.716 300.7 180.028 306.449 180.028C312.199 180.028 316.86 184.716 316.86 190.499ZM363.696 190.499C363.696 196.281 359.035 200.969 353.285 200.969C347.536 200.969 342.875 196.281 342.875 190.499C342.875 184.716 347.536 180.028 353.285 180.028C359.035 180.028 363.696 184.716 363.696 190.499Z" fill="#C4C4C4"/>
<path d="M279.859 110.383H381.478C386.001 110.383 389.029 115.037 387.196 119.173L364.613 170.119C363.611 172.381 361.369 173.839 358.895 173.839H301.308C298.464 173.839 295.978 171.921 295.257 169.169L279.859 110.383Z" fill="#DDDDDD"/>
<rect x="78" y="61" width="76" height="136" rx="16" fill="#F0F0F0" stroke="#C4C4C4" stroke-width="8"/>
<rect x="101" y="71" width="30" height="8" rx="4" fill="#C4C4C4"/>
<rect x="138" y="105" width="124" height="96" rx="13.3251" fill="#D5AE6C"/>
<path fill-rule="evenodd" clip-rule="evenodd" d="M200.001 125C207.712 125 214.696 128.162 219.76 133.276C224.823 138.39 227.967 145.458 228 153.27V153.393V153.516C227.971 160.463 225.474 166.818 221.357 171.737C221.301 171.709 221.229 171.657 221.131 171.56C220.971 171.4 220.749 171.124 220.444 170.654C220.188 170.274 218.96 168.352 217.795 165.53C216.631 162.708 215.53 158.989 215.53 155.015C215.53 154.235 216.08 153.236 216.872 152.164C217.664 151.093 218.699 149.949 219.67 148.88L219.704 148.842L219.704 148.842L219.704 148.842C220.419 148.051 221.114 147.282 221.694 146.564C222.282 145.834 222.753 145.156 223.006 144.56C223.329 143.79 223.378 143.137 223.257 142.63C223.135 142.123 222.844 141.764 222.486 141.581C222.163 141.42 221.758 141.398 221.35 141.571C220.941 141.744 220.528 142.113 220.188 142.732C219.629 143.734 219.26 144.329 218.827 144.841C218.393 145.352 217.896 145.781 217.081 146.452C216.278 147.122 215.239 147.794 214.401 148.08C213.563 148.367 212.926 148.268 212.926 147.395C212.926 146.924 213.281 146.154 213.723 145.315C213.88 145.018 214.047 144.713 214.214 144.41C214.519 143.854 214.821 143.303 215.049 142.82C215.407 142.063 215.392 141.41 215.104 140.947C214.815 140.484 214.252 140.21 213.513 140.21C212.06 140.21 210.85 141.157 210.004 142.268C209.158 143.38 208.676 144.655 208.676 145.311C208.676 145.942 208.819 146.312 208.969 146.697L208.987 146.744C209.143 147.145 209.298 147.574 209.298 148.338C209.298 149.107 208.501 149.991 207.328 150.682C206.155 151.373 204.607 151.873 203.105 151.873C201.593 151.873 200.413 151.709 199.532 151.312C198.651 150.915 198.069 150.284 197.752 149.35L197.652 149.046L197.552 148.741L197.497 148.576L197.497 148.576C197.163 147.58 196.872 146.711 196.561 145.901C196.233 145.046 195.883 144.256 195.438 143.449C195.201 143.021 194.901 142.66 194.581 142.34C194.279 142.038 193.959 141.773 193.66 141.525L193.66 141.525L193.66 141.525L193.606 141.481C193.194 141.153 192.881 140.838 192.66 140.55C192.439 140.261 192.31 139.997 192.265 139.772C192.224 139.549 192.192 139.228 192.347 138.719C192.501 138.211 192.842 137.516 193.546 136.547C194.25 135.583 194.651 134.736 194.788 134.037C194.925 133.338 194.798 132.786 194.447 132.41C194.319 132.277 194.147 132.168 193.937 132.092C193.726 132.016 193.478 131.972 193.199 131.972C192.705 131.972 192.115 132.107 191.472 132.424C190.829 132.742 190.133 133.243 189.426 133.979C188.327 135.131 188.089 136.254 188.127 137.209C188.147 137.746 188.255 138.229 188.345 138.635L188.345 138.635C188.415 138.952 188.475 139.221 188.475 139.431C188.475 139.912 188.374 140.288 188.109 140.707C187.843 141.126 187.413 141.588 186.753 142.241C186.089 142.897 185.643 143.506 185.343 144.517C185.043 145.527 184.89 146.938 184.814 149.198C184.785 150.363 184.67 151.281 184.518 152.056C184.366 152.831 184.176 153.463 183.996 154.058C183.841 154.579 183.691 155.084 183.579 155.636C183.467 156.188 183.391 156.787 183.383 157.495C183.371 158.279 183.429 158.924 183.527 159.518C183.625 160.113 183.763 160.657 183.912 161.24C184.058 161.779 184.208 162.358 184.347 163.06C184.486 163.761 184.613 164.587 184.713 165.62C184.884 167.353 184.93 168.939 184.845 170.469C184.761 171.999 184.544 173.471 184.191 174.974L184.173 175.073L184.156 175.172L184.144 175.222C184.078 175.49 184.006 175.786 183.923 176.031C183.859 176.219 183.788 176.375 183.708 176.468C182.46 175.561 181.284 174.559 180.201 173.462C175.134 168.325 172 161.23 172 153.394C172 145.554 175.134 138.456 180.201 133.317C185.268 128.179 192.268 125 200.001 125ZM208.75 176.787C208.75 177.21 208.732 177.585 208.697 177.898C208.663 178.211 208.611 178.463 208.544 178.641C208.384 179.038 208.005 179.424 207.471 179.774C207.264 179.91 207.028 180.038 206.778 180.161C204.613 180.705 202.35 180.999 200.018 180.999C199.849 180.999 199.682 180.993 199.515 180.987C199.438 180.984 199.361 180.982 199.284 180.98C198.991 180.895 198.717 180.794 198.472 180.673C197.932 180.407 197.517 180.056 197.259 179.627C196.671 178.652 196.371 177.053 196.214 175.057C196.058 173.061 196.045 170.666 196.035 168.099L196.03 167.366L196.025 166.632C196.006 164.042 195.989 161.63 196.207 159.665C196.426 157.7 196.879 156.183 197.801 155.381C198.159 155.073 198.591 154.867 199.107 154.767C199.623 154.667 200.222 154.671 200.911 154.781C203.532 155.195 204.954 156.225 205.772 157.516C206.587 158.802 206.803 160.347 207.005 161.798L207.007 161.813L207.029 161.975L207.052 162.136L207.173 162.956L207.293 163.776L207.307 163.866C207.543 165.431 207.899 167.792 208.199 170.184C208.504 172.622 208.75 175.093 208.75 176.787ZM217.568 173.708C217.701 173.041 216.965 170.822 215.972 168.876C214.979 166.931 213.728 165.258 212.832 165.684C212.145 166.02 211.934 168.114 212.074 170.432C212.212 172.749 212.701 175.29 213.412 176.519C213.541 176.736 213.79 176.795 214.079 176.767C214.107 176.765 214.135 176.76 214.164 176.755L214.164 176.755L214.164 176.755C214.178 176.752 214.191 176.75 214.204 176.748C215.275 176.112 216.299 175.406 217.273 174.637C217.281 174.621 217.29 174.605 217.298 174.59L217.298 174.59C217.31 174.567 217.323 174.544 217.334 174.518C217.431 174.293 217.509 174.029 217.568 173.708ZM190.659 168.832C190.989 170.719 191.2 173.134 191.27 175.218C191.327 176.887 191.253 177.991 191.089 178.71C190.968 179.24 190.797 179.559 190.594 179.741C190.057 179.557 189.526 179.359 189.003 179.143C188.858 178.874 188.727 178.544 188.612 178.15C188.45 177.597 188.318 176.925 188.22 176.147C187.961 174.055 187.944 171.441 188.139 169.341C188.334 167.241 188.742 165.655 189.332 165.618C189.879 165.587 190.328 166.945 190.659 168.832Z" fill="#FEFEFE"/>
</svg>
